<svg width="180" height="40" viewBox="0 0 180 40" fill="none" xmlns="http://www.w3.org/2000/svg">
<path fill-rule="evenodd" clip-rule="evenodd" d="M166.695 16.0761V16.0976C167.833 16.0976 168.885 16.4429 169.737 17.0265C170.527 17.5672 170.593 18.785 169.888 19.4472C168.956 20.3237 167.663 20.8676 166.236 20.8676V20.8855H133.613V18.4809V16.0761V10.3034V9.50277V5.49422H166.236V5.5119C167.663 5.5119 168.956 6.0558 169.888 6.93229C170.593 7.59476 170.527 8.81229 169.737 9.35292C168.885 9.9368 167.833 10.2822 166.695 10.2822V10.3034H135.984V16.0761H166.695ZM179.018 11.8524C179.672 11.0668 180 10.0385 180 8.99449V7.42697C180 5.09989 177.688 0.0212186 170.421 6.50801e-06H127.205C125.174 6.50801e-06 123.888 2.11061 123.888 4.24705L123.734 12.5092L124.022 22.3706C124.094 24.9971 125.173 26.1325 127.205 26.6174H170.421C177.688 26.5965 180 21.5178 180 19.1905V17.361C180 16.6216 179.807 15.8887 179.404 15.2825C178.877 14.4879 178.069 13.7218 177.256 13.3087C177.89 12.9867 178.521 12.4504 179.018 11.8524ZM110.964 6.92821e-05V13.2288V17.2654V19.7834H108.086H105.863H94.0598H91.9H78.1673C77.9078 19.7834 77.6525 19.7467 77.4036 19.673C76.7999 19.494 75.7687 19.0551 75.2582 18.0644C75.0741 17.7073 74.9958 17.304 74.9958 16.9021V6.92821e-05H64.5341V18.7519C64.5589 20.1649 65.0177 21.5415 65.8759 22.6641C65.8971 22.6919 65.9184 22.7193 65.9398 22.7468C67.3885 24.5958 69.6115 25.6714 71.9567 25.7948L73.9167 25.8979H75.9683H91.9H94.0598H109.991H112.043C112.057 25.8988 112.389 25.8985 112.687 25.8982H112.689L113.043 25.8979H117.4C119.629 25.8979 121.436 24.0908 121.436 21.8613V18.1476V15.5869V6.92821e-05H110.964ZM51.5272 26.5241H0C0 23.1984 5.93532 20.5026 9.261 20.5026H61.148C61.148 23.8283 54.8527 26.5241 51.5272 26.5241ZM50.0496 9.36548H40.326V10.2512H38.867V9.59719C35.4254 10.0513 28.1162 10.4846 28.1162 10.4846V11.2305H22.0414V10.3423H20.2925L12.3222 10.36C11.3975 10.3619 9.58743 9.61921 9.55507 8.69785C9.58743 7.77648 11.3975 7.03405 12.3222 7.03568L20.2925 7.05363C20.4905 7.05391 20.6795 6.97205 20.8146 6.82737L21.8559 5.71401C21.9742 5.58728 22.1398 5.51548 22.3134 5.51548H28.3161C28.7355 5.51548 29.0754 5.85542 29.0754 6.27477V6.5546H27.3569V7.25379C31.3538 7.16541 36.4632 7.6609 38.867 7.92659V7.25379H40.326V8.0865H53.2015C57.6677 8.0865 61.2879 4.46603 61.2879 5.72065e-05H11.3586C3.95724 0.180088 0.743062 4.02547 0.180125 7.93938C-0.359425 11.6901 3.59745 17.8049 11.2654 17.9447H61.1506C61.1492 13.2062 54.788 9.36548 50.0496 9.36548ZM9.55507 8.69785C9.55494 8.70184 9.55426 8.70572 9.55358 8.70958L9.55358 8.7096C9.55283 8.71388 9.55208 8.71816 9.55208 8.72259V8.6731C9.55208 8.67757 9.55284 8.68197 9.5536 8.68633L9.55472 8.69354L9.55507 8.69785ZM17.8862 9.42188C18.1538 9.42188 18.3706 9.20486 18.3706 8.93753C18.3706 8.67021 18.1538 8.45319 17.8862 8.45319C17.6189 8.45319 17.4019 8.67021 17.4019 8.93753C17.4019 9.20486 17.6189 9.42188 17.8862 9.42188ZM22.5674 8.93753C22.5674 9.20486 22.3506 9.42188 22.083 9.42188C21.8154 9.42188 21.5987 9.20486 21.5987 8.93753C21.5987 8.67021 21.8154 8.45319 22.083 8.45319C22.3506 8.45319 22.5674 8.67021 22.5674 8.93753ZM26.586 9.42188C26.8536 9.42188 27.0703 9.20486 27.0703 8.93753C27.0703 8.67021 26.8536 8.45319 26.586 8.45319C26.3184 8.45319 26.1016 8.67021 26.1016 8.93753C26.1016 9.20486 26.3184 9.42188 26.586 9.42188ZM31.333 8.83089C31.333 9.09849 31.1163 9.31523 30.8487 9.31523C30.5813 9.31523 30.3643 9.09849 30.3643 8.83089C30.3643 8.56356 30.5813 8.34654 30.8487 8.34654C31.1163 8.34654 31.333 8.56356 31.333 8.83089ZM56.3228 33.823C56.3919 33.823 56.4503 33.8482 56.4981 33.8987C56.5486 33.9465 56.5738 34.0049 56.5738 34.074V39.9339H56.3786C56.1316 39.9339 55.9205 39.8463 55.7452 39.671C55.5699 39.4984 55.4823 39.2886 55.4823 39.0416V35.0181C55.4823 34.9889 55.473 34.9637 55.4544 34.9424C55.4332 34.9238 55.4079 34.9145 55.3787 34.9145H55.0082C54.987 34.9252 54.9644 34.9491 54.9405 34.9862L53.0443 37.8545C52.885 38.0961 52.6924 38.2834 52.4667 38.4162C52.2409 38.549 52.0032 38.6153 51.7536 38.6153H51.3194C51.0697 38.6153 50.8321 38.549 50.6063 38.4162C50.3832 38.2834 50.1907 38.0961 50.0287 37.8545L48.1365 34.9862C48.1099 34.9491 48.086 34.9252 48.0647 34.9145H47.6544C47.6252 34.9145 47.6 34.9238 47.5787 34.9424C47.5575 34.9637 47.5469 34.9889 47.5469 35.0181V38.6273H47.3557C47.1087 38.6273 46.8975 38.541 46.7223 38.3684C46.547 38.1931 46.4593 37.9819 46.4593 37.735V34.07C46.4593 34.0009 46.4846 33.9425 46.535 33.8947C46.5828 33.8443 46.6413 33.819 46.7103 33.819H48.0767C48.2653 33.819 48.4445 33.8695 48.6145 33.9704C48.7818 34.0687 48.9239 34.2081 49.0407 34.3887L50.937 37.2529C51.0591 37.4362 51.1866 37.5278 51.3194 37.5278H51.7536C51.8864 37.5278 52.0139 37.4362 52.136 37.2529L54.0323 34.3887C54.1491 34.2081 54.2925 34.0687 54.4625 33.9704C54.6298 33.8721 54.8077 33.823 54.9963 33.823H56.3228ZM34.6773 37.4402C34.6773 37.4827 34.6919 37.5185 34.7211 37.5477C34.7503 37.5769 34.7849 37.5915 34.8247 37.5915H36.0317C36.0317 37.8837 35.9468 38.132 35.7768 38.3365C35.6095 38.541 35.4076 38.6432 35.1713 38.6432H32.2393C32.2393 38.3511 32.3243 38.1028 32.4943 37.8983C32.6642 37.6938 32.8714 37.5902 33.1157 37.5876H33.4424C33.4849 37.5876 33.5207 37.5743 33.5499 37.5477C33.5765 37.5185 33.5898 37.4827 33.5898 37.4402V35.0699C33.5898 35.0274 33.5765 34.9916 33.5499 34.9623C33.5207 34.9331 33.4849 34.9185 33.4424 34.9185H32.2393C32.2393 34.629 32.3243 34.3807 32.4943 34.1736C32.6642 33.9691 32.8714 33.8668 33.1157 33.8668C34.0665 33.8668 35.0385 33.8682 36.0317 33.8708C36.0317 34.1603 35.9468 34.4073 35.7768 34.6118C35.6095 34.8163 35.4076 34.9185 35.1713 34.9185H34.8247C34.7849 34.9185 34.7503 34.9331 34.7211 34.9623C34.6919 34.9916 34.6773 35.0274 34.6773 35.0699V37.4402ZM74.4469 34.3011C74.1494 34.0036 73.7909 33.8549 73.3713 33.8549H67.3958C67.2869 33.8549 67.1953 33.8921 67.1209 33.9664C67.0466 34.0434 67.0094 34.1351 67.0094 34.2413V38.0258C67.0094 38.1931 67.0678 38.3352 67.1847 38.452C67.3015 38.5689 67.4423 38.6273 67.6069 38.6273H68.081V36.6833L68.085 35.8069V35.1615C68.085 35.0978 68.1075 35.0433 68.1527 34.9982C68.1978 34.953 68.2523 34.9305 68.316 34.9305H73.3713C73.4908 34.9305 73.5944 34.9716 73.682 35.054C73.7696 35.1363 73.8161 35.2372 73.8214 35.3567V35.3766C73.8214 35.4935 73.7776 35.5931 73.69 35.6754C73.6023 35.7631 73.4948 35.8069 73.3673 35.8069H68.567V35.9702C68.5696 36.1667 68.64 36.3354 68.7781 36.4761C68.9189 36.6142 69.0875 36.6833 69.284 36.6833H73.5505C74.0153 36.6833 74.3672 36.5372 74.6062 36.2451C74.8001 36.0087 74.897 35.7206 74.897 35.3806C74.897 34.9584 74.747 34.5985 74.4469 34.3011ZM90.7424 33.8668C91.0637 33.8668 91.3718 33.9292 91.6666 34.0541C91.9507 34.1736 92.203 34.3435 92.4235 34.564C92.6439 34.7817 92.8139 35.034 92.9334 35.3209C93.0582 35.6157 93.1206 35.9237 93.1206 36.2451C93.1206 36.5691 93.0582 36.8785 92.9334 37.1733C92.8139 37.4574 92.6439 37.7084 92.4235 37.9262C92.203 38.1466 91.9507 38.3179 91.6666 38.4401C91.3718 38.5622 91.0637 38.6233 90.7424 38.6233H87.6311C87.3098 38.6233 87.0017 38.5622 86.7069 38.4401C86.4228 38.3179 86.1705 38.1466 85.95 37.9262C85.7296 37.7084 85.5596 37.4574 85.4401 37.1733C85.3153 36.8785 85.2529 36.5691 85.2529 36.2451C85.2529 35.9237 85.3153 35.6157 85.4401 35.3209C85.5596 35.034 85.7296 34.7817 85.95 34.564C86.1705 34.3435 86.4228 34.1736 86.7069 34.0541C87.0017 33.9292 87.3098 33.8668 87.6311 33.8668H90.7424ZM87.6311 34.9384C87.2726 34.9384 86.9645 35.0659 86.7069 35.3209C86.452 35.5758 86.3245 35.8839 86.3245 36.2451C86.3245 36.6063 86.452 36.9143 86.7069 37.1693C86.9645 37.4242 87.2726 37.5517 87.6311 37.5517H90.7424C91.1009 37.5517 91.409 37.4242 91.6666 37.1693C91.9215 36.9143 92.049 36.6063 92.049 36.2451C92.049 35.8839 91.9215 35.5758 91.6666 35.3209C91.409 35.0659 91.1009 34.9384 90.7424 34.9384H87.6311ZM111.28 36.9661C111.182 36.7244 111.019 36.5638 110.79 36.4841C110.955 36.3407 111.081 36.172 111.169 35.9782C111.254 35.7843 111.296 35.5811 111.296 35.3687V35.3288C111.286 34.9172 111.128 34.568 110.822 34.2811C110.52 33.997 110.16 33.8549 109.743 33.8549H103.819C103.726 33.8549 103.646 33.8881 103.58 33.9545C103.514 34.0209 103.48 34.1005 103.48 34.1935V37.9899C103.48 38.1546 103.539 38.2953 103.656 38.4122C103.773 38.5264 103.912 38.5835 104.074 38.5835H104.548V35.1177C104.548 35.0646 104.567 35.0181 104.604 34.9783C104.644 34.9411 104.69 34.9225 104.743 34.9225H109.767C109.889 34.9225 109.995 34.9623 110.085 35.042C110.176 35.1217 110.225 35.2213 110.233 35.3408V35.3727C110.233 35.4869 110.192 35.5838 110.109 35.6635C110.024 35.7484 109.917 35.7909 109.787 35.7909H104.95V35.9304C104.95 36.1322 105.021 36.3048 105.162 36.4482C105.305 36.589 105.478 36.6594 105.679 36.6594H109.356C109.678 36.67 109.925 36.7656 110.097 36.9462C110.257 37.1109 110.336 37.326 110.336 37.5915V39.0097C110.336 39.193 110.401 39.3497 110.532 39.4798C110.662 39.6099 110.818 39.675 111.002 39.675H111.4V37.7708C111.4 37.4335 111.36 37.1653 111.28 36.9661ZM122.632 33.8429H129.396C129.396 34.1324 129.313 34.3794 129.146 34.5839C128.981 34.7857 128.78 34.8867 128.544 34.8867H126.417C126.364 34.8867 126.318 34.9052 126.281 34.9424C126.244 34.9796 126.226 35.0247 126.226 35.0779V38.6114H126.106C125.84 38.6114 125.615 38.5171 125.429 38.3285C125.243 38.1426 125.15 37.9182 125.15 37.6553V35.0779C125.15 35.0247 125.131 34.9796 125.094 34.9424C125.057 34.9052 125.012 34.8867 124.959 34.8867H121.764C121.764 34.5972 121.849 34.3515 122.019 34.1497C122.189 33.9452 122.393 33.8429 122.632 33.8429ZM147.246 35.8228H140.959C140.928 35.8228 140.902 35.8109 140.884 35.787C140.873 35.7684 140.868 35.7498 140.868 35.7312L140.868 35.7264C140.868 35.723 140.869 35.7194 140.869 35.7156C140.87 35.7117 140.871 35.7076 140.872 35.7033C140.943 35.4802 141.075 35.2983 141.266 35.1575C141.463 35.0141 141.682 34.9424 141.923 34.9424H146.548C146.843 34.9424 147.096 34.8375 147.305 34.6277C147.515 34.4179 147.62 34.1643 147.62 33.8668H141.923C141.36 33.8668 140.872 34.0554 140.457 34.4325C140.046 34.807 139.812 35.2704 139.756 35.8228C139.748 35.8972 139.744 35.9715 139.744 36.0459V36.3168C139.744 36.4204 139.782 36.508 139.856 36.5797C139.928 36.6541 140.015 36.6912 140.119 36.6912H146.389C146.424 36.6912 146.45 36.7058 146.469 36.7351C146.482 36.7537 146.489 36.7722 146.489 36.7908C146.489 36.8015 146.487 36.8121 146.485 36.8227C146.408 37.0405 146.275 37.2171 146.086 37.3525C145.895 37.4933 145.68 37.5637 145.441 37.5637H140.82C140.523 37.5637 140.269 37.6686 140.059 37.8784C139.849 38.0882 139.744 38.3405 139.744 38.6353H145.441C146.001 38.6353 146.489 38.448 146.903 38.0736C147.315 37.7018 147.55 37.241 147.608 36.6912C147.616 36.6116 147.62 36.5346 147.62 36.4602V36.2013C147.62 36.0977 147.584 36.0087 147.513 35.9343C147.438 35.86 147.349 35.8228 147.246 35.8228Z" fill="#3B1C0D"/>
</svg>
