<svg width="188" height="48" viewBox="0 0 188 48" fill="none" xmlns="http://www.w3.org/2000/svg">
<g filter="url(#filter0_d_10922_3685)">
<path fill-rule="evenodd" clip-rule="evenodd" d="M170.695 18.0761V18.0976C171.833 18.0976 172.885 18.4429 173.737 19.0265C174.527 19.5672 174.593 20.785 173.888 21.4472C172.956 22.3237 171.663 22.8676 170.236 22.8676V22.8855H137.613V20.4809V18.0761V12.3034V11.5028V7.49422H170.236V7.5119C171.663 7.5119 172.956 8.0558 173.888 8.93229C174.593 9.59477 174.527 10.8123 173.737 11.3529C172.885 11.9368 171.833 12.2822 170.695 12.2822V12.3034H139.984V18.0761H170.695ZM183.018 13.8524C183.672 13.0668 184 12.0385 184 10.9945V9.42697C184 7.09989 181.688 2.02122 174.421 2.00001H131.205C129.174 2.00001 127.888 4.11061 127.888 6.24706L127.734 14.5092L128.021 24.3706C128.094 26.9971 129.173 28.1325 131.205 28.6174H174.421C181.688 28.5965 184 23.5178 184 21.1905V19.361C184 18.6216 183.807 17.8887 183.404 17.2825C182.877 16.4879 182.069 15.7218 181.256 15.3087C181.89 14.9867 182.521 14.4504 183.018 13.8524ZM114.964 2.00006V15.2288V19.2654V21.7834H112.086H109.863H98.06H95.9001H82.1675C81.908 21.7834 81.6527 21.7467 81.4038 21.673C80.8001 21.494 79.7689 21.0551 79.2584 20.0644C79.0743 19.7073 78.996 19.304 78.996 18.9021V2.00006H68.5343V20.7519C68.5591 22.1649 69.0178 23.5415 69.8761 24.6641L69.903 24.6992L69.94 24.7468C71.3887 26.5958 73.6116 27.6714 75.9569 27.7948L77.9169 27.8979H79.9685H95.9001H98.06H113.992H116.043C116.057 27.8988 116.388 27.8985 116.685 27.8982H116.686H116.687H116.689L117.043 27.8979H121.4C123.629 27.8979 125.436 26.0908 125.436 23.8613V20.1476V17.5869V2.00006H114.964ZM55.5272 28.5241H4C4 25.1984 9.93532 22.5026 13.261 22.5026H65.148C65.148 25.8283 58.8527 28.5241 55.5272 28.5241ZM54.0493 11.3655H44.3257V12.2512H42.8667V11.5972C39.4252 12.0514 32.116 12.4846 32.116 12.4846V13.2305H26.0411V12.3423H24.2922L16.3219 12.36C15.3973 12.3619 13.5872 11.6192 13.5548 10.6979C13.5872 9.77649 15.3973 9.03407 16.3219 9.0357L24.2922 9.05365C24.4902 9.05392 24.6792 8.97206 24.8144 8.82738L25.8557 7.71402C25.974 7.58729 26.1396 7.5155 26.3131 7.5155H32.3158C32.7352 7.5155 33.0751 7.85543 33.0751 8.27478V8.55462H31.3567V9.2538C35.3535 9.16542 40.4629 9.66091 42.8667 9.92661V9.2538H44.3257V10.0865H57.2012C61.6674 10.0865 65.2876 6.46604 65.2876 2.00007H15.3584C7.95698 2.1801 4.7428 6.02548 4.17986 9.93939C3.64031 13.6901 7.59718 19.8049 15.2651 19.9447H65.1503C65.149 15.2063 58.7878 11.3655 54.0493 11.3655ZM13.5548 10.6979C13.5547 10.7019 13.554 10.7057 13.5533 10.7096C13.5526 10.7139 13.5518 10.7182 13.5518 10.7226V10.6731C13.5518 10.6776 13.5526 10.682 13.5533 10.6863C13.554 10.6902 13.5547 10.694 13.5548 10.6979ZM21.8864 11.4219C22.154 11.4219 22.3707 11.2048 22.3707 10.9375C22.3707 10.6702 22.154 10.4532 21.8864 10.4532C21.619 10.4532 21.402 10.6702 21.402 10.9375C21.402 11.2048 21.619 11.4219 21.8864 11.4219ZM26.5673 10.9375C26.5673 11.2048 26.3505 11.4219 26.0829 11.4219C25.8153 11.4219 25.5986 11.2048 25.5986 10.9375C25.5986 10.6702 25.8153 10.4532 26.0829 10.4532C26.3505 10.4532 26.5673 10.6702 26.5673 10.9375ZM30.5857 11.4219C30.8533 11.4219 31.07 11.2048 31.07 10.9375C31.07 10.6702 30.8533 10.4532 30.5857 10.4532C30.3181 10.4532 30.1013 10.6702 30.1013 10.9375C30.1013 11.2048 30.3181 11.4219 30.5857 11.4219ZM35.3329 10.8309C35.3329 11.0985 35.1162 11.3152 34.8486 11.3152C34.5813 11.3152 34.3642 11.0985 34.3642 10.8309C34.3642 10.5636 34.5813 10.3465 34.8486 10.3465C35.1162 10.3465 35.3329 10.5636 35.3329 10.8309ZM60.323 35.823C60.3921 35.823 60.4505 35.8483 60.4983 35.8987C60.5487 35.9465 60.574 36.005 60.574 36.074V41.934H60.3788C60.1318 41.934 59.9207 41.8463 59.7454 41.671C59.5701 41.4984 59.4825 41.2886 59.4825 41.0416V37.0181C59.4825 36.9889 59.4732 36.9637 59.4546 36.9424C59.4333 36.9239 59.4081 36.9146 59.3789 36.9146H59.0084C58.9872 36.9252 58.9646 36.9491 58.9407 36.9863L57.0445 39.8545C56.8851 40.0962 56.6926 40.2834 56.4668 40.4162C56.2411 40.549 56.0034 40.6154 55.7538 40.6154H55.3195C55.0699 40.6154 54.8322 40.549 54.6065 40.4162C54.3834 40.2834 54.1908 40.0962 54.0288 39.8545L52.1366 36.9863C52.11 36.9491 52.0861 36.9252 52.0649 36.9146H51.6546C51.6254 36.9146 51.6001 36.9239 51.5789 36.9424C51.5576 36.9637 51.547 36.9889 51.547 37.0181V40.6273H51.3558C51.1088 40.6273 50.8977 40.541 50.7224 40.3684C50.5471 40.1931 50.4595 39.982 50.4595 39.735V36.07C50.4595 36.001 50.4847 35.9426 50.5352 35.8947C50.583 35.8443 50.6414 35.8191 50.7105 35.8191H52.0769C52.2654 35.8191 52.4447 35.8695 52.6146 35.9704C52.782 36.0687 52.924 36.2081 53.0409 36.3887L54.9371 39.253C55.0593 39.4362 55.1868 39.5278 55.3195 39.5278H55.7538C55.8865 39.5278 56.014 39.4362 56.1362 39.253L58.0324 36.3887C58.1493 36.2081 58.2927 36.0687 58.4626 35.9704C58.63 35.8722 58.8079 35.823 58.9964 35.823H60.323ZM38.6775 39.4402C38.6775 39.4827 38.6921 39.5185 38.7213 39.5478C38.7505 39.577 38.785 39.5916 38.8248 39.5916H40.0319C40.0319 39.8837 39.9469 40.132 39.7769 40.3365C39.6096 40.541 39.4078 40.6433 39.1714 40.6433H36.2395C36.2395 40.3511 36.3244 40.1028 36.4944 39.8983C36.6644 39.6938 36.8715 39.5902 37.1159 39.5876H37.4425C37.485 39.5876 37.5209 39.5743 37.5501 39.5478C37.5766 39.5185 37.5899 39.4827 37.5899 39.4402V37.0699C37.5899 37.0274 37.5766 36.9916 37.5501 36.9624C37.5209 36.9332 37.485 36.9185 37.4425 36.9185H36.2395C36.2395 36.6291 36.3244 36.3808 36.4944 36.1736C36.6644 35.9691 36.8715 35.8669 37.1159 35.8669C38.0666 35.8669 39.0386 35.8682 40.0319 35.8708C40.0319 36.1603 39.9469 36.4073 39.7769 36.6118C39.6096 36.8163 39.4078 36.9185 39.1714 36.9185H38.8248C38.785 36.9185 38.7505 36.9332 38.7213 36.9624C38.6921 36.9916 38.6775 37.0274 38.6775 37.0699V39.4402ZM78.447 36.3011C78.1496 36.0036 77.791 35.8549 77.3714 35.8549H71.396C71.2871 35.8549 71.1954 35.8921 71.1211 35.9665C71.0467 36.0435 71.0095 36.1351 71.0095 36.2413V40.0258C71.0095 40.1931 71.068 40.3352 71.1848 40.452C71.3017 40.5689 71.4424 40.6273 71.6071 40.6273H72.0811V38.6833L72.0851 37.8069V37.1615C72.0851 37.0978 72.1077 37.0434 72.1528 36.9982C72.198 36.9531 72.2524 36.9305 72.3162 36.9305H77.3714C77.4909 36.9305 77.5945 36.9717 77.6821 37.054C77.7698 37.1363 77.8163 37.2372 77.8216 37.3567V37.3767C77.8216 37.4935 77.7778 37.5931 77.6901 37.6754C77.6025 37.7631 77.4949 37.8069 77.3674 37.8069H72.5671V37.9702C72.5698 38.1668 72.6402 38.3354 72.7783 38.4762C72.919 38.6143 73.0877 38.6833 73.2842 38.6833H77.5507C78.0154 38.6833 78.3673 38.5372 78.6064 38.2451C78.8002 38.0087 78.8972 37.7206 78.8972 37.3806C78.8972 36.9584 78.7471 36.5985 78.447 36.3011ZM94.7425 35.8669C95.0639 35.8669 95.3719 35.9293 95.6667 36.0541C95.9509 36.1736 96.2032 36.3436 96.4236 36.564C96.644 36.7818 96.814 37.0341 96.9335 37.3209C97.0583 37.6157 97.1208 37.9238 97.1208 38.2451C97.1208 38.5691 97.0583 38.8785 96.9335 39.1733C96.814 39.4575 96.644 39.7084 96.4236 39.9262C96.2032 40.1466 95.9509 40.3179 95.6667 40.4401C95.3719 40.5623 95.0639 40.6233 94.7425 40.6233H91.6313C91.3099 40.6233 91.0019 40.5623 90.7071 40.4401C90.4229 40.3179 90.1706 40.1466 89.9502 39.9262C89.7298 39.7084 89.5598 39.4575 89.4403 39.1733C89.3155 38.8785 89.2531 38.5691 89.2531 38.2451C89.2531 37.9238 89.3155 37.6157 89.4403 37.3209C89.5598 37.0341 89.7298 36.7818 89.9502 36.564C90.1706 36.3436 90.4229 36.1736 90.7071 36.0541C91.0019 35.9293 91.3099 35.8669 91.6313 35.8669H94.7425ZM91.6313 36.9385C91.2728 36.9385 90.9647 37.0659 90.7071 37.3209C90.4521 37.5758 90.3247 37.8839 90.3247 38.2451C90.3247 38.6063 90.4521 38.9144 90.7071 39.1693C90.9647 39.4243 91.2728 39.5517 91.6313 39.5517H94.7425C95.101 39.5517 95.4091 39.4243 95.6667 39.1693C95.9217 38.9144 96.0492 38.6063 96.0492 38.2451C96.0492 37.8839 95.9217 37.5758 95.6667 37.3209C95.4091 37.0659 95.101 36.9385 94.7425 36.9385H91.6313ZM115.281 38.9661C115.182 38.7245 115.019 38.5638 114.791 38.4841C114.955 38.3407 115.081 38.1721 115.169 37.9782C115.254 37.7843 115.297 37.5812 115.297 37.3687V37.3289C115.286 36.9172 115.128 36.568 114.822 36.2812C114.52 35.997 114.16 35.8549 113.743 35.8549H107.819C107.726 35.8549 107.647 35.8881 107.58 35.9545C107.514 36.0209 107.481 36.1006 107.481 36.1935V39.9899C107.481 40.1546 107.539 40.2954 107.656 40.4122C107.773 40.5264 107.912 40.5835 108.074 40.5835H108.548V37.1177C108.548 37.0646 108.567 37.0181 108.604 36.9783C108.644 36.9411 108.69 36.9225 108.743 36.9225H113.767C113.889 36.9225 113.995 36.9624 114.086 37.042C114.176 37.1217 114.225 37.2213 114.233 37.3408V37.3727C114.233 37.4869 114.192 37.5838 114.109 37.6635C114.024 37.7485 113.917 37.791 113.787 37.791H108.951V37.9304C108.951 38.1322 109.021 38.3049 109.162 38.4483C109.305 38.589 109.478 38.6594 109.68 38.6594H113.357C113.678 38.67 113.925 38.7656 114.097 38.9462C114.257 39.1109 114.336 39.326 114.336 39.5916V41.0098C114.336 41.193 114.402 41.3497 114.532 41.4798C114.662 41.61 114.819 41.675 115.002 41.675H115.4V39.7708C115.4 39.4336 115.36 39.1653 115.281 38.9661ZM126.632 35.843H133.397C133.397 36.1324 133.313 36.3794 133.146 36.5839C132.981 36.7858 132.781 36.8867 132.544 36.8867H130.417C130.364 36.8867 130.319 36.9053 130.281 36.9424C130.244 36.9796 130.226 37.0248 130.226 37.0779V40.6114H130.106C129.841 40.6114 129.615 40.5171 129.429 40.3285C129.243 40.1426 129.15 39.9182 129.15 39.6553V37.0779C129.15 37.0248 129.131 36.9796 129.094 36.9424C129.057 36.9053 129.012 36.8867 128.959 36.8867H125.764C125.764 36.5972 125.849 36.3515 126.019 36.1497C126.189 35.9452 126.393 35.843 126.632 35.843ZM151.246 37.8228H144.96C144.928 37.8228 144.902 37.8109 144.884 37.787C144.873 37.7684 144.868 37.7498 144.868 37.7312C144.868 37.7287 144.868 37.726 144.868 37.7232L144.869 37.7155C144.87 37.7117 144.871 37.7076 144.872 37.7033C144.944 37.4802 145.075 37.2983 145.266 37.1576C145.463 37.0142 145.682 36.9424 145.924 36.9424H150.549C150.843 36.9424 151.096 36.8375 151.306 36.6277C151.515 36.4179 151.62 36.1643 151.62 35.8669H145.924C145.361 35.8669 144.872 36.0554 144.458 36.4325C144.046 36.807 143.812 37.2704 143.757 37.8228C143.749 37.8972 143.745 37.9716 143.745 38.0459V38.3168C143.745 38.4204 143.782 38.508 143.856 38.5797C143.928 38.6541 144.015 38.6913 144.119 38.6913H150.389C150.424 38.6913 150.45 38.7059 150.469 38.7351C150.482 38.7537 150.489 38.7723 150.489 38.7909C150.489 38.7929 150.489 38.795 150.489 38.7971C150.489 38.7997 150.488 38.8023 150.488 38.805C150.487 38.8109 150.486 38.8168 150.485 38.8227C150.408 39.0405 150.275 39.2171 150.087 39.3526C149.895 39.4933 149.68 39.5637 149.441 39.5637H144.82C144.523 39.5637 144.269 39.6686 144.059 39.8784C143.849 40.0882 143.745 40.3405 143.745 40.6353H149.441C150.002 40.6353 150.489 40.4481 150.903 40.0736C151.315 39.7018 151.55 39.241 151.608 38.6913C151.616 38.6116 151.62 38.5346 151.62 38.4602V38.2013C151.62 38.0977 151.584 38.0087 151.513 37.9344C151.438 37.86 151.349 37.8228 151.246 37.8228Z" fill="white"/>
</g>
<defs>
<filter id="filter0_d_10922_3685" x="0" y="0" width="188" height="47.934" filterUnits="userSpaceOnUse" color-interpolation-filters="sRGB">
<feFlood flood-opacity="0" result="BackgroundImageFix"/>
<feColorMatrix in="SourceAlpha" type="matrix" values="0 0 0 0 0 0 0 0 0 0 0 0 0 0 0 0 0 0 127 0" result="hardAlpha"/>
<feOffset dy="2"/>
<feGaussianBlur stdDeviation="2"/>
<feComposite in2="hardAlpha" operator="out"/>
<feColorMatrix type="matrix" values="0 0 0 0 0 0 0 0 0 0 0 0 0 0 0 0 0 0 0.25 0"/>
<feBlend mode="normal" in2="BackgroundImageFix" result="effect1_dropShadow_10922_3685"/>
<feBlend mode="normal" in="SourceGraphic" in2="effect1_dropShadow_10922_3685" result="shape"/>
</filter>
</defs>
</svg>
