<svg width="80" height="129" viewBox="0 0 80 129" fill="none" xmlns="http://www.w3.org/2000/svg">
<rect width="80" height="80" rx="8" fill="#F2E5BA"/>
<path d="M4.84233 95.8182V106H3.30114V97.3594H3.24148L0.805398 98.9503V97.4787L3.34588 95.8182H4.84233ZM11.1413 106.169C10.3558 106.166 9.68466 105.959 9.12784 105.548C8.57102 105.137 8.14512 104.538 7.85014 103.753C7.55516 102.967 7.40767 102.021 7.40767 100.914C7.40767 99.8104 7.55516 98.8674 7.85014 98.0852C8.14844 97.303 8.57599 96.7064 9.13281 96.2955C9.69295 95.8845 10.3625 95.679 11.1413 95.679C11.9202 95.679 12.5881 95.8861 13.1449 96.3004C13.7017 96.7114 14.1276 97.308 14.4226 98.0902C14.7209 98.8691 14.87 99.8104 14.87 100.914C14.87 102.024 14.7225 102.972 14.4276 103.758C14.1326 104.54 13.7067 105.138 13.1499 105.553C12.593 105.964 11.9235 106.169 11.1413 106.169ZM11.1413 104.842C11.8307 104.842 12.3693 104.505 12.7571 103.832C13.1482 103.16 13.3438 102.187 13.3438 100.914C13.3438 100.069 13.2543 99.3546 13.0753 98.7713C12.8996 98.1847 12.6461 97.7405 12.3146 97.4389C11.9865 97.134 11.5954 96.9815 11.1413 96.9815C10.4553 96.9815 9.91667 97.3196 9.52557 97.9957C9.13447 98.6719 8.93726 99.6446 8.93395 100.914C8.93395 101.763 9.02178 102.48 9.19744 103.067C9.37642 103.65 9.62997 104.093 9.9581 104.394C10.2862 104.692 10.6806 104.842 11.1413 104.842ZM20.1784 106.169C19.3929 106.166 18.7218 105.959 18.165 105.548C17.6081 105.137 17.1822 104.538 16.8873 103.753C16.5923 102.967 16.4448 102.021 16.4448 100.914C16.4448 99.8104 16.5923 98.8674 16.8873 98.0852C17.1855 97.303 17.6131 96.7064 18.1699 96.2955C18.7301 95.8845 19.3996 95.679 20.1784 95.679C20.9573 95.679 21.6252 95.8861 22.182 96.3004C22.7388 96.7114 23.1647 97.308 23.4597 98.0902C23.758 98.8691 23.9071 99.8104 23.9071 100.914C23.9071 102.024 23.7596 102.972 23.4647 103.758C23.1697 104.54 22.7438 105.138 22.187 105.553C21.6301 105.964 20.9606 106.169 20.1784 106.169ZM20.1784 104.842C20.8678 104.842 21.4064 104.505 21.7942 103.832C22.1853 103.16 22.3809 102.187 22.3809 100.914C22.3809 100.069 22.2914 99.3546 22.1124 98.7713C21.9367 98.1847 21.6832 97.7405 21.3517 97.4389C21.0236 97.134 20.6325 96.9815 20.1784 96.9815C19.4924 96.9815 18.9538 97.3196 18.5627 97.9957C18.1716 98.6719 17.9744 99.6446 17.9711 100.914C17.9711 101.763 18.0589 102.48 18.2346 103.067C18.4135 103.65 18.6671 104.093 18.9952 104.394C19.3233 104.692 19.7177 104.842 20.1784 104.842Z" fill="#333333"/>
<path d="M4.87216 126L6.54261 115.818H7.53693L5.86648 126H4.87216ZM0.238636 123.176L0.397727 122.182H7.99432L7.83523 123.176H0.238636ZM1.29261 126L2.96307 115.818H3.95739L2.28693 126H1.29261ZM0.835227 119.636L0.994318 118.642H8.59091L8.43182 119.636H0.835227ZM13.3065 118.364V119.358H9.18999V118.364H13.3065ZM10.4229 126V117.31C10.4229 116.872 10.5257 116.508 10.7312 116.216C10.9367 115.924 11.2035 115.705 11.5316 115.56C11.8597 115.414 12.2061 115.341 12.5707 115.341C12.859 115.341 13.0943 115.364 13.2766 115.411C13.4589 115.457 13.5948 115.5 13.6843 115.54L13.3462 116.554C13.2866 116.534 13.2037 116.509 13.0977 116.479C12.9949 116.45 12.859 116.435 12.69 116.435C12.3022 116.435 12.0221 116.532 11.8498 116.728C11.6808 116.924 11.5962 117.21 11.5962 117.588V126H10.4229ZM14.9309 126V125.105L18.2917 121.426C18.6861 120.995 19.0109 120.621 19.2662 120.303C19.5214 119.981 19.7103 119.679 19.8329 119.398C19.9589 119.113 20.0218 118.814 20.0218 118.503C20.0218 118.145 19.9357 117.835 19.7633 117.573C19.5943 117.311 19.3623 117.109 19.0673 116.967C18.7723 116.824 18.4409 116.753 18.073 116.753C17.6819 116.753 17.3405 116.834 17.0488 116.996C16.7605 117.156 16.5368 117.379 16.3777 117.668C16.2219 117.956 16.144 118.294 16.144 118.682H14.9707C14.9707 118.085 15.1083 117.562 15.3833 117.111C15.6584 116.66 16.033 116.309 16.5069 116.057C16.9842 115.805 17.5195 115.679 18.1127 115.679C18.7093 115.679 19.238 115.805 19.6987 116.057C20.1594 116.309 20.5207 116.648 20.7825 117.076C21.0443 117.504 21.1752 117.979 21.1752 118.503C21.1752 118.877 21.1073 119.244 20.9714 119.602C20.8388 119.956 20.6068 120.352 20.2754 120.79C19.9473 121.224 19.4915 121.754 18.9082 122.381L16.6213 124.827V124.906H21.3542V126H14.9309ZM26.6291 126.159C25.8933 126.159 25.2586 125.997 24.725 125.672C24.1947 125.344 23.7853 124.886 23.497 124.3C23.2119 123.71 23.0694 123.024 23.0694 122.241C23.0694 121.459 23.2119 120.77 23.497 120.173C23.7853 119.573 24.1864 119.106 24.7001 118.771C25.2172 118.433 25.8204 118.264 26.5098 118.264C26.9075 118.264 27.3002 118.33 27.688 118.463C28.0758 118.596 28.4288 118.811 28.747 119.109C29.0652 119.404 29.3187 119.795 29.5076 120.283C29.6966 120.77 29.791 121.37 29.791 122.082V122.58H23.9047V121.565H28.5978C28.5978 121.134 28.5117 120.75 28.3393 120.412C28.1703 120.074 27.9283 119.807 27.6135 119.612C27.3019 119.416 26.934 119.318 26.5098 119.318C26.0424 119.318 25.6381 119.434 25.2967 119.666C24.9586 119.895 24.6984 120.193 24.5162 120.561C24.3339 120.929 24.2427 121.323 24.2427 121.744V122.42C24.2427 122.997 24.3422 123.486 24.541 123.887C24.7432 124.285 25.0233 124.588 25.3812 124.797C25.7392 125.002 26.1551 125.105 26.6291 125.105C26.9373 125.105 27.2157 125.062 27.4643 124.976C27.7162 124.886 27.9333 124.754 28.1156 124.578C28.2979 124.399 28.4387 124.177 28.5382 123.912L29.6717 124.23C29.5524 124.615 29.3519 124.953 29.0701 125.244C28.7884 125.533 28.4404 125.758 28.0261 125.92C27.6118 126.08 27.1461 126.159 26.6291 126.159ZM34.7377 126.139C34.1544 126.139 33.6291 126.023 33.1618 125.791C32.6944 125.559 32.3199 125.241 32.0382 124.837C31.7565 124.432 31.6023 123.972 31.5758 123.455H32.769C32.8154 123.915 33.0242 124.296 33.3954 124.598C33.7699 124.896 34.2174 125.045 34.7377 125.045C35.1554 125.045 35.5266 124.948 35.8514 124.752C36.1795 124.557 36.4364 124.288 36.622 123.947C36.8109 123.602 36.9054 123.213 36.9054 122.778C36.9054 122.334 36.8076 121.938 36.612 121.59C36.4198 121.239 36.1547 120.962 35.8166 120.76C35.4785 120.558 35.0924 120.455 34.6582 120.452C34.3467 120.448 34.0268 120.496 33.6987 120.596C33.3706 120.692 33.1004 120.816 32.8883 120.969L31.7349 120.83L32.3514 115.818H37.6412V116.912H33.3855L33.0275 119.915H33.0872C33.296 119.749 33.5578 119.612 33.8727 119.502C34.1876 119.393 34.5157 119.338 34.8571 119.338C35.4802 119.338 36.0353 119.487 36.5225 119.786C37.0131 120.08 37.3975 120.485 37.676 120.999C37.9577 121.512 38.0985 122.099 38.0985 122.759C38.0985 123.408 37.9527 123.988 37.661 124.499C37.3727 125.006 36.975 125.407 36.4679 125.702C35.9608 125.993 35.3841 126.139 34.7377 126.139ZM40.2525 126V115.818H41.4258V119.577H41.5252C41.6114 119.444 41.7307 119.275 41.8832 119.07C42.0389 118.861 42.261 118.675 42.5494 118.513C42.841 118.347 43.2354 118.264 43.7326 118.264C44.3756 118.264 44.9424 118.425 45.4329 118.746C45.9234 119.068 46.3062 119.524 46.5813 120.114C46.8564 120.704 46.994 121.4 46.994 122.202C46.994 123.01 46.8564 123.711 46.5813 124.305C46.3062 124.895 45.9251 125.352 45.4379 125.677C44.9506 125.998 44.3888 126.159 43.7525 126.159C43.262 126.159 42.8692 126.078 42.5742 125.915C42.2792 125.75 42.0522 125.562 41.8931 125.354C41.734 125.142 41.6114 124.966 41.5252 124.827H41.386V126H40.2525ZM41.4059 122.182C41.4059 122.759 41.4904 123.267 41.6594 123.708C41.8285 124.146 42.0754 124.489 42.4002 124.737C42.725 124.982 43.1228 125.105 43.5934 125.105C44.0839 125.105 44.4933 124.976 44.8214 124.717C45.1528 124.455 45.4014 124.104 45.5671 123.663C45.7362 123.219 45.8207 122.725 45.8207 122.182C45.8207 121.645 45.7378 121.161 45.5721 120.73C45.4097 120.296 45.1628 119.953 44.8313 119.701C44.5032 119.446 44.0906 119.318 43.5934 119.318C43.1161 119.318 42.7151 119.439 42.3903 119.681C42.0655 119.92 41.8202 120.254 41.6545 120.685C41.4888 121.113 41.4059 121.612 41.4059 122.182ZM51.0359 126.179C50.552 126.179 50.1128 126.088 49.7184 125.906C49.324 125.72 49.0108 125.453 48.7788 125.105C48.5468 124.754 48.4308 124.33 48.4308 123.832C48.4308 123.395 48.5169 123.04 48.6893 122.768C48.8616 122.493 49.092 122.278 49.3803 122.122C49.6687 121.966 49.9869 121.85 50.3349 121.774C50.6862 121.695 51.0392 121.632 51.3938 121.585C51.8578 121.526 52.234 121.481 52.5224 121.451C52.814 121.418 53.0262 121.363 53.1587 121.287C53.2946 121.211 53.3626 121.078 53.3626 120.889V120.849C53.3626 120.359 53.2283 119.978 52.9599 119.706C52.6947 119.434 52.292 119.298 51.7518 119.298C51.1916 119.298 50.7525 119.421 50.4343 119.666C50.1161 119.911 49.8924 120.173 49.7631 120.452L48.6495 120.054C48.8484 119.59 49.1135 119.229 49.445 118.97C49.7797 118.708 50.1443 118.526 50.5387 118.423C50.9364 118.317 51.3275 118.264 51.712 118.264C51.9573 118.264 52.239 118.294 52.5572 118.354C52.8787 118.41 53.1886 118.528 53.4869 118.707C53.7885 118.886 54.0387 119.156 54.2376 119.517C54.4364 119.878 54.5359 120.362 54.5359 120.969V126H53.3626V124.966H53.3029C53.2234 125.132 53.0908 125.309 52.9052 125.498C52.7196 125.687 52.4727 125.848 52.1644 125.98C51.8562 126.113 51.48 126.179 51.0359 126.179ZM51.2148 125.125C51.6789 125.125 52.07 125.034 52.3881 124.852C52.7096 124.669 52.9516 124.434 53.114 124.146C53.2797 123.857 53.3626 123.554 53.3626 123.236V122.162C53.3129 122.222 53.2035 122.276 53.0344 122.326C52.8687 122.372 52.6765 122.414 52.4577 122.45C52.2423 122.483 52.0318 122.513 51.8263 122.54C51.6242 122.563 51.4601 122.583 51.3342 122.599C51.0292 122.639 50.7442 122.704 50.479 122.793C50.2172 122.879 50.0051 123.01 49.8427 123.186C49.6836 123.358 49.604 123.594 49.604 123.892C49.604 124.3 49.7549 124.608 50.0565 124.817C50.3614 125.022 50.7475 125.125 51.2148 125.125Z" fill="#757575"/>
</svg>
