<svg width="80" height="129" viewBox="0 0 80 129" fill="none" xmlns="http://www.w3.org/2000/svg">
<rect width="80" height="80" rx="8" fill="#ECD99B"/>
<path d="M0.979403 106V104.886L4.42472 101.317C4.79261 100.929 5.09588 100.589 5.33452 100.298C5.57647 100.003 5.7571 99.7225 5.87642 99.4574C5.99574 99.1922 6.0554 98.9105 6.0554 98.6122C6.0554 98.2741 5.97585 97.9825 5.81676 97.7372C5.65767 97.4886 5.44058 97.2981 5.16548 97.1655C4.89039 97.0296 4.58049 96.9616 4.2358 96.9616C3.87121 96.9616 3.55303 97.0362 3.28125 97.1854C3.00947 97.3345 2.80066 97.545 2.65483 97.8168C2.509 98.0885 2.43608 98.4067 2.43608 98.7713H0.96946C0.96946 98.1515 1.11198 97.6096 1.39702 97.1456C1.68205 96.6816 2.07315 96.322 2.57031 96.0668C3.06747 95.8082 3.63258 95.679 4.26562 95.679C4.9053 95.679 5.46875 95.8066 5.95597 96.0618C6.4465 96.3137 6.82931 96.6584 7.1044 97.0959C7.3795 97.5301 7.51705 98.0206 7.51705 98.5675C7.51705 98.9453 7.44579 99.3149 7.30327 99.6761C7.16406 100.037 6.92045 100.44 6.57244 100.884C6.22443 101.325 5.74053 101.86 5.12074 102.49L3.0973 104.608V104.683H7.68111V106H0.979403ZM13.1101 106.169C12.3246 106.166 11.6534 105.959 11.0966 105.548C10.5398 105.137 10.1139 104.538 9.81889 103.753C9.52391 102.967 9.37642 102.021 9.37642 100.914C9.37642 99.8104 9.52391 98.8674 9.81889 98.0852C10.1172 97.303 10.5447 96.7064 11.1016 96.2955C11.6617 95.8845 12.3312 95.679 13.1101 95.679C13.889 95.679 14.5568 95.8861 15.1136 96.3004C15.6705 96.7114 16.0964 97.308 16.3913 98.0902C16.6896 98.8691 16.8388 99.8104 16.8388 100.914C16.8388 102.024 16.6913 102.972 16.3963 103.758C16.1013 104.54 15.6754 105.138 15.1186 105.553C14.5618 105.964 13.8923 106.169 13.1101 106.169ZM13.1101 104.842C13.7995 104.842 14.3381 104.505 14.7259 103.832C15.117 103.16 15.3125 102.187 15.3125 100.914C15.3125 100.069 15.223 99.3546 15.044 98.7713C14.8684 98.1847 14.6148 97.7405 14.2834 97.4389C13.9553 97.134 13.5642 96.9815 13.1101 96.9815C12.424 96.9815 11.8854 97.3196 11.4943 97.9957C11.1032 98.6719 10.906 99.6446 10.9027 100.914C10.9027 101.763 10.9905 102.48 11.1662 103.067C11.3452 103.65 11.5987 104.093 11.9268 104.394C12.255 104.692 12.6494 104.842 13.1101 104.842ZM22.1472 106.169C21.3617 106.166 20.6905 105.959 20.1337 105.548C19.5769 105.137 19.151 104.538 18.856 103.753C18.561 102.967 18.4135 102.021 18.4135 100.914C18.4135 99.8104 18.561 98.8674 18.856 98.0852C19.1543 97.303 19.5819 96.7064 20.1387 96.2955C20.6988 95.8845 21.3683 95.679 22.1472 95.679C22.9261 95.679 23.5939 95.8861 24.1507 96.3004C24.7076 96.7114 25.1335 97.308 25.4284 98.0902C25.7267 98.8691 25.8759 99.8104 25.8759 100.914C25.8759 102.024 25.7284 102.972 25.4334 103.758C25.1384 104.54 24.7125 105.138 24.1557 105.553C23.5989 105.964 22.9294 106.169 22.1472 106.169ZM22.1472 104.842C22.8366 104.842 23.3752 104.505 23.763 103.832C24.1541 103.16 24.3496 102.187 24.3496 100.914C24.3496 100.069 24.2601 99.3546 24.0811 98.7713C23.9055 98.1847 23.6519 97.7405 23.3205 97.4389C22.9924 97.134 22.6013 96.9815 22.1472 96.9815C21.4611 96.9815 20.9225 97.3196 20.5314 97.9957C20.1403 98.6719 19.9431 99.6446 19.9398 100.914C19.9398 101.763 20.0276 102.48 20.2033 103.067C20.3823 103.65 20.6358 104.093 20.964 104.394C21.2921 104.692 21.6865 104.842 22.1472 104.842Z" fill="#333333"/>
<path d="M4.87216 126L6.54261 115.818H7.53693L5.86648 126H4.87216ZM0.238636 123.176L0.397727 122.182H7.99432L7.83523 123.176H0.238636ZM1.29261 126L2.96307 115.818H3.95739L2.28693 126H1.29261ZM0.835227 119.636L0.994318 118.642H8.59091L8.43182 119.636H0.835227ZM13.1076 126.159C12.3718 126.159 11.7371 125.997 11.2035 125.672C10.6732 125.344 10.2638 124.886 9.9755 124.3C9.69046 123.71 9.54794 123.024 9.54794 122.241C9.54794 121.459 9.69046 120.77 9.9755 120.173C10.2638 119.573 10.6649 119.106 11.1786 118.771C11.6957 118.433 12.2989 118.264 12.9883 118.264C13.386 118.264 13.7788 118.33 14.1665 118.463C14.5543 118.596 14.9073 118.811 15.2255 119.109C15.5437 119.404 15.7972 119.795 15.9862 120.283C16.1751 120.77 16.2695 121.37 16.2695 122.082V122.58H10.3832V121.565H15.0763C15.0763 121.134 14.9902 120.75 14.8178 120.412C14.6488 120.074 14.4068 119.807 14.092 119.612C13.7804 119.416 13.4125 119.318 12.9883 119.318C12.521 119.318 12.1166 119.434 11.7752 119.666C11.4371 119.895 11.177 120.193 10.9947 120.561C10.8124 120.929 10.7212 121.323 10.7212 121.744V122.42C10.7212 122.997 10.8207 123.486 11.0195 123.887C11.2217 124.285 11.5018 124.588 11.8597 124.797C12.2177 125.002 12.6336 125.105 13.1076 125.105C13.4158 125.105 13.6942 125.062 13.9428 124.976C14.1947 124.886 14.4118 124.754 14.5941 124.578C14.7764 124.399 14.9173 124.177 15.0167 123.912L16.1502 124.23C16.0309 124.615 15.8304 124.953 15.5487 125.244C15.2669 125.533 14.9189 125.758 14.5046 125.92C14.0903 126.08 13.6246 126.159 13.1076 126.159ZM21.1566 126.159C20.4407 126.159 19.8242 125.99 19.3072 125.652C18.7901 125.314 18.3924 124.848 18.114 124.255C17.8356 123.662 17.6964 122.984 17.6964 122.222C17.6964 121.446 17.8389 120.762 18.1239 120.168C18.4123 119.572 18.8133 119.106 19.3271 118.771C19.8441 118.433 20.4473 118.264 21.1367 118.264C21.6737 118.264 22.1576 118.364 22.5884 118.562C23.0193 118.761 23.3723 119.04 23.6474 119.398C23.9225 119.756 24.0932 120.173 24.1594 120.651H22.9862C22.8967 120.303 22.6978 119.994 22.3896 119.726C22.0846 119.454 21.6737 119.318 21.1566 119.318C20.6992 119.318 20.2982 119.437 19.9535 119.676C19.6121 119.911 19.3453 120.245 19.1531 120.675C18.9641 121.103 18.8697 121.605 18.8697 122.182C18.8697 122.772 18.9625 123.286 19.1481 123.723C19.337 124.161 19.6022 124.5 19.9435 124.742C20.2882 124.984 20.6926 125.105 21.1566 125.105C21.4615 125.105 21.7383 125.052 21.9869 124.946C22.2354 124.84 22.4459 124.688 22.6183 124.489C22.7906 124.29 22.9132 124.051 22.9862 123.773H24.1594C24.0932 124.223 23.9291 124.629 23.6673 124.991C23.4087 125.349 23.0657 125.634 22.6381 125.846C22.2139 126.055 21.7201 126.159 21.1566 126.159ZM28.7582 126.159C28.1218 126.159 27.56 125.998 27.0728 125.677C26.5856 125.352 26.2044 124.895 25.9293 124.305C25.6542 123.711 25.5167 123.01 25.5167 122.202C25.5167 121.4 25.6542 120.704 25.9293 120.114C26.2044 119.524 26.5872 119.068 27.0778 118.746C27.5683 118.425 28.1351 118.264 28.7781 118.264C29.2752 118.264 29.668 118.347 29.9563 118.513C30.248 118.675 30.4701 118.861 30.6225 119.07C30.7783 119.275 30.8993 119.444 30.9854 119.577H31.0849V115.818H32.2582V126H31.1246V124.827H30.9854C30.8993 124.966 30.7766 125.142 30.6175 125.354C30.4585 125.562 30.2314 125.75 29.9364 125.915C29.6415 126.078 29.2487 126.159 28.7582 126.159ZM28.9173 125.105C29.3879 125.105 29.7856 124.982 30.1104 124.737C30.4353 124.489 30.6822 124.146 30.8512 123.708C31.0202 123.267 31.1048 122.759 31.1048 122.182C31.1048 121.612 31.0219 121.113 30.8562 120.685C30.6905 120.254 30.4452 119.92 30.1204 119.681C29.7956 119.439 29.3945 119.318 28.9173 119.318C28.4201 119.318 28.0058 119.446 27.6744 119.701C27.3462 119.953 27.0993 120.296 26.9336 120.73C26.7712 121.161 26.69 121.645 26.69 122.182C26.69 122.725 26.7728 123.219 26.9386 123.663C27.1076 124.104 27.3562 124.455 27.6843 124.717C28.0157 124.976 28.4267 125.105 28.9173 125.105ZM37.7915 115.679C38.2092 115.682 38.6268 115.762 39.0444 115.918C39.462 116.073 39.8432 116.332 40.1879 116.693C40.5326 117.051 40.8093 117.54 41.0181 118.16C41.2269 118.78 41.3313 119.557 41.3313 120.491C41.3313 121.396 41.2451 122.2 41.0728 122.903C40.9038 123.602 40.6585 124.192 40.337 124.673C40.0188 125.153 39.631 125.518 39.1737 125.766C38.7196 126.015 38.2058 126.139 37.6325 126.139C37.0624 126.139 36.5536 126.027 36.1062 125.801C35.6621 125.572 35.2975 125.256 35.0124 124.852C34.7307 124.444 34.5501 123.972 34.4705 123.435H35.6836C35.793 123.902 36.0101 124.288 36.3349 124.593C36.663 124.895 37.0955 125.045 37.6325 125.045C38.418 125.045 39.0378 124.702 39.4918 124.016C39.9492 123.33 40.1779 122.361 40.1779 121.108H40.0984C39.9128 121.386 39.6924 121.627 39.4371 121.829C39.1819 122.031 38.8986 122.187 38.587 122.296C38.2754 122.406 37.944 122.46 37.5927 122.46C37.0094 122.46 36.4741 122.316 35.9869 122.028C35.503 121.736 35.1152 121.337 34.8235 120.83C34.5352 120.319 34.391 119.736 34.391 119.08C34.391 118.456 34.5302 117.886 34.8086 117.369C35.0903 116.849 35.4847 116.435 35.9918 116.126C36.5022 115.818 37.1022 115.669 37.7915 115.679ZM37.7915 116.773C37.3739 116.773 36.9978 116.877 36.663 117.086C36.3316 117.291 36.0681 117.57 35.8725 117.921C35.6803 118.269 35.5842 118.655 35.5842 119.08C35.5842 119.504 35.677 119.89 35.8626 120.238C36.0515 120.583 36.3084 120.858 36.6332 121.063C36.9613 121.265 37.3342 121.366 37.7518 121.366C38.0666 121.366 38.36 121.305 38.6317 121.183C38.9035 121.057 39.1405 120.886 39.3427 120.67C39.5482 120.452 39.7089 120.205 39.8249 119.93C39.9409 119.651 39.9989 119.361 39.9989 119.06C39.9989 118.662 39.9028 118.289 39.7106 117.941C39.5217 117.593 39.2598 117.311 38.9251 117.096C38.5936 116.88 38.2158 116.773 37.7915 116.773ZM46.5279 115.679C46.9455 115.682 47.3631 115.762 47.7807 115.918C48.1983 116.073 48.5795 116.332 48.9242 116.693C49.2689 117.051 49.5456 117.54 49.7544 118.16C49.9632 118.78 50.0676 119.557 50.0676 120.491C50.0676 121.396 49.9815 122.2 49.8091 122.903C49.6401 123.602 49.3948 124.192 49.0733 124.673C48.7551 125.153 48.3674 125.518 47.91 125.766C47.4559 126.015 46.9422 126.139 46.3688 126.139C45.7987 126.139 45.29 126.027 44.8425 125.801C44.3984 125.572 44.0338 125.256 43.7488 124.852C43.467 124.444 43.2864 123.972 43.2069 123.435H44.4199C44.5293 123.902 44.7464 124.288 45.0712 124.593C45.3993 124.895 45.8319 125.045 46.3688 125.045C47.1543 125.045 47.7741 124.702 48.2282 124.016C48.6855 123.33 48.9142 122.361 48.9142 121.108H48.8347C48.6491 121.386 48.4287 121.627 48.1735 121.829C47.9183 122.031 47.6349 122.187 47.3233 122.296C47.0118 122.406 46.6803 122.46 46.329 122.46C45.7457 122.46 45.2104 122.316 44.7232 122.028C44.2393 121.736 43.8515 121.337 43.5598 120.83C43.2715 120.319 43.1273 119.736 43.1273 119.08C43.1273 118.456 43.2665 117.886 43.5449 117.369C43.8266 116.849 44.2211 116.435 44.7282 116.126C45.2386 115.818 45.8385 115.669 46.5279 115.679ZM46.5279 116.773C46.1103 116.773 45.7341 116.877 45.3993 117.086C45.0679 117.291 44.8044 117.57 44.6088 117.921C44.4166 118.269 44.3205 118.655 44.3205 119.08C44.3205 119.504 44.4133 119.89 44.5989 120.238C44.7878 120.583 45.0447 120.858 45.3695 121.063C45.6976 121.265 46.0705 121.366 46.4881 121.366C46.803 121.366 47.0963 121.305 47.3681 121.183C47.6399 121.057 47.8768 120.886 48.079 120.67C48.2845 120.452 48.4453 120.205 48.5613 119.93C48.6773 119.651 48.7353 119.361 48.7353 119.06C48.7353 118.662 48.6391 118.289 48.4469 117.941C48.258 117.593 47.9962 117.311 47.6614 117.096C47.33 116.88 46.9521 116.773 46.5279 116.773ZM52.2017 126V115.818H53.375V119.577H53.4744C53.5606 119.444 53.6799 119.275 53.8324 119.07C53.9882 118.861 54.2102 118.675 54.4986 118.513C54.7902 118.347 55.1847 118.264 55.6818 118.264C56.3248 118.264 56.8916 118.425 57.3821 118.746C57.8726 119.068 58.2554 119.524 58.5305 120.114C58.8056 120.704 58.9432 121.4 58.9432 122.202C58.9432 123.01 58.8056 123.711 58.5305 124.305C58.2554 124.895 57.8743 125.352 57.3871 125.677C56.8999 125.998 56.3381 126.159 55.7017 126.159C55.2112 126.159 54.8184 126.078 54.5234 125.915C54.2285 125.75 54.0014 125.562 53.8423 125.354C53.6832 125.142 53.5606 124.966 53.4744 124.827H53.3352V126H52.2017ZM53.3551 122.182C53.3551 122.759 53.4396 123.267 53.6087 123.708C53.7777 124.146 54.0246 124.489 54.3494 124.737C54.6742 124.982 55.072 125.105 55.5426 125.105C56.0331 125.105 56.4425 124.976 56.7706 124.717C57.102 124.455 57.3506 124.104 57.5163 123.663C57.6854 123.219 57.7699 122.725 57.7699 122.182C57.7699 121.645 57.687 121.161 57.5213 120.73C57.3589 120.296 57.112 119.953 56.7805 119.701C56.4524 119.446 56.0398 119.318 55.5426 119.318C55.0653 119.318 54.6643 119.439 54.3395 119.681C54.0147 119.92 53.7694 120.254 53.6037 120.685C53.438 121.113 53.3551 121.612 53.3551 122.182Z" fill="#757575"/>
</svg>
