<svg width="80" height="129" viewBox="0 0 80 129" fill="none" xmlns="http://www.w3.org/2000/svg">
<rect width="80" height="80" rx="8" fill="#E2C167"/>
<path d="M4.52415 106.139C3.84138 106.139 3.23153 106.022 2.6946 105.786C2.16098 105.551 1.7384 105.224 1.42685 104.807C1.11861 104.386 0.952888 103.899 0.929688 103.345H2.49077C2.51065 103.647 2.61174 103.909 2.79403 104.131C2.97964 104.349 3.22159 104.518 3.51989 104.638C3.81818 104.757 4.14962 104.817 4.5142 104.817C4.91525 104.817 5.26989 104.747 5.57812 104.608C5.88968 104.469 6.13329 104.275 6.30895 104.026C6.48461 103.774 6.57244 103.484 6.57244 103.156C6.57244 102.815 6.48461 102.515 6.30895 102.256C6.1366 101.995 5.88305 101.789 5.5483 101.64C5.21686 101.491 4.81581 101.416 4.34517 101.416H3.48509V100.163H4.34517C4.72301 100.163 5.05445 100.095 5.33949 99.9595C5.62784 99.8236 5.85322 99.6347 6.01562 99.3928C6.17803 99.1475 6.25923 98.8608 6.25923 98.5327C6.25923 98.2178 6.18797 97.9444 6.04545 97.7124C5.90625 97.477 5.70739 97.2931 5.44886 97.1605C5.19366 97.0279 4.89205 96.9616 4.54403 96.9616C4.21259 96.9616 3.9027 97.023 3.61435 97.1456C3.32931 97.2649 3.0973 97.4373 2.91832 97.6626C2.73935 97.8847 2.64323 98.1515 2.62997 98.4631H1.14347C1.16004 97.9129 1.32244 97.429 1.63068 97.0114C1.94223 96.5937 2.35322 96.2673 2.86364 96.032C3.37405 95.7966 3.94081 95.679 4.56392 95.679C5.21686 95.679 5.7803 95.8066 6.25426 96.0618C6.73153 96.3137 7.09943 96.6501 7.35795 97.071C7.61979 97.492 7.74905 97.9527 7.74574 98.4531C7.74905 99.0232 7.58996 99.5071 7.26847 99.9048C6.95028 100.303 6.52604 100.569 5.99574 100.705V100.785C6.67188 100.888 7.19555 101.156 7.56676 101.59C7.94129 102.024 8.12689 102.563 8.12358 103.206C8.12689 103.766 7.97112 104.268 7.65625 104.712C7.3447 105.156 6.9188 105.506 6.37855 105.761C5.83831 106.013 5.22017 106.139 4.52415 106.139ZM13.5476 106.169C12.7621 106.166 12.0909 105.959 11.5341 105.548C10.9773 105.137 10.5514 104.538 10.2564 103.753C9.96141 102.967 9.81392 102.021 9.81392 100.914C9.81392 99.8104 9.96141 98.8674 10.2564 98.0852C10.5547 97.303 10.9822 96.7064 11.5391 96.2955C12.0992 95.8845 12.7687 95.679 13.5476 95.679C14.3265 95.679 14.9943 95.8861 15.5511 96.3004C16.108 96.7114 16.5339 97.308 16.8288 98.0902C17.1271 98.8691 17.2763 99.8104 17.2763 100.914C17.2763 102.024 17.1288 102.972 16.8338 103.758C16.5388 104.54 16.1129 105.138 15.5561 105.553C14.9993 105.964 14.3298 106.169 13.5476 106.169ZM13.5476 104.842C14.237 104.842 14.7756 104.505 15.1634 103.832C15.5545 103.16 15.75 102.187 15.75 100.914C15.75 100.069 15.6605 99.3546 15.4815 98.7713C15.3059 98.1847 15.0523 97.7405 14.7209 97.4389C14.3928 97.134 14.0017 96.9815 13.5476 96.9815C12.8615 96.9815 12.3229 97.3196 11.9318 97.9957C11.5407 98.6719 11.3435 99.6446 11.3402 100.914C11.3402 101.763 11.428 102.48 11.6037 103.067C11.7827 103.65 12.0362 104.093 12.3643 104.394C12.6925 104.692 13.0869 104.842 13.5476 104.842ZM22.5847 106.169C21.7992 106.166 21.128 105.959 20.5712 105.548C20.0144 105.137 19.5885 104.538 19.2935 103.753C18.9985 102.967 18.851 102.021 18.851 100.914C18.851 99.8104 18.9985 98.8674 19.2935 98.0852C19.5918 97.303 20.0194 96.7064 20.5762 96.2955C21.1363 95.8845 21.8058 95.679 22.5847 95.679C23.3636 95.679 24.0314 95.8861 24.5882 96.3004C25.1451 96.7114 25.571 97.308 25.8659 98.0902C26.1642 98.8691 26.3134 99.8104 26.3134 100.914C26.3134 102.024 26.1659 102.972 25.8709 103.758C25.5759 104.54 25.15 105.138 24.5932 105.553C24.0364 105.964 23.3669 106.169 22.5847 106.169ZM22.5847 104.842C23.2741 104.842 23.8127 104.505 24.2005 103.832C24.5916 103.16 24.7871 102.187 24.7871 100.914C24.7871 100.069 24.6976 99.3546 24.5186 98.7713C24.343 98.1847 24.0894 97.7405 23.758 97.4389C23.4299 97.134 23.0388 96.9815 22.5847 96.9815C21.8986 96.9815 21.36 97.3196 20.9689 97.9957C20.5778 98.6719 20.3806 99.6446 20.3773 100.914C20.3773 101.763 20.4651 102.48 20.6408 103.067C20.8198 103.65 21.0733 104.093 21.4015 104.394C21.7296 104.692 22.124 104.842 22.5847 104.842Z" fill="#333333"/>
<path d="M4.87216 126L6.54261 115.818H7.53693L5.86648 126H4.87216ZM0.238636 123.176L0.397727 122.182H7.99432L7.83523 123.176H0.238636ZM1.29261 126L2.96307 115.818H3.95739L2.28693 126H1.29261ZM0.835227 119.636L0.994318 118.642H8.59091L8.43182 119.636H0.835227ZM13.1076 126.159C12.3718 126.159 11.7371 125.997 11.2035 125.672C10.6732 125.344 10.2638 124.886 9.9755 124.3C9.69046 123.71 9.54794 123.024 9.54794 122.241C9.54794 121.459 9.69046 120.77 9.9755 120.173C10.2638 119.573 10.6649 119.106 11.1786 118.771C11.6957 118.433 12.2989 118.264 12.9883 118.264C13.386 118.264 13.7788 118.33 14.1665 118.463C14.5543 118.596 14.9073 118.811 15.2255 119.109C15.5437 119.404 15.7972 119.795 15.9862 120.283C16.1751 120.77 16.2695 121.37 16.2695 122.082V122.58H10.3832V121.565H15.0763C15.0763 121.134 14.9902 120.75 14.8178 120.412C14.6488 120.074 14.4068 119.807 14.092 119.612C13.7804 119.416 13.4125 119.318 12.9883 119.318C12.521 119.318 12.1166 119.434 11.7752 119.666C11.4371 119.895 11.177 120.193 10.9947 120.561C10.8124 120.929 10.7212 121.323 10.7212 121.744V122.42C10.7212 122.997 10.8207 123.486 11.0195 123.887C11.2217 124.285 11.5018 124.588 11.8597 124.797C12.2177 125.002 12.6336 125.105 13.1076 125.105C13.4158 125.105 13.6942 125.062 13.9428 124.976C14.1947 124.886 14.4118 124.754 14.5941 124.578C14.7764 124.399 14.9173 124.177 15.0167 123.912L16.1502 124.23C16.0309 124.615 15.8304 124.953 15.5487 125.244C15.2669 125.533 14.9189 125.758 14.5046 125.92C14.0903 126.08 13.6246 126.159 13.1076 126.159ZM18.0344 126V125.105L21.3952 121.426C21.7897 120.995 22.1145 120.621 22.3697 120.303C22.6249 119.981 22.8138 119.679 22.9364 119.398C23.0624 119.113 23.1254 118.814 23.1254 118.503C23.1254 118.145 23.0392 117.835 22.8668 117.573C22.6978 117.311 22.4658 117.109 22.1708 116.967C21.8758 116.824 21.5444 116.753 21.1765 116.753C20.7854 116.753 20.444 116.834 20.1523 116.996C19.864 117.156 19.6403 117.379 19.4812 117.668C19.3254 117.956 19.2475 118.294 19.2475 118.682H18.0742C18.0742 118.085 18.2118 117.562 18.4869 117.111C18.762 116.66 19.1365 116.309 19.6104 116.057C20.0877 115.805 20.623 115.679 21.2163 115.679C21.8129 115.679 22.3415 115.805 22.8022 116.057C23.2629 116.309 23.6242 116.648 23.886 117.076C24.1478 117.504 24.2788 117.979 24.2788 118.503C24.2788 118.877 24.2108 119.244 24.0749 119.602C23.9424 119.956 23.7103 120.352 23.3789 120.79C23.0508 121.224 22.5951 121.754 22.0117 122.381L19.7248 124.827V124.906H24.4577V126H18.0344ZM29.6332 126.159C28.9173 126.159 28.3008 125.99 27.7837 125.652C27.2667 125.314 26.869 124.848 26.5906 124.255C26.3121 123.662 26.1729 122.984 26.1729 122.222C26.1729 121.446 26.3155 120.762 26.6005 120.168C26.8888 119.572 27.2899 119.106 27.8036 118.771C28.3207 118.433 28.9239 118.264 29.6133 118.264C30.1502 118.264 30.6341 118.364 31.065 118.562C31.4959 118.761 31.8488 119.04 32.1239 119.398C32.399 119.756 32.5697 120.173 32.636 120.651H31.4627C31.3732 120.303 31.1744 119.994 30.8661 119.726C30.5612 119.454 30.1502 119.318 29.6332 119.318C29.1758 119.318 28.7747 119.437 28.43 119.676C28.0887 119.911 27.8219 120.245 27.6296 120.675C27.4407 121.103 27.3462 121.605 27.3462 122.182C27.3462 122.772 27.439 123.286 27.6246 123.723C27.8136 124.161 28.0787 124.5 28.4201 124.742C28.7648 124.984 29.1692 125.105 29.6332 125.105C29.9381 125.105 30.2148 125.052 30.4634 124.946C30.712 124.84 30.9225 124.688 31.0948 124.489C31.2672 124.29 31.3898 124.051 31.4627 123.773H32.636C32.5697 124.223 32.4057 124.629 32.1438 124.991C31.8853 125.349 31.5423 125.634 31.1147 125.846C30.6905 126.055 30.1966 126.159 29.6332 126.159ZM37.9109 115.818V126H36.6779V117.111H36.6183L34.1325 118.761V117.509L36.6779 115.818H37.9109ZM44.2198 126.139C43.8022 126.133 43.3846 126.053 42.967 125.901C42.5494 125.748 42.1682 125.491 41.8235 125.13C41.4788 124.765 41.2021 124.273 40.9933 123.653C40.7844 123.03 40.68 122.248 40.68 121.307C40.68 120.405 40.7646 119.607 40.9336 118.911C41.1026 118.211 41.3479 117.623 41.6694 117.146C41.9909 116.665 42.3787 116.3 42.8327 116.052C43.2901 115.803 43.8055 115.679 44.3789 115.679C44.949 115.679 45.4561 115.793 45.9002 116.022C46.3477 116.247 46.7122 116.562 46.994 116.967C47.2757 117.371 47.458 117.837 47.5408 118.364H46.3278C46.2151 117.906 45.9963 117.527 45.6715 117.225C45.3467 116.924 44.9158 116.773 44.3789 116.773C43.5901 116.773 42.9686 117.116 42.5146 117.802C42.0638 118.488 41.8368 119.451 41.8335 120.69H41.913C42.0986 120.409 42.319 120.168 42.5742 119.969C42.8327 119.767 43.1178 119.612 43.4293 119.502C43.7409 119.393 44.0707 119.338 44.4187 119.338C45.002 119.338 45.5356 119.484 46.0195 119.776C46.5034 120.064 46.8912 120.463 47.1829 120.974C47.4746 121.481 47.6204 122.062 47.6204 122.719C47.6204 123.348 47.4795 123.925 47.1978 124.449C46.9161 124.969 46.52 125.384 46.0096 125.692C45.5025 125.997 44.9059 126.146 44.2198 126.139ZM44.2198 125.045C44.6374 125.045 45.012 124.941 45.3434 124.732C45.6781 124.523 45.9416 124.243 46.1339 123.892C46.3294 123.541 46.4272 123.15 46.4272 122.719C46.4272 122.298 46.3327 121.915 46.1438 121.57C45.9582 121.222 45.7013 120.946 45.3732 120.74C45.0484 120.535 44.6772 120.432 44.2596 120.432C43.9447 120.432 43.6514 120.495 43.3796 120.621C43.1078 120.743 42.8692 120.912 42.6637 121.128C42.4615 121.343 42.3024 121.59 42.1864 121.869C42.0704 122.144 42.0124 122.434 42.0124 122.739C42.0124 123.143 42.1069 123.521 42.2958 123.872C42.488 124.223 42.7499 124.507 43.0813 124.722C43.4161 124.938 43.7956 125.045 44.2198 125.045ZM49.8936 126L54.4476 116.991V116.912H49.1976V115.818H55.7203V116.972L51.1863 126H49.8936Z" fill="#757575"/>
</svg>
