<svg width="80" height="129" viewBox="0 0 80 129" fill="none" xmlns="http://www.w3.org/2000/svg">
<rect width="80" height="80" rx="8" fill="#DCAC43"/>
<path d="M0.765625 104.011V102.768L5.16548 95.8182H6.14489V97.6477H5.52344L2.37642 102.629V102.709H8.40696V104.011H0.765625ZM5.59304 106V103.634L5.60298 103.067V95.8182H7.05966V106H5.59304ZM13.6843 106.169C12.8988 106.166 12.2276 105.959 11.6708 105.548C11.114 105.137 10.6881 104.538 10.3931 103.753C10.0981 102.967 9.95064 102.021 9.95064 100.914C9.95064 99.8104 10.0981 98.8674 10.3931 98.0852C10.6914 97.303 11.119 96.7064 11.6758 96.2955C12.2359 95.8845 12.9054 95.679 13.6843 95.679C14.4632 95.679 15.131 95.8861 15.6879 96.3004C16.2447 96.7114 16.6706 97.308 16.9656 98.0902C17.2638 98.8691 17.413 99.8104 17.413 100.914C17.413 102.024 17.2655 102.972 16.9705 103.758C16.6755 104.54 16.2496 105.138 15.6928 105.553C15.136 105.964 14.4665 106.169 13.6843 106.169ZM13.6843 104.842C14.3737 104.842 14.9123 104.505 15.3001 103.832C15.6912 103.16 15.8867 102.187 15.8867 100.914C15.8867 100.069 15.7972 99.3546 15.6183 98.7713C15.4426 98.1847 15.189 97.7405 14.8576 97.4389C14.5295 97.134 14.1384 96.9815 13.6843 96.9815C12.9982 96.9815 12.4596 97.3196 12.0685 97.9957C11.6774 98.6719 11.4802 99.6446 11.4769 100.914C11.4769 101.763 11.5647 102.48 11.7404 103.067C11.9194 103.65 12.1729 104.093 12.5011 104.394C12.8292 104.692 13.2236 104.842 13.6843 104.842ZM22.7214 106.169C21.9359 106.166 21.2647 105.959 20.7079 105.548C20.1511 105.137 19.7252 104.538 19.4302 103.753C19.1352 102.967 18.9877 102.021 18.9877 100.914C18.9877 99.8104 19.1352 98.8674 19.4302 98.0852C19.7285 97.303 20.1561 96.7064 20.7129 96.2955C21.273 95.8845 21.9425 95.679 22.7214 95.679C23.5003 95.679 24.1681 95.8861 24.725 96.3004C25.2818 96.7114 25.7077 97.308 26.0027 98.0902C26.301 98.8691 26.4501 99.8104 26.4501 100.914C26.4501 102.024 26.3026 102.972 26.0076 103.758C25.7127 104.54 25.2868 105.138 24.7299 105.553C24.1731 105.964 23.5036 106.169 22.7214 106.169ZM22.7214 104.842C23.4108 104.842 23.9494 104.505 24.3372 103.832C24.7283 103.16 24.9238 102.187 24.9238 100.914C24.9238 100.069 24.8343 99.3546 24.6554 98.7713C24.4797 98.1847 24.2261 97.7405 23.8947 97.4389C23.5666 97.134 23.1755 96.9815 22.7214 96.9815C22.0353 96.9815 21.4967 97.3196 21.1056 97.9957C20.7145 98.6719 20.5173 99.6446 20.514 100.914C20.514 101.763 20.6019 102.48 20.7775 103.067C20.9565 103.65 21.21 104.093 21.5382 104.394C21.8663 104.692 22.2607 104.842 22.7214 104.842Z" fill="#333333"/>
<path d="M4.87216 126L6.54261 115.818H7.53693L5.86648 126H4.87216ZM0.238636 123.176L0.397727 122.182H7.99432L7.83523 123.176H0.238636ZM1.29261 126L2.96307 115.818H3.95739L2.28693 126H1.29261ZM0.835227 119.636L0.994318 118.642H8.59091L8.43182 119.636H0.835227ZM12.7894 126.159C12.1531 126.159 11.5913 125.998 11.104 125.677C10.6168 125.352 10.2357 124.895 9.96058 124.305C9.68549 123.711 9.54794 123.01 9.54794 122.202C9.54794 121.4 9.68549 120.704 9.96058 120.114C10.2357 119.524 10.6185 119.068 11.109 118.746C11.5996 118.425 12.1663 118.264 12.8093 118.264C13.3065 118.264 13.6992 118.347 13.9876 118.513C14.2792 118.675 14.5013 118.861 14.6538 119.07C14.8095 119.275 14.9305 119.444 15.0167 119.577H15.1161V115.818H16.2894V126H15.1559V124.827H15.0167C14.9305 124.966 14.8079 125.142 14.6488 125.354C14.4897 125.562 14.2627 125.75 13.9677 125.915C13.6727 126.078 13.2799 126.159 12.7894 126.159ZM12.9485 125.105C13.4192 125.105 13.8169 124.982 14.1417 124.737C14.4665 124.489 14.7134 124.146 14.8825 123.708C15.0515 123.267 15.136 122.759 15.136 122.182C15.136 121.612 15.0531 121.113 14.8874 120.685C14.7217 120.254 14.4764 119.92 14.1516 119.681C13.8268 119.439 13.4258 119.318 12.9485 119.318C12.4513 119.318 12.0371 119.446 11.7056 119.701C11.3775 119.953 11.1306 120.296 10.9648 120.73C10.8024 121.161 10.7212 121.645 10.7212 122.182C10.7212 122.725 10.8041 123.219 10.9698 123.663C11.1388 124.104 11.3874 124.455 11.7156 124.717C12.047 124.976 12.458 125.105 12.9485 125.105ZM21.7035 126.159C20.9876 126.159 20.3711 125.99 19.854 125.652C19.337 125.314 18.9393 124.848 18.6609 124.255C18.3825 123.662 18.2433 122.984 18.2433 122.222C18.2433 121.446 18.3858 120.762 18.6708 120.168C18.9592 119.572 19.3602 119.106 19.8739 118.771C20.391 118.433 20.9942 118.264 21.6836 118.264C22.2205 118.264 22.7044 118.364 23.1353 118.562C23.5662 118.761 23.9192 119.04 24.1942 119.398C24.4693 119.756 24.64 120.173 24.7063 120.651H23.533C23.4435 120.303 23.2447 119.994 22.9364 119.726C22.6315 119.454 22.2205 119.318 21.7035 119.318C21.2461 119.318 20.8451 119.437 20.5004 119.676C20.159 119.911 19.8922 120.245 19.6999 120.675C19.511 121.103 19.4165 121.605 19.4165 122.182C19.4165 122.772 19.5094 123.286 19.695 123.723C19.8839 124.161 20.149 124.5 20.4904 124.742C20.8351 124.984 21.2395 125.105 21.7035 125.105C22.0084 125.105 22.2852 125.052 22.5337 124.946C22.7823 124.84 22.9928 124.688 23.1651 124.489C23.3375 124.29 23.4601 124.051 23.533 123.773H24.7063C24.64 124.223 24.476 124.629 24.2141 124.991C23.9556 125.349 23.6126 125.634 23.185 125.846C22.7608 126.055 22.2669 126.159 21.7035 126.159ZM28.6687 126.179C28.1848 126.179 27.7456 126.088 27.3512 125.906C26.9568 125.72 26.6436 125.453 26.4116 125.105C26.1796 124.754 26.0636 124.33 26.0636 123.832C26.0636 123.395 26.1497 123.04 26.3221 122.768C26.4944 122.493 26.7248 122.278 27.0131 122.122C27.3015 121.966 27.6197 121.85 27.9677 121.774C28.319 121.695 28.672 121.632 29.0266 121.585C29.4906 121.526 29.8668 121.481 30.1552 121.451C30.4469 121.418 30.659 121.363 30.7915 121.287C30.9274 121.211 30.9954 121.078 30.9954 120.889V120.849C30.9954 120.359 30.8612 119.978 30.5927 119.706C30.3275 119.434 29.9248 119.298 29.3846 119.298C28.8245 119.298 28.3853 119.421 28.0671 119.666C27.7489 119.911 27.5252 120.173 27.396 120.452L26.2823 120.054C26.4812 119.59 26.7463 119.229 27.0778 118.97C27.4125 118.708 27.7771 118.526 28.1715 118.423C28.5692 118.317 28.9603 118.264 29.3448 118.264C29.5901 118.264 29.8718 118.294 30.19 118.354C30.5115 118.41 30.8214 118.528 31.1197 118.707C31.4213 118.886 31.6715 119.156 31.8704 119.517C32.0692 119.878 32.1687 120.362 32.1687 120.969V126H30.9954V124.966H30.9357C30.8562 125.132 30.7236 125.309 30.538 125.498C30.3524 125.687 30.1055 125.848 29.7972 125.98C29.489 126.113 29.1128 126.179 28.6687 126.179ZM28.8477 125.125C29.3117 125.125 29.7028 125.034 30.021 124.852C30.3424 124.669 30.5844 124.434 30.7468 124.146C30.9125 123.857 30.9954 123.554 30.9954 123.236V122.162C30.9457 122.222 30.8363 122.276 30.6673 122.326C30.5015 122.372 30.3093 122.414 30.0906 122.45C29.8751 122.483 29.6647 122.513 29.4592 122.54C29.257 122.563 29.0929 122.583 28.967 122.599C28.6621 122.639 28.377 122.704 28.1119 122.793C27.85 122.879 27.6379 123.01 27.4755 123.186C27.3164 123.358 27.2369 123.594 27.2369 123.892C27.2369 124.3 27.3877 124.608 27.6893 124.817C27.9942 125.022 28.3803 125.125 28.8477 125.125ZM37.4125 126.159C36.6966 126.159 36.0801 125.99 35.563 125.652C35.046 125.314 34.6483 124.848 34.3699 124.255C34.0914 123.662 33.9522 122.984 33.9522 122.222C33.9522 121.446 34.0948 120.762 34.3798 120.168C34.6681 119.572 35.0692 119.106 35.5829 118.771C36.1 118.433 36.7032 118.264 37.3926 118.264C37.9295 118.264 38.4134 118.364 38.8443 118.562C39.2752 118.761 39.6281 119.04 39.9032 119.398C40.1783 119.756 40.349 120.173 40.4153 120.651H39.242C39.1525 120.303 38.9537 119.994 38.6454 119.726C38.3405 119.454 37.9295 119.318 37.4125 119.318C36.9551 119.318 36.554 119.437 36.2093 119.676C35.868 119.911 35.6011 120.245 35.4089 120.675C35.22 121.103 35.1255 121.605 35.1255 122.182C35.1255 122.772 35.2183 123.286 35.4039 123.723C35.5929 124.161 35.858 124.5 36.1994 124.742C36.5441 124.984 36.9484 125.105 37.4125 125.105C37.7174 125.105 37.9941 125.052 38.2427 124.946C38.4913 124.84 38.7018 124.688 38.8741 124.489C39.0465 124.29 39.1691 124.051 39.242 123.773H40.4153C40.349 124.223 40.185 124.629 39.9231 124.991C39.6646 125.349 39.3216 125.634 38.894 125.846C38.4698 126.055 37.9759 126.159 37.4125 126.159ZM41.872 123.912V122.898L46.3464 115.818H47.0822V117.389H46.585L43.2044 122.739V122.818H49.2299V123.912H41.872ZM46.6646 126V123.604V123.131V115.818H47.8379V126H46.6646ZM54.5334 126.139C53.8771 126.139 53.2921 126.027 52.7784 125.801C52.268 125.576 51.862 125.263 51.5604 124.862C51.2621 124.457 51.0997 123.988 51.0732 123.455H52.326C52.3525 123.783 52.4652 124.066 52.6641 124.305C52.8629 124.54 53.1231 124.722 53.4446 124.852C53.7661 124.981 54.1224 125.045 54.5135 125.045C54.951 125.045 55.3388 124.969 55.6768 124.817C56.0149 124.664 56.2801 124.452 56.4723 124.18C56.6645 123.909 56.7607 123.594 56.7607 123.236C56.7607 122.861 56.6679 122.531 56.4822 122.246C56.2966 121.958 56.0249 121.733 55.6669 121.57C55.3089 121.408 54.8714 121.327 54.3544 121.327H53.5391V120.233H54.3544C54.7588 120.233 55.1134 120.16 55.4183 120.014C55.7266 119.868 55.9669 119.663 56.1392 119.398C56.3149 119.133 56.4027 118.821 56.4027 118.463C56.4027 118.118 56.3265 117.818 56.174 117.563C56.0215 117.308 55.8061 117.109 55.5277 116.967C55.2526 116.824 54.9278 116.753 54.5533 116.753C54.2019 116.753 53.8705 116.817 53.5589 116.947C53.2507 117.073 52.9988 117.257 52.8033 117.499C52.6077 117.737 52.5017 118.026 52.4851 118.364H51.2919C51.3118 117.83 51.4725 117.363 51.7741 116.962C52.0758 116.557 52.4702 116.242 52.9574 116.017C53.4479 115.792 53.9865 115.679 54.5732 115.679C55.2029 115.679 55.7431 115.807 56.1939 116.062C56.6446 116.314 56.991 116.647 57.233 117.061C57.4749 117.475 57.5959 117.923 57.5959 118.403C57.5959 118.977 57.4451 119.466 57.1435 119.87C56.8452 120.274 56.4392 120.554 55.9254 120.71V120.79C56.5684 120.896 57.0705 121.169 57.4318 121.61C57.7931 122.048 57.9737 122.589 57.9737 123.236C57.9737 123.789 57.8229 124.286 57.5213 124.727C57.223 125.165 56.8153 125.509 56.2983 125.761C55.7813 126.013 55.1929 126.139 54.5334 126.139Z" fill="#757575"/>
</svg>
