<svg width="80" height="129" viewBox="0 0 80 129" fill="none" xmlns="http://www.w3.org/2000/svg">
<rect width="80" height="80" rx="8" fill="#FCF9EE"/>
<path d="M4.3402 106.139C3.71709 106.139 3.15696 106.02 2.6598 105.781C2.16596 105.539 1.77154 105.208 1.47656 104.787C1.18158 104.366 1.02415 103.885 1.00426 103.345H2.49574C2.5322 103.783 2.72609 104.142 3.07741 104.424C3.42874 104.706 3.84967 104.847 4.3402 104.847C4.7313 104.847 5.07765 104.757 5.37926 104.578C5.68419 104.396 5.92282 104.146 6.09517 103.827C6.27083 103.509 6.35866 103.146 6.35866 102.739C6.35866 102.324 6.26918 101.955 6.0902 101.63C5.91122 101.305 5.6643 101.05 5.34943 100.864C5.03788 100.679 4.67992 100.584 4.27557 100.581C3.96733 100.581 3.65743 100.634 3.34588 100.74C3.03433 100.846 2.78243 100.985 2.5902 101.158L1.18324 100.949L1.75497 95.8182H7.35298V97.1357H3.03267L2.70952 99.9844H2.76918C2.96804 99.7921 3.23153 99.6314 3.55966 99.5021C3.8911 99.3729 4.24574 99.3082 4.62358 99.3082C5.24337 99.3082 5.79522 99.4557 6.27912 99.7507C6.76634 100.046 7.14915 100.448 7.42756 100.959C7.70928 101.466 7.84848 102.049 7.84517 102.709C7.84848 103.368 7.69934 103.957 7.39773 104.474C7.09943 104.991 6.68513 105.398 6.15483 105.697C5.62784 105.992 5.02296 106.139 4.3402 106.139ZM13.2058 106.169C12.4203 106.166 11.7491 105.959 11.1923 105.548C10.6355 105.137 10.2096 104.538 9.9146 103.753C9.61961 102.967 9.47212 102.021 9.47212 100.914C9.47212 99.8104 9.61961 98.8674 9.9146 98.0852C10.2129 97.303 10.6404 96.7064 11.1973 96.2955C11.7574 95.8845 12.4269 95.679 13.2058 95.679C13.9847 95.679 14.6525 95.8861 15.2093 96.3004C15.7662 96.7114 16.1921 97.308 16.487 98.0902C16.7853 98.8691 16.9345 99.8104 16.9345 100.914C16.9345 102.024 16.787 102.972 16.492 103.758C16.197 104.54 15.7711 105.138 15.2143 105.553C14.6575 105.964 13.988 106.169 13.2058 106.169ZM13.2058 104.842C13.8952 104.842 14.4338 104.505 14.8216 103.832C15.2127 103.16 15.4082 102.187 15.4082 100.914C15.4082 100.069 15.3187 99.3546 15.1397 98.7713C14.9641 98.1847 14.7105 97.7405 14.3791 97.4389C14.051 97.134 13.6599 96.9815 13.2058 96.9815C12.5197 96.9815 11.9811 97.3196 11.59 97.9957C11.1989 98.6719 11.0017 99.6446 10.9984 100.914C10.9984 101.763 11.0862 102.48 11.2619 103.067C11.4409 103.65 11.6944 104.093 12.0225 104.394C12.3507 104.692 12.7451 104.842 13.2058 104.842Z" fill="#333333"/>
<path d="M4.87216 126L6.54261 115.818H7.53693L5.86648 126H4.87216ZM0.238636 123.176L0.397727 122.182H7.99432L7.83523 123.176H0.238636ZM1.29261 126L2.96307 115.818H3.95739L2.28693 126H1.29261ZM0.835227 119.636L0.994318 118.642H8.59091L8.43182 119.636H0.835227ZM13.3065 118.364V119.358H9.18999V118.364H13.3065ZM10.4229 126V117.31C10.4229 116.872 10.5257 116.508 10.7312 116.216C10.9367 115.924 11.2035 115.705 11.5316 115.56C11.8597 115.414 12.2061 115.341 12.5707 115.341C12.859 115.341 13.0943 115.364 13.2766 115.411C13.4589 115.457 13.5948 115.5 13.6843 115.54L13.3462 116.554C13.2866 116.534 13.2037 116.509 13.0977 116.479C12.9949 116.45 12.859 116.435 12.69 116.435C12.3022 116.435 12.0221 116.532 11.8498 116.728C11.6808 116.924 11.5962 117.21 11.5962 117.588V126H10.4229ZM17.7386 126.159C17.0227 126.159 16.4063 125.99 15.8892 125.652C15.3722 125.314 14.9744 124.848 14.696 124.255C14.4176 123.662 14.2784 122.984 14.2784 122.222C14.2784 121.446 14.4209 120.762 14.706 120.168C14.9943 119.572 15.3954 119.106 15.9091 118.771C16.4261 118.433 17.0294 118.264 17.7188 118.264C18.2557 118.264 18.7396 118.364 19.1705 118.562C19.6013 118.761 19.9543 119.04 20.2294 119.398C20.5045 119.756 20.6752 120.173 20.7415 120.651H19.5682C19.4787 120.303 19.2798 119.994 18.9716 119.726C18.6667 119.454 18.2557 119.318 17.7386 119.318C17.2813 119.318 16.8802 119.437 16.5355 119.676C16.1941 119.911 15.9273 120.245 15.7351 120.675C15.5462 121.103 15.4517 121.605 15.4517 122.182C15.4517 122.772 15.5445 123.286 15.7301 123.723C15.919 124.161 16.1842 124.5 16.5256 124.742C16.8703 124.984 17.2746 125.105 17.7386 125.105C18.0436 125.105 18.3203 125.052 18.5689 124.946C18.8175 124.84 19.0279 124.688 19.2003 124.489C19.3726 124.29 19.4953 124.051 19.5682 123.773H20.7415C20.6752 124.223 20.5111 124.629 20.2493 124.991C19.9908 125.349 19.6477 125.634 19.2202 125.846C18.7959 126.055 18.3021 126.159 17.7386 126.159ZM25.8572 118.364V119.358H21.7408V118.364H25.8572ZM22.9737 126V117.31C22.9737 116.872 23.0765 116.508 23.282 116.216C23.4875 115.924 23.7543 115.705 24.0824 115.56C24.4105 115.414 24.7569 115.341 25.1214 115.341C25.4098 115.341 25.6451 115.364 25.8274 115.411C26.0097 115.457 26.1456 115.5 26.2351 115.54L25.897 116.554C25.8374 116.534 25.7545 116.509 25.6484 116.479C25.5457 116.45 25.4098 116.435 25.2408 116.435C24.853 116.435 24.5729 116.532 24.4006 116.728C24.2315 116.924 24.147 117.21 24.147 117.588V126H22.9737ZM30.7232 115.679C31.1408 115.682 31.5584 115.762 31.976 115.918C32.3936 116.073 32.7748 116.332 33.1195 116.693C33.4642 117.051 33.7409 117.54 33.9498 118.16C34.1586 118.78 34.263 119.557 34.263 120.491C34.263 121.396 34.1768 122.2 34.0044 122.903C33.8354 123.602 33.5901 124.192 33.2686 124.673C32.9505 125.153 32.5627 125.518 32.1053 125.766C31.6512 126.015 31.1375 126.139 30.5641 126.139C29.994 126.139 29.4853 126.027 29.0378 125.801C28.5937 125.572 28.2291 125.256 27.9441 124.852C27.6623 124.444 27.4817 123.972 27.4022 123.435H28.6152C28.7246 123.902 28.9417 124.288 29.2665 124.593C29.5946 124.895 30.0272 125.045 30.5641 125.045C31.3496 125.045 31.9694 124.702 32.4235 124.016C32.8809 123.33 33.1096 122.361 33.1096 121.108H33.03C32.8444 121.386 32.624 121.627 32.3688 121.829C32.1136 122.031 31.8302 122.187 31.5186 122.296C31.2071 122.406 30.8757 122.46 30.5243 122.46C29.941 122.46 29.4057 122.316 28.9185 122.028C28.4346 121.736 28.0468 121.337 27.7551 120.83C27.4668 120.319 27.3226 119.736 27.3226 119.08C27.3226 118.456 27.4618 117.886 27.7402 117.369C28.022 116.849 28.4164 116.435 28.9235 116.126C29.4339 115.818 30.0338 115.669 30.7232 115.679ZM30.7232 116.773C30.3056 116.773 29.9294 116.877 29.5946 117.086C29.2632 117.291 28.9997 117.57 28.8042 117.921C28.6119 118.269 28.5158 118.655 28.5158 119.08C28.5158 119.504 28.6086 119.89 28.7942 120.238C28.9831 120.583 29.24 120.858 29.5648 121.063C29.8929 121.265 30.2658 121.366 30.6834 121.366C30.9983 121.366 31.2916 121.305 31.5634 121.183C31.8352 121.057 32.0721 120.886 32.2743 120.67C32.4798 120.452 32.6406 120.205 32.7566 119.93C32.8726 119.651 32.9306 119.361 32.9306 119.06C32.9306 118.662 32.8345 118.289 32.6422 117.941C32.4533 117.593 32.1915 117.311 31.8567 117.096C31.5253 116.88 31.1474 116.773 30.7232 116.773ZM39.4396 126.159C38.7038 126.159 38.0691 125.997 37.5355 125.672C37.0052 125.344 36.5959 124.886 36.3075 124.3C36.0225 123.71 35.88 123.024 35.88 122.241C35.88 121.459 36.0225 120.77 36.3075 120.173C36.5959 119.573 36.9969 119.106 37.5107 118.771C38.0277 118.433 38.6309 118.264 39.3203 118.264C39.718 118.264 40.1108 118.33 40.4986 118.463C40.8864 118.596 41.2393 118.811 41.5575 119.109C41.8757 119.404 42.1293 119.795 42.3182 120.283C42.5071 120.77 42.6016 121.37 42.6016 122.082V122.58H36.7152V121.565H41.4084C41.4084 121.134 41.3222 120.75 41.1499 120.412C40.9808 120.074 40.7389 119.807 40.424 119.612C40.1125 119.416 39.7446 119.318 39.3203 119.318C38.853 119.318 38.4486 119.434 38.1072 119.666C37.7692 119.895 37.509 120.193 37.3267 120.561C37.1444 120.929 37.0533 121.323 37.0533 121.744V122.42C37.0533 122.997 37.1527 123.486 37.3516 123.887C37.5537 124.285 37.8338 124.588 38.1918 124.797C38.5497 125.002 38.9657 125.105 39.4396 125.105C39.7479 125.105 40.0263 125.062 40.2749 124.976C40.5268 124.886 40.7438 124.754 40.9261 124.578C41.1084 124.399 41.2493 124.177 41.3487 123.912L42.4822 124.23C42.3629 124.615 42.1624 124.953 41.8807 125.244C41.599 125.533 41.2509 125.758 40.8366 125.92C40.4223 126.08 39.9567 126.159 39.4396 126.159ZM47.5881 126.159C46.8523 126.159 46.2176 125.997 45.6839 125.672C45.1536 125.344 44.7443 124.886 44.456 124.3C44.1709 123.71 44.0284 123.024 44.0284 122.241C44.0284 121.459 44.1709 120.77 44.456 120.173C44.7443 119.573 45.1454 119.106 45.6591 118.771C46.1761 118.433 46.7794 118.264 47.4688 118.264C47.8665 118.264 48.2592 118.33 48.647 118.463C49.0348 118.596 49.3878 118.811 49.706 119.109C50.0241 119.404 50.2777 119.795 50.4666 120.283C50.6555 120.77 50.75 121.37 50.75 122.082V122.58H44.8636V121.565H49.5568C49.5568 121.134 49.4706 120.75 49.2983 120.412C49.1293 120.074 48.8873 119.807 48.5724 119.612C48.2609 119.416 47.893 119.318 47.4688 119.318C47.0014 119.318 46.5971 119.434 46.2557 119.666C45.9176 119.895 45.6574 120.193 45.4751 120.561C45.2929 120.929 45.2017 121.323 45.2017 121.744V122.42C45.2017 122.997 45.3011 123.486 45.5 123.887C45.7022 124.285 45.9822 124.588 46.3402 124.797C46.6982 125.002 47.1141 125.105 47.5881 125.105C47.8963 125.105 48.1747 125.062 48.4233 124.976C48.6752 124.886 48.8923 124.754 49.0746 124.578C49.2569 124.399 49.3977 124.177 49.4972 123.912L50.6307 124.23C50.5114 124.615 50.3108 124.953 50.0291 125.244C49.7474 125.533 49.3994 125.758 48.9851 125.92C48.5708 126.08 48.1051 126.159 47.5881 126.159Z" fill="#757575"/>
</svg>
