<svg width="80" height="129" viewBox="0 0 80 129" fill="none" xmlns="http://www.w3.org/2000/svg">
<rect width="80" height="80" rx="8" fill="#D3902D"/>
<path d="M4.3402 106.139C3.71709 106.139 3.15696 106.02 2.6598 105.781C2.16596 105.539 1.77154 105.208 1.47656 104.787C1.18158 104.366 1.02415 103.885 1.00426 103.345H2.49574C2.5322 103.783 2.72609 104.142 3.07741 104.424C3.42874 104.706 3.84967 104.847 4.3402 104.847C4.7313 104.847 5.07765 104.757 5.37926 104.578C5.68419 104.396 5.92282 104.146 6.09517 103.827C6.27083 103.509 6.35866 103.146 6.35866 102.739C6.35866 102.324 6.26918 101.955 6.0902 101.63C5.91122 101.305 5.6643 101.05 5.34943 100.864C5.03788 100.679 4.67992 100.584 4.27557 100.581C3.96733 100.581 3.65743 100.634 3.34588 100.74C3.03433 100.846 2.78243 100.985 2.5902 101.158L1.18324 100.949L1.75497 95.8182H7.35298V97.1357H3.03267L2.70952 99.9844H2.76918C2.96804 99.7921 3.23153 99.6314 3.55966 99.5021C3.8911 99.3729 4.24574 99.3082 4.62358 99.3082C5.24337 99.3082 5.79522 99.4557 6.27912 99.7507C6.76634 100.046 7.14915 100.448 7.42756 100.959C7.70928 101.466 7.84848 102.049 7.84517 102.709C7.84848 103.368 7.69934 103.957 7.39773 104.474C7.09943 104.991 6.68513 105.398 6.15483 105.697C5.62784 105.992 5.02296 106.139 4.3402 106.139ZM13.2058 106.169C12.4203 106.166 11.7491 105.959 11.1923 105.548C10.6355 105.137 10.2096 104.538 9.9146 103.753C9.61961 102.967 9.47212 102.021 9.47212 100.914C9.47212 99.8104 9.61961 98.8674 9.9146 98.0852C10.2129 97.303 10.6404 96.7064 11.1973 96.2955C11.7574 95.8845 12.4269 95.679 13.2058 95.679C13.9847 95.679 14.6525 95.8861 15.2093 96.3004C15.7662 96.7114 16.1921 97.308 16.487 98.0902C16.7853 98.8691 16.9345 99.8104 16.9345 100.914C16.9345 102.024 16.787 102.972 16.492 103.758C16.197 104.54 15.7711 105.138 15.2143 105.553C14.6575 105.964 13.988 106.169 13.2058 106.169ZM13.2058 104.842C13.8952 104.842 14.4338 104.505 14.8216 103.832C15.2127 103.16 15.4082 102.187 15.4082 100.914C15.4082 100.069 15.3187 99.3546 15.1397 98.7713C14.9641 98.1847 14.7105 97.7405 14.3791 97.4389C14.051 97.134 13.6599 96.9815 13.2058 96.9815C12.5197 96.9815 11.9811 97.3196 11.59 97.9957C11.1989 98.6719 11.0017 99.6446 10.9984 100.914C10.9984 101.763 11.0862 102.48 11.2619 103.067C11.4409 103.65 11.6944 104.093 12.0225 104.394C12.3507 104.692 12.7451 104.842 13.2058 104.842ZM22.2429 106.169C21.4574 106.166 20.7862 105.959 20.2294 105.548C19.6726 105.137 19.2467 104.538 18.9517 103.753C18.6567 102.967 18.5092 102.021 18.5092 100.914C18.5092 99.8104 18.6567 98.8674 18.9517 98.0852C19.25 97.303 19.6776 96.7064 20.2344 96.2955C20.7945 95.8845 21.464 95.679 22.2429 95.679C23.0218 95.679 23.6896 95.8861 24.2464 96.3004C24.8033 96.7114 25.2292 97.308 25.5241 98.0902C25.8224 98.8691 25.9716 99.8104 25.9716 100.914C25.9716 102.024 25.8241 102.972 25.5291 103.758C25.2341 104.54 24.8082 105.138 24.2514 105.553C23.6946 105.964 23.0251 106.169 22.2429 106.169ZM22.2429 104.842C22.9323 104.842 23.4709 104.505 23.8587 103.832C24.2498 103.16 24.4453 102.187 24.4453 100.914C24.4453 100.069 24.3558 99.3546 24.1768 98.7713C24.0012 98.1847 23.7476 97.7405 23.4162 97.4389C23.0881 97.134 22.697 96.9815 22.2429 96.9815C21.5568 96.9815 21.0182 97.3196 20.6271 97.9957C20.236 98.6719 20.0388 99.6446 20.0355 100.914C20.0355 101.763 20.1233 102.48 20.299 103.067C20.478 103.65 20.7315 104.093 21.0597 104.394C21.3878 104.692 21.7822 104.842 22.2429 104.842Z" fill="#333333"/>
<path d="M4.87216 126L6.54261 115.818H7.53693L5.86648 126H4.87216ZM0.238636 123.176L0.397727 122.182H7.99432L7.83523 123.176H0.238636ZM1.29261 126L2.96307 115.818H3.95739L2.28693 126H1.29261ZM0.835227 119.636L0.994318 118.642H8.59091L8.43182 119.636H0.835227ZM12.7894 126.159C12.1531 126.159 11.5913 125.998 11.104 125.677C10.6168 125.352 10.2357 124.895 9.96058 124.305C9.68549 123.711 9.54794 123.01 9.54794 122.202C9.54794 121.4 9.68549 120.704 9.96058 120.114C10.2357 119.524 10.6185 119.068 11.109 118.746C11.5996 118.425 12.1663 118.264 12.8093 118.264C13.3065 118.264 13.6992 118.347 13.9876 118.513C14.2792 118.675 14.5013 118.861 14.6538 119.07C14.8095 119.275 14.9305 119.444 15.0167 119.577H15.1161V115.818H16.2894V126H15.1559V124.827H15.0167C14.9305 124.966 14.8079 125.142 14.6488 125.354C14.4897 125.562 14.2627 125.75 13.9677 125.915C13.6727 126.078 13.2799 126.159 12.7894 126.159ZM12.9485 125.105C13.4192 125.105 13.8169 124.982 14.1417 124.737C14.4665 124.489 14.7134 124.146 14.8825 123.708C15.0515 123.267 15.136 122.759 15.136 122.182C15.136 121.612 15.0531 121.113 14.8874 120.685C14.7217 120.254 14.4764 119.92 14.1516 119.681C13.8268 119.439 13.4258 119.318 12.9485 119.318C12.4513 119.318 12.0371 119.446 11.7056 119.701C11.3775 119.953 11.1306 120.296 10.9648 120.73C10.8024 121.161 10.7212 121.645 10.7212 122.182C10.7212 122.725 10.8041 123.219 10.9698 123.663C11.1388 124.104 11.3874 124.455 11.7156 124.717C12.047 124.976 12.458 125.105 12.9485 125.105ZM22.0217 126.139C21.3654 126.139 20.7804 126.027 20.2667 125.801C19.7563 125.576 19.3503 125.263 19.0487 124.862C18.7504 124.457 18.5879 123.988 18.5614 123.455H19.8143C19.8408 123.783 19.9535 124.066 20.1523 124.305C20.3512 124.54 20.6114 124.722 20.9329 124.852C21.2544 124.981 21.6107 125.045 22.0018 125.045C22.4393 125.045 22.8271 124.969 23.1651 124.817C23.5032 124.664 23.7683 124.452 23.9606 124.18C24.1528 123.909 24.2489 123.594 24.2489 123.236C24.2489 122.861 24.1561 122.531 23.9705 122.246C23.7849 121.958 23.5131 121.733 23.1552 121.57C22.7972 121.408 22.3597 121.327 21.8427 121.327H21.0273V120.233H21.8427C22.247 120.233 22.6017 120.16 22.9066 120.014C23.2148 119.868 23.4551 119.663 23.6275 119.398C23.8031 119.133 23.891 118.821 23.891 118.463C23.891 118.118 23.8147 117.818 23.6623 117.563C23.5098 117.308 23.2944 117.109 23.016 116.967C22.7409 116.824 22.4161 116.753 22.0415 116.753C21.6902 116.753 21.3588 116.817 21.0472 116.947C20.739 117.073 20.4871 117.257 20.2915 117.499C20.096 117.737 19.9899 118.026 19.9734 118.364H18.7802C18.8001 117.83 18.9608 117.363 19.2624 116.962C19.564 116.557 19.9585 116.242 20.4457 116.017C20.9362 115.792 21.4748 115.679 22.0614 115.679C22.6912 115.679 23.2314 115.807 23.6822 116.062C24.1329 116.314 24.4793 116.647 24.7212 117.061C24.9632 117.475 25.0842 117.923 25.0842 118.403C25.0842 118.977 24.9334 119.466 24.6317 119.87C24.3335 120.274 23.9274 120.554 23.4137 120.71V120.79C24.0567 120.896 24.5588 121.169 24.9201 121.61C25.2814 122.048 25.462 122.589 25.462 123.236C25.462 123.789 25.3112 124.286 25.0096 124.727C24.7113 125.165 24.3036 125.509 23.7866 125.761C23.2695 126.013 22.6812 126.139 22.0217 126.139ZM30.7369 115.679C31.1545 115.682 31.5721 115.762 31.9897 115.918C32.4073 116.073 32.7885 116.332 33.1332 116.693C33.4779 117.051 33.7546 117.54 33.9634 118.16C34.1722 118.78 34.2766 119.557 34.2766 120.491C34.2766 121.396 34.1905 122.2 34.0181 122.903C33.8491 123.602 33.6038 124.192 33.2823 124.673C32.9641 125.153 32.5763 125.518 32.119 125.766C31.6649 126.015 31.1512 126.139 30.5778 126.139C30.0077 126.139 29.4989 126.027 29.0515 125.801C28.6074 125.572 28.2428 125.256 27.9577 124.852C27.676 124.444 27.4954 123.972 27.4158 123.435H28.6289C28.7383 123.902 28.9554 124.288 29.2802 124.593C29.6083 124.895 30.0408 125.045 30.5778 125.045C31.3633 125.045 31.9831 124.702 32.4371 124.016C32.8945 123.33 33.1232 122.361 33.1232 121.108H33.0437C32.8581 121.386 32.6377 121.627 32.3825 121.829C32.1272 122.031 31.8439 122.187 31.5323 122.296C31.2208 122.406 30.8893 122.46 30.538 122.46C29.9547 122.46 29.4194 122.316 28.9322 122.028C28.4483 121.736 28.0605 121.337 27.7688 120.83C27.4805 120.319 27.3363 119.736 27.3363 119.08C27.3363 118.456 27.4755 117.886 27.7539 117.369C28.0356 116.849 28.43 116.435 28.9371 116.126C29.4476 115.818 30.0475 115.669 30.7369 115.679ZM30.7369 116.773C30.3192 116.773 29.9431 116.877 29.6083 117.086C29.2769 117.291 29.0134 117.57 28.8178 117.921C28.6256 118.269 28.5295 118.655 28.5295 119.08C28.5295 119.504 28.6223 119.89 28.8079 120.238C28.9968 120.583 29.2537 120.858 29.5785 121.063C29.9066 121.265 30.2795 121.366 30.6971 121.366C31.012 121.366 31.3053 121.305 31.5771 121.183C31.8488 121.057 32.0858 120.886 32.288 120.67C32.4935 120.452 32.6542 120.205 32.7702 119.93C32.8862 119.651 32.9442 119.361 32.9442 119.06C32.9442 118.662 32.8481 118.289 32.6559 117.941C32.467 117.593 32.2051 117.311 31.8704 117.096C31.5389 116.88 31.1611 116.773 30.7369 116.773ZM39.5527 126.139C38.8037 126.139 38.1657 125.935 37.6387 125.528C37.1117 125.117 36.709 124.522 36.4306 123.743C36.1522 122.961 36.013 122.016 36.013 120.909C36.013 119.809 36.1522 118.869 36.4306 118.09C36.7123 117.308 37.1167 116.711 37.6436 116.3C38.1739 115.886 38.8103 115.679 39.5527 115.679C40.2952 115.679 40.9299 115.886 41.4569 116.3C41.9872 116.711 42.3915 117.308 42.6699 118.09C42.9516 118.869 43.0925 119.809 43.0925 120.909C43.0925 122.016 42.9533 122.961 42.6749 123.743C42.3965 124.522 41.9938 125.117 41.4668 125.528C40.9398 125.935 40.3018 126.139 39.5527 126.139ZM39.5527 125.045C40.2952 125.045 40.8719 124.687 41.2828 123.972C41.6938 123.256 41.8993 122.235 41.8993 120.909C41.8993 120.027 41.8049 119.277 41.6159 118.657C41.4303 118.037 41.1619 117.565 40.8105 117.24C40.4625 116.915 40.0433 116.753 39.5527 116.753C38.8169 116.753 38.2419 117.116 37.8276 117.842C37.4133 118.564 37.2061 119.587 37.2061 120.909C37.2061 121.791 37.2989 122.54 37.4846 123.156C37.6702 123.773 37.937 124.242 38.285 124.563C38.6363 124.885 39.0589 125.045 39.5527 125.045ZM44.9817 126V125.105L48.3425 121.426C48.7369 120.995 49.0617 120.621 49.3169 120.303C49.5721 119.981 49.7611 119.679 49.8837 119.398C50.0096 119.113 50.0726 118.814 50.0726 118.503C50.0726 118.145 49.9864 117.835 49.8141 117.573C49.6451 117.311 49.4131 117.109 49.1181 116.967C48.8231 116.824 48.4917 116.753 48.1238 116.753C47.7327 116.753 47.3913 116.834 47.0996 116.996C46.8113 117.156 46.5875 117.379 46.4284 117.668C46.2727 117.956 46.1948 118.294 46.1948 118.682H45.0215C45.0215 118.085 45.159 117.562 45.4341 117.111C45.7092 116.66 46.0837 116.309 46.5577 116.057C47.035 115.805 47.5703 115.679 48.1635 115.679C48.7601 115.679 49.2888 115.805 49.7495 116.057C50.2102 116.309 50.5714 116.648 50.8333 117.076C51.0951 117.504 51.226 117.979 51.226 118.503C51.226 118.877 51.1581 119.244 51.0222 119.602C50.8896 119.956 50.6576 120.352 50.3262 120.79C49.998 121.224 49.5423 121.754 48.959 122.381L46.6721 124.827V124.906H51.405V126H44.9817ZM56.3617 126.159C55.7253 126.159 55.1635 125.998 54.6763 125.677C54.1891 125.352 53.8079 124.895 53.5328 124.305C53.2578 123.711 53.1202 123.01 53.1202 122.202C53.1202 121.4 53.2578 120.704 53.5328 120.114C53.8079 119.524 54.1908 119.068 54.6813 118.746C55.1718 118.425 55.7386 118.264 56.3816 118.264C56.8787 118.264 57.2715 118.347 57.5598 118.513C57.8515 118.675 58.0736 118.861 58.226 119.07C58.3818 119.275 58.5028 119.444 58.589 119.577H58.6884V115.818H59.8617V126H58.7282V124.827H58.589C58.5028 124.966 58.3801 125.142 58.2211 125.354C58.062 125.562 57.8349 125.75 57.54 125.915C57.245 126.078 56.8522 126.159 56.3617 126.159ZM56.5208 125.105C56.9914 125.105 57.3891 124.982 57.714 124.737C58.0388 124.489 58.2857 124.146 58.4547 123.708C58.6238 123.267 58.7083 122.759 58.7083 122.182C58.7083 121.612 58.6254 121.113 58.4597 120.685C58.294 120.254 58.0487 119.92 57.7239 119.681C57.3991 119.439 56.998 119.318 56.5208 119.318C56.0236 119.318 55.6093 119.446 55.2779 119.701C54.9498 119.953 54.7028 120.296 54.5371 120.73C54.3747 121.161 54.2935 121.645 54.2935 122.182C54.2935 122.725 54.3764 123.219 54.5421 123.663C54.7111 124.104 54.9597 124.455 55.2878 124.717C55.6193 124.976 56.0302 125.105 56.5208 125.105Z" fill="#757575"/>
</svg>
