<svg width="80" height="129" viewBox="0 0 80 129" fill="none" xmlns="http://www.w3.org/2000/svg">
<rect width="80" height="80" rx="8" fill="#BA7025"/>
<path d="M4.53409 106.139C4.08002 106.133 3.63258 106.05 3.19176 105.891C2.75426 105.732 2.35653 105.466 1.99858 105.095C1.64063 104.724 1.35393 104.225 1.13849 103.599C0.926373 102.972 0.820312 102.19 0.820312 101.252C0.820312 100.364 0.908144 99.575 1.08381 98.8857C1.26278 98.1963 1.51965 97.6146 1.8544 97.1406C2.18916 96.6634 2.59351 96.3004 3.06747 96.0518C3.54143 95.8033 4.07339 95.679 4.66335 95.679C5.26989 95.679 5.80848 95.7983 6.27912 96.0369C6.74976 96.2756 7.13092 96.6054 7.42259 97.0263C7.71757 97.4472 7.90483 97.9261 7.98438 98.4631H6.46804C6.36529 98.0388 6.16146 97.6925 5.85653 97.424C5.55161 97.1555 5.15388 97.0213 4.66335 97.0213C3.91761 97.0213 3.33594 97.3461 2.91832 97.9957C2.50402 98.6454 2.29522 99.5485 2.2919 100.705H2.36648C2.54214 100.417 2.75758 100.172 3.01278 99.9695C3.27131 99.764 3.55966 99.6065 3.87784 99.4972C4.19934 99.3845 4.53741 99.3281 4.89205 99.3281C5.48201 99.3281 6.01563 99.4723 6.4929 99.7607C6.97348 100.046 7.3563 100.44 7.64134 100.944C7.92637 101.448 8.06889 102.024 8.06889 102.674C8.06889 103.324 7.9214 103.912 7.62642 104.439C7.33475 104.966 6.92377 105.384 6.39347 105.692C5.86316 105.997 5.24337 106.146 4.53409 106.139ZM4.52912 104.847C4.92022 104.847 5.26989 104.75 5.57812 104.558C5.88636 104.366 6.12997 104.107 6.30895 103.783C6.48793 103.458 6.57741 103.095 6.57741 102.694C6.57741 102.303 6.48958 101.946 6.31392 101.625C6.14157 101.304 5.90294 101.048 5.59801 100.859C5.2964 100.67 4.9517 100.576 4.56392 100.576C4.26894 100.576 3.9955 100.632 3.74361 100.745C3.49503 100.858 3.27628 101.013 3.08736 101.212C2.89844 101.411 2.74929 101.64 2.63991 101.898C2.53385 102.154 2.48082 102.424 2.48082 102.709C2.48082 103.09 2.56866 103.443 2.74432 103.768C2.9233 104.093 3.1669 104.354 3.47514 104.553C3.7867 104.749 4.13802 104.847 4.52912 104.847ZM13.4245 106.169C12.639 106.166 11.9679 105.959 11.411 105.548C10.8542 105.137 10.4283 104.538 10.1333 103.753C9.83836 102.967 9.69087 102.021 9.69087 100.914C9.69087 99.8104 9.83836 98.8674 10.1333 98.0852C10.4316 97.303 10.8592 96.7064 11.416 96.2955C11.9761 95.8845 12.6457 95.679 13.4245 95.679C14.2034 95.679 14.8713 95.8861 15.4281 96.3004C15.9849 96.7114 16.4108 97.308 16.7058 98.0902C17.0041 98.8691 17.1532 99.8104 17.1532 100.914C17.1532 102.024 17.0057 102.972 16.7108 103.758C16.4158 104.54 15.9899 105.138 15.4331 105.553C14.8762 105.964 14.2067 106.169 13.4245 106.169ZM13.4245 104.842C14.1139 104.842 14.6525 104.505 15.0403 103.832C15.4314 103.16 15.627 102.187 15.627 100.914C15.627 100.069 15.5375 99.3546 15.3585 98.7713C15.1828 98.1847 14.9293 97.7405 14.5978 97.4389C14.2697 97.134 13.8786 96.9815 13.4245 96.9815C12.7385 96.9815 12.1999 97.3196 11.8088 97.9957C11.4177 98.6719 11.2205 99.6446 11.2172 100.914C11.2172 101.763 11.305 102.48 11.4806 103.067C11.6596 103.65 11.9132 104.093 12.2413 104.394C12.5694 104.692 12.9638 104.842 13.4245 104.842ZM22.4616 106.169C21.6761 106.166 21.005 105.959 20.4482 105.548C19.8913 105.137 19.4654 104.538 19.1705 103.753C18.8755 102.967 18.728 102.021 18.728 100.914C18.728 99.8104 18.8755 98.8674 19.1705 98.0852C19.4688 97.303 19.8963 96.7064 20.4531 96.2955C21.0133 95.8845 21.6828 95.679 22.4616 95.679C23.2405 95.679 23.9084 95.8861 24.4652 96.3004C25.022 96.7114 25.4479 97.308 25.7429 98.0902C26.0412 98.8691 26.1903 99.8104 26.1903 100.914C26.1903 102.024 26.0429 102.972 25.7479 103.758C25.4529 104.54 25.027 105.138 24.4702 105.553C23.9134 105.964 23.2438 106.169 22.4616 106.169ZM22.4616 104.842C23.151 104.842 23.6896 104.505 24.0774 103.832C24.4685 103.16 24.6641 102.187 24.6641 100.914C24.6641 100.069 24.5746 99.3546 24.3956 98.7713C24.2199 98.1847 23.9664 97.7405 23.6349 97.4389C23.3068 97.134 22.9157 96.9815 22.4616 96.9815C21.7756 96.9815 21.237 97.3196 20.8459 97.9957C20.4548 98.6719 20.2576 99.6446 20.2543 100.914C20.2543 101.763 20.3421 102.48 20.5178 103.067C20.6967 103.65 20.9503 104.093 21.2784 104.394C21.6065 104.692 22.0009 104.842 22.4616 104.842Z" fill="#333333"/>
<path d="M4.87216 126L6.54261 115.818H7.53693L5.86648 126H4.87216ZM0.238636 123.176L0.397727 122.182H7.99432L7.83523 123.176H0.238636ZM1.29261 126L2.96307 115.818H3.95739L2.28693 126H1.29261ZM0.835227 119.636L0.994318 118.642H8.59091L8.43182 119.636H0.835227ZM10.065 126V115.818H11.2383V119.577H11.3377C11.4239 119.444 11.5432 119.275 11.6957 119.07C11.8514 118.861 12.0735 118.675 12.3619 118.513C12.6535 118.347 13.0479 118.264 13.5451 118.264C14.1881 118.264 14.7549 118.425 15.2454 118.746C15.7359 119.068 16.1187 119.524 16.3938 120.114C16.6689 120.704 16.8065 121.4 16.8065 122.202C16.8065 123.01 16.6689 123.711 16.3938 124.305C16.1187 124.895 15.7376 125.352 15.2504 125.677C14.7631 125.998 14.2013 126.159 13.565 126.159C13.0745 126.159 12.6817 126.078 12.3867 125.915C12.0917 125.75 11.8647 125.562 11.7056 125.354C11.5465 125.142 11.4239 124.966 11.3377 124.827H11.1985V126H10.065ZM11.2184 122.182C11.2184 122.759 11.3029 123.267 11.4719 123.708C11.641 124.146 11.8879 124.489 12.2127 124.737C12.5375 124.982 12.9353 125.105 13.4059 125.105C13.8964 125.105 14.3058 124.976 14.6339 124.717C14.9653 124.455 15.2139 124.104 15.3796 123.663C15.5487 123.219 15.6332 122.725 15.6332 122.182C15.6332 121.645 15.5503 121.161 15.3846 120.73C15.2222 120.296 14.9753 119.953 14.6438 119.701C14.3157 119.446 13.9031 119.318 13.4059 119.318C12.9286 119.318 12.5276 119.439 12.2028 119.681C11.878 119.92 11.6327 120.254 11.467 120.685C11.3013 121.113 11.2184 121.612 11.2184 122.182ZM20.8484 126.179C20.3645 126.179 19.9253 126.088 19.5309 125.906C19.1365 125.72 18.8233 125.453 18.5913 125.105C18.3593 124.754 18.2433 124.33 18.2433 123.832C18.2433 123.395 18.3294 123.04 18.5018 122.768C18.6741 122.493 18.9045 122.278 19.1928 122.122C19.4812 121.966 19.7994 121.85 20.1474 121.774C20.4987 121.695 20.8517 121.632 21.2063 121.585C21.6703 121.526 22.0465 121.481 22.3349 121.451C22.6265 121.418 22.8387 121.363 22.9712 121.287C23.1071 121.211 23.1751 121.078 23.1751 120.889V120.849C23.1751 120.359 23.0408 119.978 22.7724 119.706C22.5072 119.434 22.1045 119.298 21.5643 119.298C21.0041 119.298 20.565 119.421 20.2468 119.666C19.9286 119.911 19.7049 120.173 19.5756 120.452L18.462 120.054C18.6609 119.59 18.926 119.229 19.2575 118.97C19.5922 118.708 19.9568 118.526 20.3512 118.423C20.7489 118.317 21.14 118.264 21.5245 118.264C21.7698 118.264 22.0515 118.294 22.3697 118.354C22.6912 118.41 23.0011 118.528 23.2994 118.707C23.601 118.886 23.8512 119.156 24.0501 119.517C24.2489 119.878 24.3484 120.362 24.3484 120.969V126H23.1751V124.966H23.1154C23.0359 125.132 22.9033 125.309 22.7177 125.498C22.5321 125.687 22.2852 125.848 21.9769 125.98C21.6687 126.113 21.2925 126.179 20.8484 126.179ZM21.0273 125.125C21.4914 125.125 21.8825 125.034 22.2006 124.852C22.5221 124.669 22.7641 124.434 22.9265 124.146C23.0922 123.857 23.1751 123.554 23.1751 123.236V122.162C23.1254 122.222 23.016 122.276 22.8469 122.326C22.6812 122.372 22.489 122.414 22.2702 122.45C22.0548 122.483 21.8443 122.513 21.6388 122.54C21.4367 122.563 21.2726 122.583 21.1467 122.599C20.8417 122.639 20.5567 122.704 20.2915 122.793C20.0297 122.879 19.8176 123.01 19.6552 123.186C19.4961 123.358 19.4165 123.594 19.4165 123.892C19.4165 124.3 19.5674 124.608 19.869 124.817C20.1739 125.022 20.56 125.125 21.0273 125.125ZM26.7882 126L31.3422 116.991V116.912H26.0922V115.818H32.6149V116.972L28.0808 126H26.7882ZM37.5703 126.139C36.8213 126.139 36.1832 125.935 35.6562 125.528C35.1293 125.117 34.7266 124.522 34.4482 123.743C34.1697 122.961 34.0305 122.016 34.0305 120.909C34.0305 119.809 34.1697 118.869 34.4482 118.09C34.7299 117.308 35.1342 116.711 35.6612 116.3C36.1915 115.886 36.8279 115.679 37.5703 115.679C38.3127 115.679 38.9474 115.886 39.4744 116.3C40.0047 116.711 40.4091 117.308 40.6875 118.09C40.9692 118.869 41.1101 119.809 41.1101 120.909C41.1101 122.016 40.9709 122.961 40.6925 123.743C40.4141 124.522 40.0114 125.117 39.4844 125.528C38.9574 125.935 38.3194 126.139 37.5703 126.139ZM37.5703 125.045C38.3127 125.045 38.8894 124.687 39.3004 123.972C39.7114 123.256 39.9169 122.235 39.9169 120.909C39.9169 120.027 39.8224 119.277 39.6335 118.657C39.4479 118.037 39.1795 117.565 38.8281 117.24C38.4801 116.915 38.0608 116.753 37.5703 116.753C36.8345 116.753 36.2595 117.116 35.8452 117.842C35.4309 118.564 35.2237 119.587 35.2237 120.909C35.2237 121.791 35.3165 122.54 35.5021 123.156C35.6877 123.773 35.9545 124.242 36.3026 124.563C36.6539 124.885 37.0765 125.045 37.5703 125.045ZM42.9993 126V125.105L46.3601 121.426C46.7545 120.995 47.0793 120.621 47.3345 120.303C47.5897 119.981 47.7786 119.679 47.9013 119.398C48.0272 119.113 48.0902 118.814 48.0902 118.503C48.0902 118.145 48.004 117.835 47.8317 117.573C47.6626 117.311 47.4306 117.109 47.1357 116.967C46.8407 116.824 46.5092 116.753 46.1413 116.753C45.7502 116.753 45.4089 116.834 45.1172 116.996C44.8288 117.156 44.6051 117.379 44.446 117.668C44.2902 117.956 44.2124 118.294 44.2124 118.682H43.0391C43.0391 118.085 43.1766 117.562 43.4517 117.111C43.7268 116.66 44.1013 116.309 44.5753 116.057C45.0526 115.805 45.5878 115.679 46.1811 115.679C46.7777 115.679 47.3063 115.805 47.767 116.057C48.2277 116.309 48.589 116.648 48.8509 117.076C49.1127 117.504 49.2436 117.979 49.2436 118.503C49.2436 118.877 49.1757 119.244 49.0398 119.602C48.9072 119.956 48.6752 120.352 48.3438 120.79C48.0156 121.224 47.5599 121.754 46.9766 122.381L44.6896 124.827V124.906H49.4226V126H42.9993ZM54.6577 126.139C54.0743 126.139 53.549 126.023 53.0817 125.791C52.6143 125.559 52.2398 125.241 51.9581 124.837C51.6764 124.432 51.5223 123.972 51.4957 123.455H52.6889C52.7353 123.915 52.9441 124.296 53.3153 124.598C53.6899 124.896 54.1373 125.045 54.6577 125.045C55.0753 125.045 55.4465 124.948 55.7713 124.752C56.0994 124.557 56.3563 124.288 56.5419 123.947C56.7308 123.602 56.8253 123.213 56.8253 122.778C56.8253 122.334 56.7275 121.938 56.532 121.59C56.3397 121.239 56.0746 120.962 55.7365 120.76C55.3984 120.558 55.0123 120.455 54.5781 120.452C54.2666 120.448 53.9467 120.496 53.6186 120.596C53.2905 120.692 53.0204 120.816 52.8082 120.969L51.6548 120.83L52.2713 115.818H57.5611V116.912H53.3054L52.9474 119.915H53.0071C53.2159 119.749 53.4777 119.612 53.7926 119.502C54.1075 119.393 54.4356 119.338 54.777 119.338C55.4001 119.338 55.9553 119.487 56.4425 119.786C56.933 120.08 57.3175 120.485 57.5959 120.999C57.8776 121.512 58.0185 122.099 58.0185 122.759C58.0185 123.408 57.8726 123.988 57.581 124.499C57.2926 125.006 56.8949 125.407 56.3878 125.702C55.8807 125.993 55.304 126.139 54.6577 126.139Z" fill="#757575"/>
</svg>
