<svg width="80" height="129" viewBox="0 0 80 129" fill="none" xmlns="http://www.w3.org/2000/svg">
<rect width="80" height="80" rx="8" fill="#9B5222"/>
<path d="M1.32244 106L5.76705 97.2102V97.1357H0.62642V95.8182H7.35795V97.1804L2.92827 106H1.32244ZM12.4128 106.169C11.6273 106.166 10.9561 105.959 10.3993 105.548C9.84251 105.137 9.41661 104.538 9.12163 103.753C8.82665 102.967 8.67915 102.021 8.67915 100.914C8.67915 99.8104 8.82665 98.8674 9.12163 98.0852C9.41992 97.303 9.84748 96.7064 10.4043 96.2955C10.9644 95.8845 11.6339 95.679 12.4128 95.679C13.1917 95.679 13.8596 95.8861 14.4164 96.3004C14.9732 96.7114 15.3991 97.308 15.6941 98.0902C15.9924 98.8691 16.1415 99.8104 16.1415 100.914C16.1415 102.024 15.994 102.972 15.699 103.758C15.4041 104.54 14.9782 105.138 14.4213 105.553C13.8645 105.964 13.195 106.169 12.4128 106.169ZM12.4128 104.842C13.1022 104.842 13.6408 104.505 14.0286 103.832C14.4197 103.16 14.6152 102.187 14.6152 100.914C14.6152 100.069 14.5257 99.3546 14.3468 98.7713C14.1711 98.1847 13.9176 97.7405 13.5861 97.4389C13.258 97.134 12.8669 96.9815 12.4128 96.9815C11.7267 96.9815 11.1882 97.3196 10.7971 97.9957C10.406 98.6719 10.2087 99.6446 10.2054 100.914C10.2054 101.763 10.2933 102.48 10.4689 103.067C10.6479 103.65 10.9015 104.093 11.2296 104.394C11.5577 104.692 11.9521 104.842 12.4128 104.842ZM21.4499 106.169C20.6644 106.166 19.9933 105.959 19.4364 105.548C18.8796 105.137 18.4537 104.538 18.1587 103.753C17.8638 102.967 17.7163 102.021 17.7163 100.914C17.7163 99.8104 17.8638 98.8674 18.1587 98.0852C18.457 97.303 18.8846 96.7064 19.4414 96.2955C20.0015 95.8845 20.671 95.679 21.4499 95.679C22.2288 95.679 22.8967 95.8861 23.4535 96.3004C24.0103 96.7114 24.4362 97.308 24.7312 98.0902C25.0295 98.8691 25.1786 99.8104 25.1786 100.914C25.1786 102.024 25.0311 102.972 24.7362 103.758C24.4412 104.54 24.0153 105.138 23.4585 105.553C22.9016 105.964 22.2321 106.169 21.4499 106.169ZM21.4499 104.842C22.1393 104.842 22.6779 104.505 23.0657 103.832C23.4568 103.16 23.6523 102.187 23.6523 100.914C23.6523 100.069 23.5629 99.3546 23.3839 98.7713C23.2082 98.1847 22.9547 97.7405 22.6232 97.4389C22.2951 97.134 21.904 96.9815 21.4499 96.9815C20.7638 96.9815 20.2253 97.3196 19.8342 97.9957C19.4431 98.6719 19.2459 99.6446 19.2425 100.914C19.2425 101.763 19.3304 102.48 19.506 103.067C19.685 103.65 19.9386 104.093 20.2667 104.394C20.5948 104.692 20.9892 104.842 21.4499 104.842Z" fill="#333333"/>
<path d="M4.87216 126L6.54261 115.818H7.53693L5.86648 126H4.87216ZM0.238636 123.176L0.397727 122.182H7.99432L7.83523 123.176H0.238636ZM1.29261 126L2.96307 115.818H3.95739L2.28693 126H1.29261ZM0.835227 119.636L0.994318 118.642H8.59091L8.43182 119.636H0.835227ZM13.1275 115.679C13.5451 115.682 13.9627 115.762 14.3803 115.918C14.7979 116.073 15.1791 116.332 15.5238 116.693C15.8685 117.051 16.1452 117.54 16.354 118.16C16.5629 118.78 16.6673 119.557 16.6673 120.491C16.6673 121.396 16.5811 122.2 16.4087 122.903C16.2397 123.602 15.9944 124.192 15.6729 124.673C15.3548 125.153 14.967 125.518 14.5096 125.766C14.0555 126.015 13.5418 126.139 12.9684 126.139C12.3983 126.139 11.8896 126.027 11.4421 125.801C10.998 125.572 10.6334 125.256 10.3484 124.852C10.0666 124.444 9.88601 123.972 9.80646 123.435H11.0195C11.1289 123.902 11.346 124.288 11.6708 124.593C11.9989 124.895 12.4315 125.045 12.9684 125.045C13.7539 125.045 14.3737 124.702 14.8278 124.016C15.2852 123.33 15.5138 122.361 15.5138 121.108H15.4343C15.2487 121.386 15.0283 121.627 14.7731 121.829C14.5179 122.031 14.2345 122.187 13.9229 122.296C13.6114 122.406 13.2799 122.46 12.9286 122.46C12.3453 122.46 11.81 122.316 11.3228 122.028C10.8389 121.736 10.4511 121.337 10.1594 120.83C9.87109 120.319 9.72692 119.736 9.72692 119.08C9.72692 118.456 9.86612 117.886 10.1445 117.369C10.4263 116.849 10.8207 116.435 11.3278 116.126C11.8382 115.818 12.4381 115.669 13.1275 115.679ZM13.1275 116.773C12.7099 116.773 12.3337 116.877 11.9989 117.086C11.6675 117.291 11.404 117.57 11.2085 117.921C11.0162 118.269 10.9201 118.655 10.9201 119.08C10.9201 119.504 11.0129 119.89 11.1985 120.238C11.3874 120.583 11.6443 120.858 11.9691 121.063C12.2972 121.265 12.6701 121.366 13.0877 121.366C13.4026 121.366 13.6959 121.305 13.9677 121.183C14.2395 121.057 14.4764 120.886 14.6786 120.67C14.8841 120.452 15.0449 120.205 15.1609 119.93C15.2769 119.651 15.3349 119.361 15.3349 119.06C15.3349 118.662 15.2388 118.289 15.0465 117.941C14.8576 117.593 14.5958 117.311 14.261 117.096C13.9296 116.88 13.5517 116.773 13.1275 116.773ZM18.8013 126V115.818H19.9746V119.577H20.074C20.1602 119.444 20.2795 119.275 20.432 119.07C20.5878 118.861 20.8098 118.675 21.0982 118.513C21.3899 118.347 21.7843 118.264 22.2814 118.264C22.9244 118.264 23.4912 118.425 23.9817 118.746C24.4722 119.068 24.8551 119.524 25.1301 120.114C25.4052 120.704 25.5428 121.4 25.5428 122.202C25.5428 123.01 25.4052 123.711 25.1301 124.305C24.8551 124.895 24.4739 125.352 23.9867 125.677C23.4995 125.998 22.9377 126.159 22.3013 126.159C21.8108 126.159 21.418 126.078 21.123 125.915C20.8281 125.75 20.601 125.562 20.4419 125.354C20.2828 125.142 20.1602 124.966 20.074 124.827H19.9348V126H18.8013ZM19.9547 122.182C19.9547 122.759 20.0392 123.267 20.2083 123.708C20.3773 124.146 20.6242 124.489 20.949 124.737C21.2739 124.982 21.6716 125.105 22.1422 125.105C22.6328 125.105 23.0421 124.976 23.3702 124.717C23.7016 124.455 23.9502 124.104 24.1159 123.663C24.285 123.219 24.3695 122.725 24.3695 122.182C24.3695 121.645 24.2866 121.161 24.1209 120.73C23.9585 120.296 23.7116 119.953 23.3801 119.701C23.052 119.446 22.6394 119.318 22.1422 119.318C21.665 119.318 21.2639 119.439 20.9391 119.681C20.6143 119.92 20.369 120.254 20.2033 120.685C20.0376 121.113 19.9547 121.612 19.9547 122.182ZM30.4995 126.139C29.9161 126.139 29.3908 126.023 28.9235 125.791C28.4561 125.559 28.0816 125.241 27.7999 124.837C27.5182 124.432 27.3641 123.972 27.3375 123.455H28.5307C28.5771 123.915 28.7859 124.296 29.1571 124.598C29.5317 124.896 29.9791 125.045 30.4995 125.045C30.9171 125.045 31.2883 124.948 31.6131 124.752C31.9412 124.557 32.1981 124.288 32.3837 123.947C32.5726 123.602 32.6671 123.213 32.6671 122.778C32.6671 122.334 32.5693 121.938 32.3738 121.59C32.1815 121.239 31.9164 120.962 31.5783 120.76C31.2402 120.558 30.8541 120.455 30.4199 120.452C30.1084 120.448 29.7885 120.496 29.4604 120.596C29.1323 120.692 28.8622 120.816 28.65 120.969L27.4966 120.83L28.1131 115.818H33.4029V116.912H29.1472L28.7892 119.915H28.8489C29.0577 119.749 29.3195 119.612 29.6344 119.502C29.9493 119.393 30.2774 119.338 30.6188 119.338C31.2419 119.338 31.7971 119.487 32.2843 119.786C32.7748 120.08 33.1593 120.485 33.4377 120.999C33.7194 121.512 33.8603 122.099 33.8603 122.759C33.8603 123.408 33.7144 123.988 33.4228 124.499C33.1344 125.006 32.7367 125.407 32.2296 125.702C31.7225 125.993 31.1458 126.139 30.4995 126.139ZM35.8352 126V125.105L39.196 121.426C39.5904 120.995 39.9152 120.621 40.1705 120.303C40.4257 119.981 40.6146 119.679 40.7372 119.398C40.8632 119.113 40.9261 118.814 40.9261 118.503C40.9261 118.145 40.84 117.835 40.6676 117.573C40.4986 117.311 40.2666 117.109 39.9716 116.967C39.6766 116.824 39.3452 116.753 38.9773 116.753C38.5862 116.753 38.2448 116.834 37.9531 116.996C37.6648 117.156 37.4411 117.379 37.282 117.668C37.1262 117.956 37.0483 118.294 37.0483 118.682H35.875C35.875 118.085 36.0125 117.562 36.2876 117.111C36.5627 116.66 36.9373 116.309 37.4112 116.057C37.8885 115.805 38.4238 115.679 39.017 115.679C39.6136 115.679 40.1423 115.805 40.603 116.057C41.0637 116.309 41.425 116.648 41.6868 117.076C41.9486 117.504 42.0795 117.979 42.0795 118.503C42.0795 118.877 42.0116 119.244 41.8757 119.602C41.7431 119.956 41.5111 120.352 41.1797 120.79C40.8516 121.224 40.3958 121.754 39.8125 122.381L37.5256 124.827V124.906H42.2585V126H35.8352ZM44.3118 126V125.105L47.6726 121.426C48.067 120.995 48.3918 120.621 48.647 120.303C48.9022 119.981 49.0911 119.679 49.2138 119.398C49.3397 119.113 49.4027 118.814 49.4027 118.503C49.4027 118.145 49.3165 117.835 49.1442 117.573C48.9751 117.311 48.7431 117.109 48.4482 116.967C48.1532 116.824 47.8217 116.753 47.4538 116.753C47.0627 116.753 46.7214 116.834 46.4297 116.996C46.1413 117.156 45.9176 117.379 45.7585 117.668C45.6027 117.956 45.5249 118.294 45.5249 118.682H44.3516C44.3516 118.085 44.4891 117.562 44.7642 117.111C45.0393 116.66 45.4138 116.309 45.8878 116.057C46.3651 115.805 46.9003 115.679 47.4936 115.679C48.0902 115.679 48.6188 115.805 49.0795 116.057C49.5402 116.309 49.9015 116.648 50.1634 117.076C50.4252 117.504 50.5561 117.979 50.5561 118.503C50.5561 118.877 50.4882 119.244 50.3523 119.602C50.2197 119.956 49.9877 120.352 49.6562 120.79C49.3281 121.224 48.8724 121.754 48.2891 122.381L46.0021 124.827V124.906H50.7351V126H44.3118ZM52.7884 126V125.105L56.1491 121.426C56.5436 120.995 56.8684 120.621 57.1236 120.303C57.3788 119.981 57.5677 119.679 57.6903 119.398C57.8163 119.113 57.8793 118.814 57.8793 118.503C57.8793 118.145 57.7931 117.835 57.6207 117.573C57.4517 117.311 57.2197 117.109 56.9247 116.967C56.6297 116.824 56.2983 116.753 55.9304 116.753C55.5393 116.753 55.1979 116.834 54.9062 116.996C54.6179 117.156 54.3942 117.379 54.2351 117.668C54.0793 117.956 54.0014 118.294 54.0014 118.682H52.8281C52.8281 118.085 52.9657 117.562 53.2408 117.111C53.5159 116.66 53.8904 116.309 54.3643 116.057C54.8416 115.805 55.3769 115.679 55.9702 115.679C56.5668 115.679 57.0954 115.805 57.5561 116.057C58.0168 116.309 58.3781 116.648 58.6399 117.076C58.9018 117.504 59.0327 117.979 59.0327 118.503C59.0327 118.877 58.9647 119.244 58.8288 119.602C58.6963 119.956 58.4643 120.352 58.1328 120.79C57.8047 121.224 57.349 121.754 56.7656 122.381L54.4787 124.827V124.906H59.2116V126H52.7884Z" fill="#757575"/>
</svg>
