<svg width="80" height="129" viewBox="0 0 80 129" fill="none" xmlns="http://www.w3.org/2000/svg">
<rect width="80" height="80" rx="8" fill="#7F4221"/>
<path d="M4.41974 106.139C3.70715 106.139 3.07741 106.017 2.53054 105.771C1.98698 105.526 1.56108 105.188 1.25284 104.757C0.944602 104.326 0.79214 103.836 0.795455 103.286C0.79214 102.855 0.879972 102.459 1.05895 102.097C1.24124 101.733 1.48816 101.429 1.79972 101.188C2.11127 100.942 2.45928 100.786 2.84375 100.72V100.661C2.33665 100.538 1.93063 100.266 1.62571 99.8452C1.32079 99.4242 1.16998 98.9403 1.1733 98.3935C1.16998 97.8731 1.30753 97.4091 1.58594 97.0014C1.86766 96.5904 2.25379 96.2673 2.74432 96.032C3.23485 95.7966 3.79332 95.679 4.41974 95.679C5.03954 95.679 5.59304 95.7983 6.08026 96.0369C6.57079 96.2723 6.95691 96.5954 7.23864 97.0064C7.52036 97.4141 7.66288 97.8764 7.66619 98.3935C7.66288 98.9403 7.5071 99.4242 7.19886 99.8452C6.89063 100.266 6.48958 100.538 5.99574 100.661V100.72C6.37689 100.786 6.71993 100.942 7.02486 101.188C7.3331 101.429 7.57836 101.733 7.76065 102.097C7.94626 102.459 8.04072 102.855 8.04403 103.286C8.04072 103.836 7.88494 104.326 7.5767 104.757C7.26847 105.188 6.84091 105.526 6.29403 105.771C5.75047 106.017 5.12571 106.139 4.41974 106.139ZM4.41974 104.881C4.84067 104.881 5.20526 104.812 5.51349 104.673C5.82173 104.53 6.06037 104.333 6.2294 104.081C6.39844 103.826 6.48461 103.527 6.48793 103.186C6.48461 102.831 6.39181 102.518 6.20952 102.246C6.03054 101.975 5.78693 101.761 5.47869 101.605C5.17045 101.449 4.81747 101.371 4.41974 101.371C4.0187 101.371 3.66241 101.449 3.35085 101.605C3.0393 101.761 2.79403 101.975 2.61506 102.246C2.43608 102.518 2.34825 102.831 2.35156 103.186C2.34825 103.527 2.42945 103.826 2.59517 104.081C2.7642 104.333 3.0045 104.53 3.31605 104.673C3.6276 104.812 3.9955 104.881 4.41974 104.881ZM4.41974 100.143C4.75781 100.143 5.05777 100.076 5.3196 99.9396C5.58144 99.8037 5.78693 99.6148 5.93608 99.3729C6.08854 99.1309 6.16643 98.8475 6.16974 98.5227C6.16643 98.2045 6.0902 97.9261 5.94105 97.6875C5.79522 97.4489 5.59138 97.2649 5.32955 97.1357C5.06771 97.0031 4.76444 96.9368 4.41974 96.9368C4.06842 96.9368 3.76018 97.0031 3.49503 97.1357C3.23319 97.2649 3.02936 97.4489 2.88352 97.6875C2.73769 97.9261 2.66643 98.2045 2.66974 98.5227C2.66643 98.8475 2.73935 99.1309 2.88849 99.3729C3.03764 99.6148 3.24313 99.8037 3.50497 99.9396C3.77012 100.076 4.07505 100.143 4.41974 100.143ZM13.3699 106.169C12.5843 106.166 11.9132 105.959 11.3564 105.548C10.7995 105.137 10.3736 104.538 10.0787 103.753C9.78368 102.967 9.63619 102.021 9.63619 100.914C9.63619 99.8104 9.78368 98.8674 10.0787 98.0852C10.377 97.303 10.8045 96.7064 11.3613 96.2955C11.9215 95.8845 12.591 95.679 13.3699 95.679C14.1487 95.679 14.8166 95.8861 15.3734 96.3004C15.9302 96.7114 16.3561 97.308 16.6511 98.0902C16.9494 98.8691 17.0985 99.8104 17.0985 100.914C17.0985 102.024 16.9511 102.972 16.6561 103.758C16.3611 104.54 15.9352 105.138 15.3784 105.553C14.8216 105.964 14.152 106.169 13.3699 106.169ZM13.3699 104.842C14.0592 104.842 14.5978 104.505 14.9856 103.832C15.3767 103.16 15.5723 102.187 15.5723 100.914C15.5723 100.069 15.4828 99.3546 15.3038 98.7713C15.1281 98.1847 14.8746 97.7405 14.5431 97.4389C14.215 97.134 13.8239 96.9815 13.3699 96.9815C12.6838 96.9815 12.1452 97.3196 11.7541 97.9957C11.363 98.6719 11.1658 99.6446 11.1625 100.914C11.1625 101.763 11.2503 102.48 11.426 103.067C11.6049 103.65 11.8585 104.093 12.1866 104.394C12.5147 104.692 12.9092 104.842 13.3699 104.842ZM22.407 106.169C21.6214 106.166 20.9503 105.959 20.3935 105.548C19.8366 105.137 19.4107 104.538 19.1158 103.753C18.8208 102.967 18.6733 102.021 18.6733 100.914C18.6733 99.8104 18.8208 98.8674 19.1158 98.0852C19.4141 97.303 19.8416 96.7064 20.3984 96.2955C20.9586 95.8845 21.6281 95.679 22.407 95.679C23.1858 95.679 23.8537 95.8861 24.4105 96.3004C24.9673 96.7114 25.3932 97.308 25.6882 98.0902C25.9865 98.8691 26.1357 99.8104 26.1357 100.914C26.1357 102.024 25.9882 102.972 25.6932 103.758C25.3982 104.54 24.9723 105.138 24.4155 105.553C23.8587 105.964 23.1892 106.169 22.407 106.169ZM22.407 104.842C23.0964 104.842 23.6349 104.505 24.0227 103.832C24.4138 103.16 24.6094 102.187 24.6094 100.914C24.6094 100.069 24.5199 99.3546 24.3409 98.7713C24.1652 98.1847 23.9117 97.7405 23.5803 97.4389C23.2521 97.134 22.861 96.9815 22.407 96.9815C21.7209 96.9815 21.1823 97.3196 20.7912 97.9957C20.4001 98.6719 20.2029 99.6446 20.1996 100.914C20.1996 101.763 20.2874 102.48 20.4631 103.067C20.642 103.65 20.8956 104.093 21.2237 104.394C21.5518 104.692 21.9463 104.842 22.407 104.842Z" fill="#333333"/>
<path d="M4.87216 126L6.54261 115.818H7.53693L5.86648 126H4.87216ZM0.238636 123.176L0.397727 122.182H7.99432L7.83523 123.176H0.238636ZM1.29261 126L2.96307 115.818H3.95739L2.28693 126H1.29261ZM0.835227 119.636L0.994318 118.642H8.59091L8.43182 119.636H0.835227ZM10.2042 126L14.7582 116.991V116.912H9.50817V115.818H16.0309V116.972L11.4968 126H10.2042ZM21.3045 118.364V119.358H17.188V118.364H21.3045ZM18.421 126V117.31C18.421 116.872 18.5237 116.508 18.7292 116.216C18.9347 115.924 19.2015 115.705 19.5297 115.56C19.8578 115.414 20.2041 115.341 20.5687 115.341C20.8571 115.341 21.0924 115.364 21.2747 115.411C21.457 115.457 21.5929 115.5 21.6824 115.54L21.3443 116.554C21.2846 116.534 21.2018 116.509 21.0957 116.479C20.993 116.45 20.8571 116.435 20.688 116.435C20.3002 116.435 20.0202 116.532 19.8478 116.728C19.6788 116.924 19.5943 117.21 19.5943 117.588V126H18.421ZM21.8153 123.912V122.898L26.2898 115.818H27.0256V117.389H26.5284L23.1477 122.739V122.818H29.1733V123.912H21.8153ZM26.608 126V123.604V123.131V115.818H27.7812V126H26.608ZM31.0364 126V125.105L34.3972 121.426C34.7916 120.995 35.1164 120.621 35.3716 120.303C35.6268 119.981 35.8158 119.679 35.9384 119.398C36.0643 119.113 36.1273 118.814 36.1273 118.503C36.1273 118.145 36.0411 117.835 35.8688 117.573C35.6998 117.311 35.4677 117.109 35.1728 116.967C34.8778 116.824 34.5463 116.753 34.1784 116.753C33.7873 116.753 33.446 116.834 33.1543 116.996C32.8659 117.156 32.6422 117.379 32.4831 117.668C32.3274 117.956 32.2495 118.294 32.2495 118.682H31.0762C31.0762 118.085 31.2137 117.562 31.4888 117.111C31.7639 116.66 32.1384 116.309 32.6124 116.057C33.0897 115.805 33.6249 115.679 34.2182 115.679C34.8148 115.679 35.3435 115.805 35.8042 116.057C36.2649 116.309 36.6261 116.648 36.888 117.076C37.1498 117.504 37.2807 117.979 37.2807 118.503C37.2807 118.877 37.2128 119.244 37.0769 119.602C36.9443 119.956 36.7123 120.352 36.3809 120.79C36.0527 121.224 35.597 121.754 35.0137 122.381L32.7267 124.827V124.906H37.4597V126H31.0364ZM39.513 126V125.105L42.8738 121.426C43.2682 120.995 43.593 120.621 43.8482 120.303C44.1034 119.981 44.2923 119.679 44.415 119.398C44.5409 119.113 44.6039 118.814 44.6039 118.503C44.6039 118.145 44.5177 117.835 44.3453 117.573C44.1763 117.311 43.9443 117.109 43.6493 116.967C43.3543 116.824 43.0229 116.753 42.655 116.753C42.2639 116.753 41.9225 116.834 41.6309 116.996C41.3425 117.156 41.1188 117.379 40.9597 117.668C40.8039 117.956 40.726 118.294 40.726 118.682H39.5527C39.5527 118.085 39.6903 117.562 39.9654 117.111C40.2405 116.66 40.615 116.309 41.089 116.057C41.5662 115.805 42.1015 115.679 42.6948 115.679C43.2914 115.679 43.82 115.805 44.2807 116.057C44.7414 116.309 45.1027 116.648 45.3645 117.076C45.6264 117.504 45.7573 117.979 45.7573 118.503C45.7573 118.877 45.6893 119.244 45.5534 119.602C45.4209 119.956 45.1889 120.352 44.8574 120.79C44.5293 121.224 44.0736 121.754 43.4902 122.381L41.2033 124.827V124.906H45.9363V126H39.513ZM51.5691 115.818V126H50.3361V117.111H50.2765L47.7907 118.761V117.509L50.3361 115.818H51.5691Z" fill="#757575"/>
</svg>
