<svg width="80" height="129" viewBox="0 0 80 129" fill="none" xmlns="http://www.w3.org/2000/svg">
<rect width="80" height="80" rx="8" fill="#69371E"/>
<path d="M4.36506 95.679C4.81913 95.6823 5.26657 95.7652 5.70739 95.9276C6.1482 96.09 6.54593 96.3551 6.90057 96.723C7.25852 97.0909 7.54356 97.5881 7.75568 98.2145C7.97112 98.8376 8.08049 99.6132 8.08381 100.541C8.08381 101.433 7.99432 102.227 7.81534 102.923C7.63636 103.615 7.3795 104.2 7.04474 104.678C6.71331 105.155 6.31061 105.518 5.83665 105.766C5.36269 106.015 4.82907 106.139 4.2358 106.139C3.62926 106.139 3.09067 106.02 2.62003 105.781C2.14938 105.543 1.76657 105.213 1.47159 104.792C1.17661 104.368 0.992661 103.88 0.919744 103.33H2.43608C2.53551 103.768 2.73769 104.122 3.04261 104.394C3.35085 104.663 3.74858 104.797 4.2358 104.797C4.98153 104.797 5.56321 104.472 5.98082 103.822C6.39844 103.17 6.6089 102.258 6.61222 101.088H6.53267C6.36032 101.373 6.14489 101.618 5.88636 101.824C5.63116 102.029 5.34446 102.188 5.02628 102.301C4.7081 102.414 4.36837 102.47 4.0071 102.47C3.42045 102.47 2.88684 102.326 2.40625 102.038C1.92566 101.749 1.54285 101.353 1.25781 100.849C0.972775 100.346 0.830256 99.7706 0.830256 99.1243C0.830256 98.4813 0.976089 97.898 1.26776 97.3743C1.56274 96.8506 1.97372 96.4363 2.50071 96.1314C3.03101 95.8232 3.65246 95.6723 4.36506 95.679ZM4.37003 96.9716C3.98224 96.9716 3.63258 97.0677 3.32102 97.2599C3.01278 97.4489 2.76918 97.7057 2.5902 98.0305C2.41122 98.352 2.32173 98.71 2.32173 99.1044C2.32173 99.4988 2.40791 99.8568 2.58026 100.178C2.75592 100.496 2.99455 100.75 3.29616 100.939C3.60109 101.125 3.9491 101.217 4.3402 101.217C4.63187 101.217 4.90365 101.161 5.15554 101.048C5.40743 100.936 5.62784 100.78 5.81676 100.581C6.00568 100.379 6.15317 100.15 6.25923 99.8949C6.36529 99.6397 6.41832 99.3712 6.41832 99.0895C6.41832 98.715 6.32884 98.367 6.14986 98.0455C5.9742 97.724 5.73224 97.4654 5.42401 97.2699C5.11577 97.071 4.76444 96.9716 4.37003 96.9716ZM13.4245 106.169C12.639 106.166 11.9679 105.959 11.411 105.548C10.8542 105.137 10.4283 104.538 10.1333 103.753C9.83836 102.967 9.69087 102.021 9.69087 100.914C9.69087 99.8104 9.83836 98.8674 10.1333 98.0852C10.4316 97.303 10.8592 96.7064 11.416 96.2955C11.9761 95.8845 12.6457 95.679 13.4245 95.679C14.2034 95.679 14.8713 95.8861 15.4281 96.3004C15.9849 96.7114 16.4108 97.308 16.7058 98.0902C17.0041 98.8691 17.1532 99.8104 17.1532 100.914C17.1532 102.024 17.0057 102.972 16.7108 103.758C16.4158 104.54 15.9899 105.138 15.4331 105.553C14.8762 105.964 14.2067 106.169 13.4245 106.169ZM13.4245 104.842C14.1139 104.842 14.6525 104.505 15.0403 103.832C15.4314 103.16 15.627 102.187 15.627 100.914C15.627 100.069 15.5375 99.3546 15.3585 98.7713C15.1828 98.1847 14.9293 97.7405 14.5978 97.4389C14.2697 97.134 13.8786 96.9815 13.4245 96.9815C12.7385 96.9815 12.1999 97.3196 11.8088 97.9957C11.4177 98.6719 11.2205 99.6446 11.2172 100.914C11.2172 101.763 11.305 102.48 11.4806 103.067C11.6596 103.65 11.9132 104.093 12.2413 104.394C12.5694 104.692 12.9638 104.842 13.4245 104.842ZM22.4616 106.169C21.6761 106.166 21.005 105.959 20.4482 105.548C19.8913 105.137 19.4654 104.538 19.1705 103.753C18.8755 102.967 18.728 102.021 18.728 100.914C18.728 99.8104 18.8755 98.8674 19.1705 98.0852C19.4688 97.303 19.8963 96.7064 20.4531 96.2955C21.0133 95.8845 21.6828 95.679 22.4616 95.679C23.2405 95.679 23.9084 95.8861 24.4652 96.3004C25.022 96.7114 25.4479 97.308 25.7429 98.0902C26.0412 98.8691 26.1903 99.8104 26.1903 100.914C26.1903 102.024 26.0429 102.972 25.7479 103.758C25.4529 104.54 25.027 105.138 24.4702 105.553C23.9134 105.964 23.2438 106.169 22.4616 106.169ZM22.4616 104.842C23.151 104.842 23.6896 104.505 24.0774 103.832C24.4685 103.16 24.6641 102.187 24.6641 100.914C24.6641 100.069 24.5746 99.3546 24.3956 98.7713C24.2199 98.1847 23.9664 97.7405 23.6349 97.4389C23.3068 97.134 22.9157 96.9815 22.4616 96.9815C21.7756 96.9815 21.237 97.3196 20.8459 97.9957C20.4548 98.6719 20.2576 99.6446 20.2543 100.914C20.2543 101.763 20.3421 102.48 20.5178 103.067C20.6967 103.65 20.9503 104.093 21.2784 104.394C21.6065 104.692 22.0009 104.842 22.4616 104.842Z" fill="#333333"/>
<path d="M4.87216 126L6.54261 115.818H7.53693L5.86648 126H4.87216ZM0.238636 123.176L0.397727 122.182H7.99432L7.83523 123.176H0.238636ZM1.29261 126L2.96307 115.818H3.95739L2.28693 126H1.29261ZM0.835227 119.636L0.994318 118.642H8.59091L8.43182 119.636H0.835227ZM13.2667 126.139C12.8491 126.133 12.4315 126.053 12.0138 125.901C11.5962 125.748 11.2151 125.491 10.8704 125.13C10.5257 124.765 10.2489 124.273 10.0401 123.653C9.83132 123.03 9.72692 122.248 9.72692 121.307C9.72692 120.405 9.81143 119.607 9.98047 118.911C10.1495 118.211 10.3948 117.623 10.7163 117.146C11.0378 116.665 11.4255 116.3 11.8796 116.052C12.337 115.803 12.8524 115.679 13.4258 115.679C13.9959 115.679 14.503 115.793 14.9471 116.022C15.3945 116.247 15.7591 116.562 16.0408 116.967C16.3226 117.371 16.5049 117.837 16.5877 118.364H15.3746C15.262 117.906 15.0432 117.527 14.7184 117.225C14.3936 116.924 13.9627 116.773 13.4258 116.773C12.637 116.773 12.0155 117.116 11.5614 117.802C11.1107 118.488 10.8836 119.451 10.8803 120.69H10.9599C11.1455 120.409 11.3659 120.168 11.6211 119.969C11.8796 119.767 12.1647 119.612 12.4762 119.502C12.7878 119.393 13.1175 119.338 13.4656 119.338C14.0489 119.338 14.5825 119.484 15.0664 119.776C15.5503 120.064 15.9381 120.463 16.2298 120.974C16.5214 121.481 16.6673 122.062 16.6673 122.719C16.6673 123.348 16.5264 123.925 16.2447 124.449C15.9629 124.969 15.5669 125.384 15.0565 125.692C14.5494 125.997 13.9528 126.146 13.2667 126.139ZM13.2667 125.045C13.6843 125.045 14.0588 124.941 14.3903 124.732C14.725 124.523 14.9885 124.243 15.1808 123.892C15.3763 123.541 15.4741 123.15 15.4741 122.719C15.4741 122.298 15.3796 121.915 15.1907 121.57C15.0051 121.222 14.7482 120.946 14.4201 120.74C14.0953 120.535 13.7241 120.432 13.3065 120.432C12.9916 120.432 12.6983 120.495 12.4265 120.621C12.1547 120.743 11.9161 120.912 11.7106 121.128C11.5084 121.343 11.3493 121.59 11.2333 121.869C11.1173 122.144 11.0593 122.434 11.0593 122.739C11.0593 123.143 11.1538 123.521 11.3427 123.872C11.5349 124.223 11.7968 124.507 12.1282 124.722C12.4629 124.938 12.8424 125.045 13.2667 125.045ZM21.8638 115.679C22.2814 115.682 22.699 115.762 23.1167 115.918C23.5343 116.073 23.9154 116.332 24.2601 116.693C24.6048 117.051 24.8816 117.54 25.0904 118.16C25.2992 118.78 25.4036 119.557 25.4036 120.491C25.4036 121.396 25.3174 122.2 25.1451 122.903C24.976 123.602 24.7308 124.192 24.4093 124.673C24.0911 125.153 23.7033 125.518 23.2459 125.766C22.7918 126.015 22.2781 126.139 21.7047 126.139C21.1346 126.139 20.6259 126.027 20.1784 125.801C19.7343 125.572 19.3697 125.256 19.0847 124.852C18.803 124.444 18.6223 123.972 18.5428 123.435H19.7559C19.8652 123.902 20.0823 124.288 20.4071 124.593C20.7353 124.895 21.1678 125.045 21.7047 125.045C22.4902 125.045 23.11 124.702 23.5641 124.016C24.0215 123.33 24.2502 122.361 24.2502 121.108H24.1706C23.985 121.386 23.7646 121.627 23.5094 121.829C23.2542 122.031 22.9708 122.187 22.6593 122.296C22.3477 122.406 22.0163 122.46 21.665 122.46C21.0816 122.46 20.5463 122.316 20.0591 122.028C19.5752 121.736 19.1874 121.337 18.8958 120.83C18.6074 120.319 18.4632 119.736 18.4632 119.08C18.4632 118.456 18.6025 117.886 18.8809 117.369C19.1626 116.849 19.557 116.435 20.0641 116.126C20.5745 115.818 21.1744 115.669 21.8638 115.679ZM21.8638 116.773C21.4462 116.773 21.07 116.877 20.7353 117.086C20.4038 117.291 20.1403 117.57 19.9448 117.921C19.7525 118.269 19.6564 118.655 19.6564 119.08C19.6564 119.504 19.7492 119.89 19.9348 120.238C20.1238 120.583 20.3806 120.858 20.7054 121.063C21.0336 121.265 21.4064 121.366 21.824 121.366C22.1389 121.366 22.4322 121.305 22.704 121.183C22.9758 121.057 23.2128 120.886 23.415 120.67C23.6204 120.452 23.7812 120.205 23.8972 119.93C24.0132 119.651 24.0712 119.361 24.0712 119.06C24.0712 118.662 23.9751 118.289 23.7828 117.941C23.5939 117.593 23.3321 117.311 22.9973 117.096C22.6659 116.88 22.2881 116.773 21.8638 116.773ZM30.799 126.139C30.1428 126.139 29.5578 126.027 29.044 125.801C28.5336 125.576 28.1276 125.263 27.826 124.862C27.5277 124.457 27.3653 123.988 27.3388 123.455H28.5916C28.6181 123.783 28.7308 124.066 28.9297 124.305C29.1286 124.54 29.3887 124.722 29.7102 124.852C30.0317 124.981 30.388 125.045 30.7791 125.045C31.2166 125.045 31.6044 124.969 31.9425 124.817C32.2805 124.664 32.5457 124.452 32.7379 124.18C32.9302 123.909 33.0263 123.594 33.0263 123.236C33.0263 122.861 32.9335 122.531 32.7479 122.246C32.5623 121.958 32.2905 121.733 31.9325 121.57C31.5746 121.408 31.1371 121.327 30.62 121.327H29.8047V120.233H30.62C31.0244 120.233 31.379 120.16 31.6839 120.014C31.9922 119.868 32.2325 119.663 32.4048 119.398C32.5805 119.133 32.6683 118.821 32.6683 118.463C32.6683 118.118 32.5921 117.818 32.4396 117.563C32.2872 117.308 32.0717 117.109 31.7933 116.967C31.5182 116.824 31.1934 116.753 30.8189 116.753C30.4676 116.753 30.1361 116.817 29.8246 116.947C29.5163 117.073 29.2644 117.257 29.0689 117.499C28.8733 117.737 28.7673 118.026 28.7507 118.364H27.5575C27.5774 117.83 27.7382 117.363 28.0398 116.962C28.3414 116.557 28.7358 116.242 29.223 116.017C29.7135 115.792 30.2521 115.679 30.8388 115.679C31.4685 115.679 32.0088 115.807 32.4595 116.062C32.9103 116.314 33.2566 116.647 33.4986 117.061C33.7405 117.475 33.8615 117.923 33.8615 118.403C33.8615 118.977 33.7107 119.466 33.4091 119.87C33.1108 120.274 32.7048 120.554 32.1911 120.71V120.79C32.834 120.896 33.3362 121.169 33.6974 121.61C34.0587 122.048 34.2393 122.589 34.2393 123.236C34.2393 123.789 34.0885 124.286 33.7869 124.727C33.4886 125.165 33.081 125.509 32.5639 125.761C32.0469 126.013 31.4586 126.139 30.799 126.139ZM36.5909 126L41.1449 116.991V116.912H35.8949V115.818H42.4176V116.972L37.8835 126H36.5909ZM47.8503 115.818V126H46.6174V117.111H46.5577L44.0719 118.761V117.509L46.6174 115.818H47.8503ZM54.0002 126.159C53.2644 126.159 52.6297 125.997 52.0961 125.672C51.5658 125.344 51.1564 124.886 50.8681 124.3C50.583 123.71 50.4405 123.024 50.4405 122.241C50.4405 121.459 50.583 120.77 50.8681 120.173C51.1564 119.573 51.5575 119.106 52.0712 118.771C52.5882 118.433 53.1915 118.264 53.8809 118.264C54.2786 118.264 54.6713 118.33 55.0591 118.463C55.4469 118.596 55.7999 118.811 56.1181 119.109C56.4363 119.404 56.6898 119.795 56.8787 120.283C57.0676 120.77 57.1621 121.37 57.1621 122.082V122.58H51.2757V121.565H55.9689C55.9689 121.134 55.8828 120.75 55.7104 120.412C55.5414 120.074 55.2994 119.807 54.9846 119.612C54.673 119.416 54.3051 119.318 53.8809 119.318C53.4135 119.318 53.0092 119.434 52.6678 119.666C52.3297 119.895 52.0695 120.193 51.8873 120.561C51.705 120.929 51.6138 121.323 51.6138 121.744V122.42C51.6138 122.997 51.7132 123.486 51.9121 123.887C52.1143 124.285 52.3944 124.588 52.7523 124.797C53.1103 125.002 53.5262 125.105 54.0002 125.105C54.3084 125.105 54.5868 125.062 54.8354 124.976C55.0873 124.886 55.3044 124.754 55.4867 124.578C55.669 124.399 55.8098 124.177 55.9093 123.912L57.0428 124.23C56.9235 124.615 56.723 124.953 56.4412 125.244C56.1595 125.533 55.8115 125.758 55.3972 125.92C54.9829 126.08 54.5172 126.159 54.0002 126.159Z" fill="#757575"/>
</svg>
