<svg width="80" height="129" viewBox="0 0 80 129" fill="none" xmlns="http://www.w3.org/2000/svg">
<rect width="80" height="80" rx="8" fill="#3B1C0D"/>
<path d="M4.36506 95.679C4.81913 95.6823 5.26657 95.7652 5.70739 95.9276C6.1482 96.09 6.54593 96.3551 6.90057 96.723C7.25852 97.0909 7.54356 97.5881 7.75568 98.2145C7.97112 98.8376 8.08049 99.6132 8.08381 100.541C8.08381 101.433 7.99432 102.227 7.81534 102.923C7.63636 103.615 7.3795 104.2 7.04474 104.678C6.71331 105.155 6.31061 105.518 5.83665 105.766C5.36269 106.015 4.82907 106.139 4.2358 106.139C3.62926 106.139 3.09067 106.02 2.62003 105.781C2.14938 105.543 1.76657 105.213 1.47159 104.792C1.17661 104.368 0.992661 103.88 0.919744 103.33H2.43608C2.53551 103.768 2.73769 104.122 3.04261 104.394C3.35085 104.663 3.74858 104.797 4.2358 104.797C4.98153 104.797 5.56321 104.472 5.98082 103.822C6.39844 103.17 6.6089 102.258 6.61222 101.088H6.53267C6.36032 101.373 6.14489 101.618 5.88636 101.824C5.63116 102.029 5.34446 102.188 5.02628 102.301C4.7081 102.414 4.36837 102.47 4.0071 102.47C3.42045 102.47 2.88684 102.326 2.40625 102.038C1.92566 101.749 1.54285 101.353 1.25781 100.849C0.972775 100.346 0.830256 99.7706 0.830256 99.1243C0.830256 98.4813 0.976089 97.898 1.26776 97.3743C1.56274 96.8506 1.97372 96.4363 2.50071 96.1314C3.03101 95.8232 3.65246 95.6723 4.36506 95.679ZM4.37003 96.9716C3.98224 96.9716 3.63258 97.0677 3.32102 97.2599C3.01278 97.4489 2.76918 97.7057 2.5902 98.0305C2.41122 98.352 2.32173 98.71 2.32173 99.1044C2.32173 99.4988 2.40791 99.8568 2.58026 100.178C2.75592 100.496 2.99455 100.75 3.29616 100.939C3.60109 101.125 3.9491 101.217 4.3402 101.217C4.63187 101.217 4.90365 101.161 5.15554 101.048C5.40743 100.936 5.62784 100.78 5.81676 100.581C6.00568 100.379 6.15317 100.15 6.25923 99.8949C6.36529 99.6397 6.41832 99.3712 6.41832 99.0895C6.41832 98.715 6.32884 98.367 6.14986 98.0455C5.9742 97.724 5.73224 97.4654 5.42401 97.2699C5.11577 97.071 4.76444 96.9716 4.37003 96.9716ZM13.2406 106.139C12.6175 106.139 12.0574 106.02 11.5602 105.781C11.0663 105.539 10.6719 105.208 10.377 104.787C10.082 104.366 9.92454 103.885 9.90465 103.345H11.3961C11.4326 103.783 11.6265 104.142 11.9778 104.424C12.3291 104.706 12.7501 104.847 13.2406 104.847C13.6317 104.847 13.978 104.757 14.2797 104.578C14.5846 104.396 14.8232 104.146 14.9956 103.827C15.1712 103.509 15.2591 103.146 15.2591 102.739C15.2591 102.324 15.1696 101.955 14.9906 101.63C14.8116 101.305 14.5647 101.05 14.2498 100.864C13.9383 100.679 13.5803 100.584 13.176 100.581C12.8677 100.581 12.5578 100.634 12.2463 100.74C11.9347 100.846 11.6828 100.985 11.4906 101.158L10.0836 100.949L10.6554 95.8182H16.2534V97.1357H11.9331L11.6099 99.9844H11.6696C11.8684 99.7921 12.1319 99.6314 12.46 99.5021C12.7915 99.3729 13.1461 99.3082 13.524 99.3082C14.1438 99.3082 14.6956 99.4557 15.1795 99.7507C15.6667 100.046 16.0495 100.448 16.3279 100.959C16.6097 101.466 16.7489 102.049 16.7456 102.709C16.7489 103.368 16.5997 103.957 16.2981 104.474C15.9998 104.991 15.5855 105.398 15.0552 105.697C14.5282 105.992 13.9234 106.139 13.2406 106.139ZM22.1062 106.169C21.3207 106.166 20.6495 105.959 20.0927 105.548C19.5359 105.137 19.11 104.538 18.815 103.753C18.52 102.967 18.3725 102.021 18.3725 100.914C18.3725 99.8104 18.52 98.8674 18.815 98.0852C19.1133 97.303 19.5408 96.7064 20.0977 96.2955C20.6578 95.8845 21.3273 95.679 22.1062 95.679C22.8851 95.679 23.5529 95.8861 24.1097 96.3004C24.6665 96.7114 25.0924 97.308 25.3874 98.0902C25.6857 98.8691 25.8349 99.8104 25.8349 100.914C25.8349 102.024 25.6874 102.972 25.3924 103.758C25.0974 104.54 24.6715 105.138 24.1147 105.553C23.5579 105.964 22.8884 106.169 22.1062 106.169ZM22.1062 104.842C22.7956 104.842 23.3342 104.505 23.7219 103.832C24.113 103.16 24.3086 102.187 24.3086 100.914C24.3086 100.069 24.2191 99.3546 24.0401 98.7713C23.8645 98.1847 23.6109 97.7405 23.2795 97.4389C22.9513 97.134 22.5603 96.9815 22.1062 96.9815C21.4201 96.9815 20.8815 97.3196 20.4904 97.9957C20.0993 98.6719 19.9021 99.6446 19.8988 100.914C19.8988 101.763 19.9866 102.48 20.1623 103.067C20.3413 103.65 20.5948 104.093 20.9229 104.394C21.2511 104.692 21.6455 104.842 22.1062 104.842Z" fill="#333333"/>
<path d="M4.87216 126L6.54261 115.818H7.53693L5.86648 126H4.87216ZM0.238636 123.176L0.397727 122.182H7.99432L7.83523 123.176H0.238636ZM1.29261 126L2.96307 115.818H3.95739L2.28693 126H1.29261ZM0.835227 119.636L0.994318 118.642H8.59091L8.43182 119.636H0.835227ZM13.3263 126.139C12.6701 126.139 12.0851 126.027 11.5714 125.801C11.061 125.576 10.6549 125.263 10.3533 124.862C10.055 124.457 9.89264 123.988 9.86612 123.455H11.119C11.1455 123.783 11.2582 124.066 11.457 124.305C11.6559 124.54 11.9161 124.722 12.2376 124.852C12.5591 124.981 12.9154 125.045 13.3065 125.045C13.744 125.045 14.1317 124.969 14.4698 124.817C14.8079 124.664 15.073 124.452 15.2653 124.18C15.4575 123.909 15.5536 123.594 15.5536 123.236C15.5536 122.861 15.4608 122.531 15.2752 122.246C15.0896 121.958 14.8178 121.733 14.4599 121.57C14.1019 121.408 13.6644 121.327 13.1474 121.327H12.332V120.233H13.1474C13.5517 120.233 13.9064 120.16 14.2113 120.014C14.5195 119.868 14.7598 119.663 14.9322 119.398C15.1078 119.133 15.1957 118.821 15.1957 118.463C15.1957 118.118 15.1194 117.818 14.967 117.563C14.8145 117.308 14.5991 117.109 14.3207 116.967C14.0456 116.824 13.7208 116.753 13.3462 116.753C12.9949 116.753 12.6635 116.817 12.3519 116.947C12.0437 117.073 11.7918 117.257 11.5962 117.499C11.4007 117.737 11.2946 118.026 11.2781 118.364H10.0849C10.1048 117.83 10.2655 117.363 10.5671 116.962C10.8687 116.557 11.2631 116.242 11.7504 116.017C12.2409 115.792 12.7795 115.679 13.3661 115.679C13.9959 115.679 14.5361 115.807 14.9869 116.062C15.4376 116.314 15.784 116.647 16.0259 117.061C16.2679 117.475 16.3888 117.923 16.3888 118.403C16.3888 118.977 16.238 119.466 15.9364 119.87C15.6381 120.274 15.2321 120.554 14.7184 120.71V120.79C15.3614 120.896 15.8635 121.169 16.2248 121.61C16.5861 122.048 16.7667 122.589 16.7667 123.236C16.7667 123.789 16.6159 124.286 16.3143 124.727C16.016 125.165 15.6083 125.509 15.0913 125.761C14.5742 126.013 13.9859 126.139 13.3263 126.139ZM18.979 126V115.818H20.1523V119.577H20.2518C20.3379 119.444 20.4573 119.275 20.6097 119.07C20.7655 118.861 20.9876 118.675 21.2759 118.513C21.5676 118.347 21.962 118.264 22.4592 118.264C23.1022 118.264 23.6689 118.425 24.1594 118.746C24.65 119.068 25.0328 119.524 25.3079 120.114C25.583 120.704 25.7205 121.4 25.7205 122.202C25.7205 123.01 25.583 123.711 25.3079 124.305C25.0328 124.895 24.6516 125.352 24.1644 125.677C23.6772 125.998 23.1154 126.159 22.479 126.159C21.9885 126.159 21.5958 126.078 21.3008 125.915C21.0058 125.75 20.7788 125.562 20.6197 125.354C20.4606 125.142 20.3379 124.966 20.2518 124.827H20.1126V126H18.979ZM20.1325 122.182C20.1325 122.759 20.217 123.267 20.386 123.708C20.555 124.146 20.802 124.489 21.1268 124.737C21.4516 124.982 21.8493 125.105 22.32 125.105C22.8105 125.105 23.2198 124.976 23.5479 124.717C23.8794 124.455 24.128 124.104 24.2937 123.663C24.4627 123.219 24.5472 122.725 24.5472 122.182C24.5472 121.645 24.4644 121.161 24.2987 120.73C24.1362 120.296 23.8893 119.953 23.5579 119.701C23.2298 119.446 22.8171 119.318 22.32 119.318C21.8427 119.318 21.4416 119.439 21.1168 119.681C20.792 119.92 20.5468 120.254 20.381 120.685C20.2153 121.113 20.1325 121.612 20.1325 122.182ZM31.0749 115.818V126H29.842V117.111H29.7823L27.2965 118.761V117.509L29.842 115.818H31.0749ZM37.1254 126.159C36.4094 126.159 35.793 125.99 35.2759 125.652C34.7589 125.314 34.3612 124.848 34.0827 124.255C33.8043 123.662 33.6651 122.984 33.6651 122.222C33.6651 121.446 33.8076 120.762 34.0927 120.168C34.381 119.572 34.7821 119.106 35.2958 118.771C35.8129 118.433 36.4161 118.264 37.1055 118.264C37.6424 118.264 38.1263 118.364 38.5572 118.562C38.988 118.761 39.341 119.04 39.6161 119.398C39.8912 119.756 40.0619 120.173 40.1282 120.651H38.9549C38.8654 120.303 38.6665 119.994 38.3583 119.726C38.0534 119.454 37.6424 119.318 37.1254 119.318C36.668 119.318 36.2669 119.437 35.9222 119.676C35.5808 119.911 35.314 120.245 35.1218 120.675C34.9329 121.103 34.8384 121.605 34.8384 122.182C34.8384 122.772 34.9312 123.286 35.1168 123.723C35.3058 124.161 35.5709 124.5 35.9123 124.742C36.257 124.984 36.6613 125.105 37.1254 125.105C37.4303 125.105 37.707 125.052 37.9556 124.946C38.2042 124.84 38.4147 124.688 38.587 124.489C38.7594 124.29 38.882 124.051 38.9549 123.773H40.1282C40.0619 124.223 39.8978 124.629 39.636 124.991C39.3775 125.349 39.0344 125.634 38.6069 125.846C38.1826 126.055 37.6888 126.159 37.1254 126.159ZM45.1445 126.139C44.3955 126.139 43.7575 125.935 43.2305 125.528C42.7035 125.117 42.3008 124.522 42.0224 123.743C41.744 122.961 41.6048 122.016 41.6048 120.909C41.6048 119.809 41.744 118.869 42.0224 118.09C42.3041 117.308 42.7085 116.711 43.2354 116.3C43.7657 115.886 44.4021 115.679 45.1445 115.679C45.887 115.679 46.5217 115.886 47.0487 116.3C47.579 116.711 47.9833 117.308 48.2617 118.09C48.5434 118.869 48.6843 119.809 48.6843 120.909C48.6843 122.016 48.5451 122.961 48.2667 123.743C47.9883 124.522 47.5856 125.117 47.0586 125.528C46.5316 125.935 45.8936 126.139 45.1445 126.139ZM45.1445 125.045C45.887 125.045 46.4637 124.687 46.8746 123.972C47.2856 123.256 47.4911 122.235 47.4911 120.909C47.4911 120.027 47.3967 119.277 47.2077 118.657C47.0221 118.037 46.7537 117.565 46.4023 117.24C46.0543 116.915 45.6351 116.753 45.1445 116.753C44.4087 116.753 43.8337 117.116 43.4194 117.842C43.0051 118.564 42.7979 119.587 42.7979 120.909C42.7979 121.791 42.8907 122.54 43.0763 123.156C43.262 123.773 43.5288 124.242 43.8768 124.563C44.2281 124.885 44.6507 125.045 45.1445 125.045ZM53.4769 126.159C52.8406 126.159 52.2788 125.998 51.7915 125.677C51.3043 125.352 50.9232 124.895 50.6481 124.305C50.373 123.711 50.2354 123.01 50.2354 122.202C50.2354 121.4 50.373 120.704 50.6481 120.114C50.9232 119.524 51.306 119.068 51.7965 118.746C52.2871 118.425 52.8538 118.264 53.4968 118.264C53.994 118.264 54.3867 118.347 54.6751 118.513C54.9667 118.675 55.1888 118.861 55.3413 119.07C55.497 119.275 55.618 119.444 55.7042 119.577H55.8036V115.818H56.9769V126H55.8434V124.827H55.7042C55.618 124.966 55.4954 125.142 55.3363 125.354C55.1772 125.562 54.9502 125.75 54.6552 125.915C54.3602 126.078 53.9674 126.159 53.4769 126.159ZM53.636 125.105C54.1067 125.105 54.5044 124.982 54.8292 124.737C55.154 124.489 55.4009 124.146 55.57 123.708C55.739 123.267 55.8235 122.759 55.8235 122.182C55.8235 121.612 55.7406 121.113 55.5749 120.685C55.4092 120.254 55.1639 119.92 54.8391 119.681C54.5143 119.439 54.1133 119.318 53.636 119.318C53.1388 119.318 52.7246 119.446 52.3931 119.701C52.065 119.953 51.8181 120.296 51.6523 120.73C51.4899 121.161 51.4087 121.645 51.4087 122.182C51.4087 122.725 51.4916 123.219 51.6573 123.663C51.8263 124.104 52.0749 124.455 52.4031 124.717C52.7345 124.976 53.1455 125.105 53.636 125.105Z" fill="#757575"/>
</svg>
