<svg width="16" height="17" viewBox="0 0 16 17" fill="none" xmlns="http://www.w3.org/2000/svg">
<g clip-path="url(#clip0_11362_868)">
<path d="M8.74543 8.5975C8.73248 8.58534 8.72215 8.57066 8.71509 8.55436C8.70804 8.53805 8.70439 8.52048 8.70439 8.50271C8.70439 8.48494 8.70804 8.46737 8.71509 8.45106C8.72215 8.43476 8.73248 8.42008 8.74543 8.40792L13.7613 3.38667C13.8373 3.3116 13.8976 3.22219 13.9388 3.12363C13.9799 3.02507 14.0011 2.91932 14.0011 2.8125C14.0011 2.70568 13.9799 2.59993 13.9388 2.50137C13.8976 2.40281 13.8373 2.3134 13.7613 2.23833C13.6082 2.08749 13.402 2.00293 13.1871 2.00293C12.9722 2.00293 12.766 2.08749 12.6129 2.23833L7.5971 7.25417C7.58446 7.26727 7.56932 7.2777 7.55257 7.28482C7.53582 7.29194 7.5178 7.29561 7.4996 7.29561C7.48139 7.29561 7.46338 7.29194 7.44663 7.28482C7.42987 7.2777 7.41473 7.26727 7.4021 7.25417L2.38626 2.23833C2.23323 2.08749 2.02698 2.00293 1.8121 2.00293C1.59722 2.00293 1.39097 2.08749 1.23793 2.23833C1.16194 2.3134 1.10161 2.40281 1.06043 2.50137C1.01925 2.59993 0.998047 2.70568 0.998047 2.8125C0.998047 2.91932 1.01925 3.02507 1.06043 3.12363C1.10161 3.22219 1.16194 3.3116 1.23793 3.38667L6.25376 8.40792C6.26672 8.42008 6.27704 8.43476 6.2841 8.45106C6.29116 8.46737 6.2948 8.48494 6.2948 8.50271C6.2948 8.52048 6.29116 8.53805 6.2841 8.55436C6.27704 8.57066 6.26672 8.58534 6.25376 8.5975L1.23793 13.6133C1.16194 13.6884 1.10161 13.7778 1.06043 13.8764C1.01925 13.9749 0.998047 14.0807 0.998047 14.1875C0.998047 14.2943 1.01925 14.4001 1.06043 14.4986C1.10161 14.5972 1.16194 14.6866 1.23793 14.7617C1.39097 14.9125 1.59722 14.9971 1.8121 14.9971C2.02698 14.9971 2.23323 14.9125 2.38626 14.7617L7.4021 9.74583C7.41473 9.73273 7.42987 9.7223 7.44663 9.71518C7.46338 9.70806 7.48139 9.70439 7.4996 9.70439C7.5178 9.70439 7.53582 9.70806 7.55257 9.71518C7.56932 9.7223 7.58446 9.73273 7.5971 9.74583L12.6129 14.7617C12.766 14.9125 12.9722 14.9971 13.1871 14.9971C13.402 14.9971 13.6082 14.9125 13.7613 14.7617C13.8373 14.6866 13.8976 14.5972 13.9388 14.4986C13.9799 14.4001 14.0011 14.2943 14.0011 14.1875C14.0011 14.0807 13.9799 13.9749 13.9388 13.8764C13.8976 13.7778 13.8373 13.6884 13.7613 13.6133L8.74543 8.5975Z" fill="black"/>
</g>
<defs>
<clipPath id="clip0_11362_868">
<rect width="13" height="13" fill="white" transform="translate(1 2)"/>
</clipPath>
</defs>
</svg>
