<svg width="60" height="60" viewBox="0 0 60 60" fill="none" xmlns="http://www.w3.org/2000/svg">
<path fill-rule="evenodd" clip-rule="evenodd" d="M7.05432 12.2526C7.64002 11.7106 8.42357 11.3794 9.28448 11.3794H49.7759C50.6367 11.3794 51.4202 11.7106 52.0059 12.2525C51.7115 12.3332 51.4271 12.4696 51.1681 12.6639L33.2362 26.1128L33.2362 26.1128C31.0399 27.7599 28.0204 27.7599 25.8241 26.1128L25.8241 26.1128L7.89223 12.664C7.6332 12.4697 7.34873 12.3333 7.05432 12.2526ZM6 17.4948V43.5863C6 45.4003 7.47051 46.8708 9.28448 46.8708H49.7759C51.5898 46.8708 53.0603 45.4003 53.0603 43.5863V17.4947L36.2362 30.1128L36.2362 30.1128C32.2621 33.0933 26.7982 33.0933 22.8242 30.1128L22.8241 30.1128L6 17.4948ZM9.28448 6.37939C4.70909 6.37939 1 10.0885 1 14.6639V43.5863C1 48.1617 4.70909 51.8708 9.28448 51.8708H49.7759C54.3513 51.8708 58.0603 48.1617 58.0603 43.5863V14.6639C58.0603 10.0885 54.3513 6.37939 49.7759 6.37939H9.28448Z" fill="#949494"/>
</svg>
