<?xml version="1.0" standalone="no"?>
<!DOCTYPE svg PUBLIC "-//W3C//DTD SVG 20010904//EN"
 "http://www.w3.org/TR/2001/REC-SVG-20010904/DTD/svg10.dtd">
<svg version="1.0" xmlns="http://www.w3.org/2000/svg"
 width="116.000000pt" height="116.000000pt" viewBox="0 0 116.000000 116.000000"
 preserveAspectRatio="xMidYMid meet">
<metadata>
Created by potrace 1.14, written by Peter Selinger 2001-2017
</metadata>
<g transform="translate(0.000000,116.000000) scale(0.100000,-0.100000)"
fill="#000000" stroke="none">
<path d="M95 1144 c-46 -24 -71 -51 -84 -92 -9 -27 -11 -157 -9 -494 3 -443 4
-457 24 -484 11 -15 33 -37 48 -48 27 -20 40 -21 499 -23 l472 -3 40 28 c77
53 75 39 75 555 -1 479 0 473 -45 525 -44 51 -40 51 -531 52 -398 0 -463 -2
-489 -16z"/>
</g>
</svg>
