<svg width="217" height="46" viewBox="0 0 217 46" fill="none" xmlns="http://www.w3.org/2000/svg">
<path d="M133.429 0.149991V16.0569V20.9106V23.9384H129.969H127.295H113.103H110.506H93.9928C93.6808 23.9384 93.3737 23.8942 93.0745 23.8056C92.3486 23.5904 91.1086 23.0627 90.4948 21.8714C90.2734 21.442 90.1792 20.9571 90.1792 20.4737V0.149991H77.5996V22.698C77.6294 24.3972 78.181 26.0525 79.2131 27.4023C79.2386 27.4357 79.2641 27.4687 79.2899 27.5018C81.0319 29.7251 83.7048 31.0184 86.5249 31.1668L88.8816 31.2908H91.3486H110.506H113.103H132.26H134.727C134.751 31.2924 135.593 31.2908 135.929 31.2908H141.168C143.848 31.2908 146.021 29.1178 146.021 26.437V21.9714V18.8923V0.149991H133.429Z" fill="black"/>
<path d="M200.443 19.4806V19.5064C201.812 19.5064 203.077 19.9217 204.101 20.6235C205.051 21.2736 205.13 22.7379 204.283 23.5342C203.162 24.5881 201.607 25.2421 199.891 25.2421V25.2637H160.664V22.3723V19.4806V12.5392V11.5765V6.75646H199.891V6.77772C201.607 6.77772 203.162 7.43173 204.283 8.48567C205.13 9.28226 205.051 10.7463 204.101 11.3964C203.077 12.0984 201.812 12.5137 200.443 12.5137V12.5392H163.515V19.4806H200.443ZM215.261 14.4019C216.047 13.4571 216.442 12.2207 216.442 10.9654V9.08049C216.442 6.2823 213.662 0.175466 204.924 0.14996H152.958C150.516 0.14996 148.97 2.68785 148.97 5.25681L148.785 15.1916L149.13 27.0495C149.218 30.2077 150.515 31.573 152.958 32.156H204.924C213.662 32.1308 216.442 26.024 216.442 23.2255V21.0257C216.442 20.1366 216.21 19.2553 215.726 18.5264C215.091 17.5709 214.12 16.6497 213.142 16.153C213.905 15.7658 214.663 15.121 215.261 14.4019Z" fill="black"/>
<path d="M0 32.0437H61.9588C65.9574 32.0437 73.5273 28.8021 73.5273 24.8031H11.1359C7.13691 24.8031 0 28.0447 0 32.0437Z" fill="black"/>
<path d="M60.1822 11.4115H48.4901V12.4765H46.7357V11.6901C42.5974 12.2362 33.8085 12.7571 33.8085 12.7571V13.6541H26.5038V12.5861H24.4009L14.817 12.6073C13.7051 12.6096 11.5286 11.7166 11.4897 10.6087C11.4893 10.6188 11.4861 10.6283 11.4861 10.6384V10.5789C11.4861 10.5891 11.4893 10.5989 11.4897 10.6087C11.5286 9.50078 13.7051 8.60805 14.817 8.61002L24.4009 8.6316C24.6389 8.63193 24.8662 8.5335 25.0287 8.35953L26.2808 7.02077C26.4231 6.86838 26.6222 6.78205 26.8308 6.78205H34.0488C34.5531 6.78205 34.9618 7.19081 34.9618 7.69505V8.03154H32.8955V8.87228C37.7015 8.766 43.8453 9.3618 46.7357 9.68129V8.87228H48.4901V9.87357H63.9722C69.3426 9.87357 73.6957 5.52014 73.6957 0.150043H13.6584C4.75858 0.366521 0.893699 4.99039 0.216797 9.69666C-0.431983 14.2067 4.32595 21.5595 13.5462 21.7275H73.5306C73.5289 16.0298 65.8799 11.4115 60.1822 11.4115Z" fill="black"/>
<path d="M22.0906 10.8969C22.0906 11.2183 21.83 11.4792 21.5082 11.4792C21.1867 11.4792 20.9258 11.2183 20.9258 10.8969C20.9258 10.5754 21.1867 10.3145 21.5082 10.3145C21.83 10.3145 22.0906 10.5754 22.0906 10.8969Z" fill="black"/>
<path d="M27.1355 10.8969C27.1355 11.2183 26.8749 11.4792 26.5531 11.4792C26.2313 11.4792 25.9707 11.2183 25.9707 10.8969C25.9707 10.5754 26.2313 10.3145 26.5531 10.3145C26.8749 10.3145 27.1355 10.5754 27.1355 10.8969Z" fill="black"/>
<path d="M32.5515 10.8969C32.5515 11.2183 32.2909 11.4792 31.9691 11.4792C31.6473 11.4792 31.3867 11.2183 31.3867 10.8969C31.3867 10.5754 31.6473 10.3145 31.9691 10.3145C32.2909 10.3145 32.5515 10.5754 32.5515 10.8969Z" fill="black"/>
<path d="M37.6765 10.7684C37.6765 11.0902 37.4159 11.3508 37.0941 11.3508C36.7727 11.3508 36.5117 11.0902 36.5117 10.7684C36.5117 10.447 36.7727 10.186 37.0941 10.186C37.4159 10.186 37.6765 10.447 37.6765 10.7684Z" fill="black"/>
<path d="M41.7831 42.1511C41.7831 42.2022 41.8007 42.2453 41.8358 42.2805C41.871 42.3156 41.9125 42.3331 41.9604 42.3331H43.4118C43.4118 42.6844 43.3096 42.983 43.1052 43.2289C42.904 43.4748 42.6613 43.5977 42.3771 43.5977H38.8516C38.8516 43.2465 38.9538 42.9479 39.1581 42.702C39.3625 42.4561 39.6116 42.3316 39.9054 42.3284H40.2982C40.3493 42.3284 40.3924 42.3124 40.4275 42.2805C40.4595 42.2453 40.4754 42.2022 40.4754 42.1511V39.301C40.4754 39.2499 40.4595 39.2068 40.4275 39.1716C40.3924 39.1365 40.3493 39.119 40.2982 39.119H38.8516C38.8516 38.7709 38.9538 38.4723 39.1581 38.2232C39.3625 37.9773 39.6116 37.8544 39.9054 37.8544C41.0486 37.8544 42.2174 37.856 43.4118 37.8591C43.4118 38.2072 43.3096 38.5042 43.1052 38.7501C42.904 38.996 42.6613 39.119 42.3771 39.119H41.9604C41.9125 39.119 41.871 39.1365 41.8358 39.1716C41.8007 39.2068 41.7831 39.2499 41.7831 39.301V42.1511Z" fill="black"/>
<path d="M67.8109 37.8017C67.8939 37.8017 67.9642 37.832 68.0217 37.8927C68.0823 37.9502 68.1127 38.0204 68.1127 38.1034V45.1498H67.878C67.581 45.1498 67.3271 45.0444 67.1163 44.8336C66.9056 44.626 66.8002 44.3738 66.8002 44.0768V39.2387C66.8002 39.2036 66.789 39.1732 66.7666 39.1477C66.7411 39.1253 66.7108 39.1142 66.6756 39.1142H66.2302C66.2046 39.1269 66.1775 39.1557 66.1487 39.2004L63.8686 42.6493C63.677 42.9399 63.4455 43.165 63.174 43.3247C62.9026 43.4844 62.6168 43.5642 62.3166 43.5642H61.7945C61.4943 43.5642 61.2085 43.4844 60.937 43.3247C60.6688 43.165 60.4373 42.9399 60.2425 42.6493L57.9671 39.2004C57.9352 39.1557 57.9065 39.1269 57.8809 39.1142H57.3875C57.3524 39.1142 57.3221 39.1253 57.2965 39.1477C57.271 39.1732 57.2582 39.2036 57.2582 39.2387V43.5786H57.0283C56.7313 43.5786 56.4774 43.4748 56.2666 43.2672C56.0559 43.0565 55.9505 42.8026 55.9505 42.5056V38.0987C55.9505 38.0156 55.9808 37.9454 56.0415 37.8879C56.099 37.8272 56.1692 37.7969 56.2523 37.7969H57.8953C58.122 37.7969 58.3376 37.8576 58.542 37.9789C58.7431 38.0971 58.914 38.2647 59.0545 38.4819L61.3346 41.926C61.4815 42.1463 61.6348 42.2565 61.7945 42.2565H62.3166C62.4763 42.2565 62.6296 42.1463 62.7765 41.926L65.0566 38.4819C65.1971 38.2647 65.3695 38.0971 65.5739 37.9789C65.7751 37.8607 65.989 37.8017 66.2158 37.8017H67.8109Z" fill="black"/>
<path d="M88.3108 37.84C88.8154 37.84 89.2465 38.0188 89.6042 38.3765C89.965 38.7341 90.1455 39.1669 90.1455 39.6746C90.1455 40.0834 90.0289 40.4299 89.7958 40.7141C89.5084 41.0654 89.0852 41.241 88.5264 41.241H83.3961C83.1598 41.241 82.957 41.158 82.7878 40.9919C82.6217 40.8227 82.5371 40.6199 82.5339 40.3836V40.1872H88.306C88.4593 40.1872 88.5887 40.1345 88.694 40.0291C88.7994 39.9301 88.8521 39.8103 88.8521 39.6698V39.6459C88.8457 39.5022 88.7898 39.3808 88.6845 39.2818C88.5791 39.1828 88.4545 39.1333 88.3108 39.1333H82.2321C82.1555 39.1333 82.09 39.1605 82.0357 39.2148C81.9814 39.269 81.9543 39.3345 81.9543 39.4112V40.1872L81.9495 41.241V43.5786H81.3795C81.1815 43.5786 81.0122 43.5083 80.8717 43.3678C80.7312 43.2273 80.661 43.0565 80.661 42.8553V38.3046C80.661 38.1769 80.7057 38.0667 80.7951 37.9741C80.8845 37.8847 80.9947 37.84 81.1256 37.84H88.3108Z" fill="black"/>
<path d="M109.199 37.8544C109.585 37.8544 109.956 37.9294 110.31 38.0795C110.652 38.2232 110.955 38.4276 111.22 38.6926C111.485 38.9545 111.69 39.2579 111.833 39.6028C111.983 39.9572 112.058 40.3277 112.058 40.7141C112.058 41.1037 111.983 41.4757 111.833 41.8302C111.69 42.1719 111.485 42.4737 111.22 42.7355C110.955 43.0006 110.652 43.2066 110.31 43.3535C109.956 43.5003 109.585 43.5738 109.199 43.5738H105.458C105.071 43.5738 104.701 43.5003 104.346 43.3535C104.005 43.2066 103.701 43.0006 103.436 42.7355C103.171 42.4737 102.967 42.1719 102.823 41.8302C102.673 41.4757 102.598 41.1037 102.598 40.7141C102.598 40.3277 102.673 39.9572 102.823 39.6028C102.967 39.2579 103.171 38.9545 103.436 38.6926C103.701 38.4276 104.005 38.2232 104.346 38.0795C104.701 37.9294 105.071 37.8544 105.458 37.8544H109.199ZM105.458 39.1429C105.027 39.1429 104.656 39.2962 104.346 39.6028C104.04 39.9093 103.886 40.2798 103.886 40.7141C103.886 41.1484 104.04 41.5188 104.346 41.8254C104.656 42.132 105.027 42.2852 105.458 42.2852H109.199C109.63 42.2852 110 42.132 110.31 41.8254C110.617 41.5188 110.77 41.1484 110.77 40.7141C110.77 40.2798 110.617 39.9093 110.31 39.6028C110 39.2962 109.63 39.1429 109.199 39.1429H105.458Z" fill="black"/>
<path d="M133.306 41.0015C133.58 41.0973 133.777 41.2905 133.895 41.5811C133.991 41.8206 134.039 42.1431 134.039 42.5487V44.8384H133.56C133.339 44.8384 133.151 44.7602 132.994 44.6037C132.838 44.4472 132.76 44.2588 132.76 44.0384V42.3331C132.76 42.0138 132.664 41.7551 132.472 41.5571C132.265 41.34 131.968 41.225 131.581 41.2123H127.16C126.917 41.2123 126.71 41.1276 126.537 40.9584C126.368 40.7859 126.283 40.5784 126.283 40.3357V40.168H132.099C132.255 40.168 132.384 40.1169 132.487 40.0147C132.586 39.9189 132.635 39.8024 132.635 39.665V39.6267C132.625 39.483 132.566 39.3633 132.458 39.2675C132.349 39.1716 132.222 39.1237 132.075 39.1237H126.034C125.97 39.1237 125.914 39.1461 125.867 39.1908C125.822 39.2387 125.8 39.2946 125.8 39.3585V43.5259H125.229C125.035 43.5259 124.867 43.4572 124.727 43.3199C124.586 43.1794 124.516 43.0102 124.516 42.8122V38.2471C124.516 38.1354 124.556 38.0396 124.636 37.9597C124.715 37.8799 124.811 37.84 124.923 37.84H132.046C132.547 37.84 132.98 38.0108 133.344 38.3525C133.711 38.6974 133.901 39.1174 133.914 39.6123V39.6602C133.914 39.9157 133.863 40.16 133.761 40.3931C133.655 40.6263 133.504 40.829 133.306 41.0015Z" fill="black"/>
<path d="M147.545 37.8256H155.679C155.679 38.1737 155.578 38.4707 155.377 38.7166C155.179 38.9593 154.938 39.0806 154.653 39.0806H152.096C152.032 39.0806 151.977 39.103 151.933 39.1477C151.888 39.1924 151.866 39.2467 151.866 39.3106V43.5594H151.722C151.403 43.5594 151.131 43.4461 150.908 43.2193C150.684 42.9958 150.572 42.7259 150.572 42.4098V39.3106C150.572 39.2467 150.55 39.1924 150.505 39.1477C150.46 39.103 150.406 39.0806 150.342 39.0806H146.501C146.501 38.7326 146.603 38.4372 146.807 38.1945C147.012 37.9486 147.257 37.8256 147.545 37.8256Z" fill="black"/>
<path d="M169.582 40.2063H177.141C177.266 40.2063 177.373 40.251 177.462 40.3404C177.548 40.4299 177.592 40.5368 177.592 40.6614V40.9727C177.592 41.0622 177.587 41.1548 177.577 41.2506C177.507 41.9116 177.224 42.4657 176.729 42.9128C176.231 43.363 175.645 43.5882 174.971 43.5882H168.121C168.121 43.2337 168.248 42.9303 168.5 42.678C168.752 42.4258 169.057 42.2996 169.415 42.2996H174.971C175.259 42.2996 175.517 42.215 175.747 42.0457C175.974 41.8829 176.134 41.6705 176.226 41.4086C176.23 41.3959 176.231 41.3831 176.231 41.3703C176.231 41.348 176.223 41.3256 176.207 41.3033C176.185 41.2681 176.153 41.2506 176.111 41.2506H168.572C168.447 41.2506 168.342 41.2059 168.256 41.1164C168.166 41.0302 168.121 40.9248 168.121 40.8003V40.4746C168.121 40.3852 168.126 40.2957 168.136 40.2063C168.203 39.5421 168.484 38.9848 168.979 38.5346C169.477 38.0811 170.065 37.8544 170.742 37.8544H177.592C177.592 38.212 177.465 38.517 177.213 38.7693C176.961 39.0216 176.658 39.1477 176.303 39.1477H170.742C170.451 39.1477 170.188 39.2339 169.951 39.4064C169.721 39.5756 169.563 39.7944 169.477 40.0626C169.474 40.0754 169.472 40.0866 169.472 40.0961C169.472 40.1185 169.479 40.1409 169.491 40.1632C169.514 40.192 169.544 40.2063 169.582 40.2063Z" fill="black"/>
</svg>
