<svg width="60" height="60" viewBox="0 0 60 60" fill="none" xmlns="http://www.w3.org/2000/svg">
<path d="M52.5 17.5H50C47.3478 17.5 44.8043 16.4464 42.9289 14.5711C41.0536 12.6957 40 10.1522 40 7.5H30V36.25C30 37.3154 29.7277 38.363 29.2089 39.2935C28.6901 40.224 27.9421 41.0065 27.0358 41.5666C26.1296 42.1267 25.0952 42.4458 24.0309 42.4937C22.9666 42.5416 21.9078 42.3166 20.9549 41.8402C20.002 41.3637 19.1868 40.6516 18.5865 39.7715C17.9862 38.8913 17.6209 37.8723 17.5253 36.8113C17.4296 35.7502 17.6067 34.6823 18.0398 33.709C18.473 32.7357 19.1477 31.8892 20 31.25V20.45C17.029 21.1546 14.3166 22.6821 12.1737 24.8574C10.0308 27.0326 8.54418 29.7676 7.88416 32.7489C7.22415 35.7302 7.41746 38.8371 8.44195 41.7136C9.46644 44.59 11.2807 47.1196 13.6766 49.0125C16.0726 50.9053 18.9535 52.0848 21.9889 52.4157C25.0244 52.7466 28.0917 52.2156 30.8393 50.8834C33.5868 49.5513 35.9035 47.472 37.5237 44.8839C39.1439 42.2957 40.0021 39.3035 40 36.25V24.8C43.0384 26.5625 46.4874 27.4938 50 27.5H52.5V17.5Z" stroke="#949494" stroke-width="5" stroke-linecap="round" stroke-linejoin="round"/>
</svg>
